<?xml version="1.0" standalone="no"?>
<!DOCTYPE svg PUBLIC "-//W3C//DTD SVG 20010904//EN"
 "http://www.w3.org/TR/2001/REC-SVG-20010904/DTD/svg10.dtd">
<svg version="1.0" xmlns="http://www.w3.org/2000/svg"
 width="1000.000000pt" height="2000.000000pt" viewBox="0 0 1000.000000 2000.000000"
 preserveAspectRatio="xMidYMid meet">
<metadata>
Created by potrace 1.16, written by Peter Selinger 2001-2019
</metadata>
<g transform="translate(0.000000,2000.000000) scale(0.100000,-0.100000)"
fill="#000000" stroke="none">
<path d="M5180 17033 c-303 -7 -690 -41 -970 -85 -74 -11 -161 -25 -193 -29
-33 -5 -63 -12 -69 -15 -5 -3 -37 -10 -71 -14 -132 -18 -581 -122 -697 -162
-8 -3 -58 -16 -110 -28 -52 -13 -151 -43 -220 -67 -69 -24 -149 -50 -179 -59
-30 -8 -127 -42 -215 -76 -89 -33 -179 -67 -200 -75 -278 -100 -444 -263 -523
-512 -22 -70 -26 -362 -5 -383 6 -6 12 -20 12 -29 0 -20 67 -172 95 -214 87
-133 238 -246 387 -289 46 -13 63 -25 95 -64 40 -49 74 -100 113 -167 21 -36
63 -105 98 -160 59 -94 57 -95 -183 -115 -71 -6 -145 -16 -164 -22 -18 -6 -79
-14 -135 -18 -55 -4 -146 -13 -201 -19 -351 -41 -391 -52 -487 -140 -96 -88
-149 -190 -163 -313 -4 -35 -11 -68 -16 -74 -5 -6 -13 -52 -19 -104 -6 -51
-12 -96 -15 -99 -2 -4 -18 -104 -34 -222 -17 -118 -36 -233 -41 -256 -6 -23
-15 -85 -20 -138 -5 -52 -14 -103 -19 -113 -5 -9 -19 -89 -31 -177 -11 -88
-25 -189 -31 -225 -5 -36 -18 -128 -29 -205 -11 -77 -24 -167 -30 -200 -15
-90 -12 -233 6 -295 33 -112 120 -211 234 -268 36 -18 72 -37 80 -42 18 -11
654 -323 822 -404 134 -64 163 -92 154 -146 -17 -93 -18 -140 -7 -233 7 -56
16 -111 20 -122 4 -11 18 -51 31 -90 33 -102 51 -133 118 -205 111 -121 237
-170 381 -147 58 8 75 8 110 -6 80 -33 203 -17 256 33 16 15 39 19 120 22 81
2 109 8 150 27 56 28 154 120 176 166 9 19 33 39 68 57 29 15 62 35 72 43 11
11 25 14 38 10 27 -8 71 -73 71 -103 0 -21 -66 -166 -103 -227 -57 -95 -161
-205 -252 -267 -108 -74 -349 -153 -394 -129 -10 6 -26 26 -35 45 -32 68 -91
131 -155 165 -59 31 -67 33 -180 34 l-118 2 -44 36 c-57 46 -117 81 -209 121
-72 31 -80 32 -215 32 l-140 1 -88 -43 c-119 -58 -226 -163 -314 -307 -25 -42
-105 -202 -119 -240 -60 -159 -104 -317 -104 -371 0 -14 -8 -39 -17 -57 -16
-28 -18 -65 -18 -307 0 -239 2 -283 18 -335 11 -33 23 -76 29 -95 34 -116 145
-284 228 -345 72 -53 78 -63 44 -76 -16 -6 -67 -15 -114 -20 -47 -5 -103 -15
-125 -23 -34 -12 -40 -18 -40 -42 0 -24 7 -32 45 -50 50 -24 239 -64 300 -64
20 0 62 -5 91 -10 30 -6 113 -15 184 -20 72 -5 195 -17 275 -25 80 -8 198 -19
263 -25 64 -5 134 -14 155 -20 20 -5 66 -10 102 -10 36 -1 99 -5 140 -10 41
-5 125 -14 185 -20 61 -5 166 -17 235 -25 69 -9 163 -20 210 -26 47 -5 114
-14 150 -20 36 -5 103 -14 150 -19 47 -5 114 -14 150 -19 36 -6 137 -18 225
-26 88 -9 196 -21 240 -26 44 -6 118 -15 165 -19 47 -5 141 -16 210 -25 69 -8
174 -20 234 -25 60 -6 125 -14 145 -20 20 -5 63 -10 96 -10 33 0 89 -5 125
-10 36 -5 167 -16 292 -25 125 -8 233 -17 240 -20 7 -2 135 -11 283 -19 149
-9 347 -21 440 -27 194 -13 662 -7 806 10 149 17 212 47 181 84 -15 18 -154
62 -242 77 -74 12 -150 26 -197 35 -48 10 -40 26 26 58 33 15 65 34 71 42 7 8
17 15 22 15 7 0 138 84 228 147 62 43 225 191 288 261 64 72 172 213 172 225
0 3 16 33 36 67 64 110 76 157 81 335 6 184 -4 240 -65 364 -46 93 -177 231
-265 279 -122 65 -168 76 -322 75 -145 0 -192 -10 -310 -65 -127 -58 -283
-192 -401 -344 -36 -45 -66 -74 -78 -74 -10 0 -33 13 -51 29 -50 44 -133 71
-218 71 -40 0 -78 4 -85 8 -14 9 -87 130 -97 160 -8 26 9 36 80 51 33 7 89 18
125 26 36 7 92 16 125 20 33 3 69 10 80 15 11 4 61 15 110 24 50 9 104 21 120
25 29 9 143 34 295 66 41 8 87 15 102 15 15 0 45 6 65 14 21 7 81 21 133 31
52 10 99 22 105 26 5 5 22 9 39 9 16 0 55 6 85 14 84 22 267 56 299 56 15 0
32 4 37 9 6 4 51 16 100 25 112 21 215 44 279 62 26 8 58 14 71 14 12 0 56 7
96 15 363 75 419 88 448 110 22 16 51 86 51 126 0 19 6 76 14 125 30 187 46
302 56 394 9 75 16 103 37 133 15 21 30 40 35 43 4 3 8 92 8 199 l0 193 -33
29 c-18 16 -46 34 -63 40 -79 31 -354 123 -367 123 -8 0 -20 7 -27 15 -7 8
-18 15 -26 15 -25 0 -26 22 -1 48 14 15 43 54 66 86 39 56 41 63 41 132 0 70
-1 74 -46 133 -40 54 -56 66 -140 106 -52 25 -99 45 -103 45 -4 0 -21 6 -37
14 -16 8 -65 25 -109 37 -44 12 -89 25 -100 30 -29 13 -231 59 -297 68 -31 5
-61 12 -68 16 -6 4 -64 11 -128 16 -292 21 -280 19 -307 51 -14 17 -37 50 -51
75 -37 63 -28 68 91 54 58 -8 136 -10 198 -6 105 7 278 44 333 72 37 19 72 14
174 -22 66 -24 86 -27 160 -23 65 4 99 12 142 32 64 30 141 95 181 154 26 37
31 39 92 45 268 25 544 245 679 540 51 110 66 159 82 269 35 239 -17 461 -161
683 -43 68 -161 198 -221 245 -201 158 -353 220 -556 227 -120 5 -185 -10
-293 -66 -125 -64 -270 -236 -289 -343 -6 -35 -12 -40 -80 -72 -115 -53 -222
-166 -241 -257 -4 -19 -12 -40 -18 -47 -6 -7 -10 -69 -11 -145 0 -160 19 -251
75 -350 42 -75 46 -95 25 -135 -27 -53 -35 -78 -39 -130 -2 -29 -8 -57 -13
-62 -5 -5 -41 -14 -81 -20 -125 -20 -238 12 -380 106 -100 67 -263 210 -293
259 -22 36 -22 37 -7 118 17 90 30 163 53 307 8 52 20 122 25 155 24 149 41
279 49 390 5 66 14 161 20 210 6 50 14 354 17 678 l6 587 61 33 c131 69 263
238 315 402 24 76 29 253 10 335 -26 114 -119 257 -223 342 -107 89 -190 124
-381 163 -44 9 -101 21 -127 26 -82 18 -160 30 -258 39 -52 5 -117 14 -145 20
-27 5 -131 15 -230 21 -99 6 -245 14 -325 19 -135 8 -423 9 -690 3z m809 -177
c167 -9 311 -18 320 -21 9 -2 66 -9 126 -15 185 -19 397 -55 555 -96 188 -49
229 -75 332 -204 75 -95 109 -262 77 -374 -39 -134 -72 -192 -155 -272 -77
-73 -108 -80 -231 -50 -167 41 -246 56 -286 56 -21 0 -47 5 -58 10 -10 6 -63
15 -117 20 -107 10 -224 25 -318 40 -79 13 -893 13 -998 0 -45 -5 -126 -15
-181 -21 -211 -24 -231 -27 -265 -38 -19 -6 -55 -11 -80 -11 -77 0 -508 -81
-583 -109 -16 -6 -41 -11 -56 -11 -15 0 -31 -4 -36 -9 -6 -6 -35 -15 -65 -20
-132 -24 -230 -51 -405 -109 -49 -16 -117 -38 -150 -48 -33 -9 -100 -33 -150
-52 -143 -54 -265 -98 -325 -117 -30 -9 -70 -24 -87 -32 -42 -20 -68 -11 -58
20 18 58 27 163 22 277 -6 140 -28 219 -98 339 -49 85 -163 200 -233 235 -72
37 -84 51 -55 66 26 14 209 80 324 116 44 14 91 30 103 35 58 23 173 57 422
124 52 15 118 32 145 40 107 29 253 63 325 74 41 7 96 19 122 27 26 8 65 14
88 14 22 0 57 7 77 15 19 8 52 15 72 15 20 0 68 6 106 14 39 8 124 20 190 26
66 6 149 16 185 21 36 5 207 16 380 24 173 8 333 17 355 19 61 6 327 -1 664
-18z m-3639 -724 c163 -77 248 -177 297 -352 30 -103 15 -338 -25 -417 -29
-56 -52 -112 -52 -127 0 -25 17 -54 64 -110 55 -66 193 -263 232 -331 6 -11
25 -42 42 -70 17 -27 50 -86 72 -129 23 -44 53 -97 66 -117 13 -21 24 -41 24
-44 0 -3 18 -44 40 -91 22 -47 40 -90 40 -96 0 -5 9 -21 20 -35 11 -14 20 -36
20 -48 0 -12 7 -28 15 -35 8 -7 15 -22 15 -34 0 -12 4 -26 9 -32 5 -5 23 -49
41 -99 17 -49 38 -103 46 -120 12 -26 51 -147 114 -356 11 -36 20 -74 20 -85
0 -11 5 -25 12 -32 6 -6 15 -33 19 -59 4 -27 13 -70 19 -98 77 -347 82 -395
89 -920 5 -329 11 -478 19 -498 13 -30 17 -269 5 -280 -3 -4 -17 2 -29 14 -24
22 -52 40 -90 58 -11 5 -35 25 -52 45 l-32 37 0 152 c-1 171 -26 678 -40 807
-25 222 -25 245 1 282 22 30 24 42 23 143 -1 87 -5 122 -23 166 -30 78 -90
161 -131 181 -35 18 -69 67 -70 102 0 11 -10 49 -21 85 -12 36 -32 100 -46
141 -13 41 -37 107 -52 145 -16 39 -43 108 -61 155 -17 47 -45 114 -62 150
-17 36 -45 99 -63 140 -18 41 -56 118 -85 170 -30 52 -67 119 -83 149 -35 65
-103 175 -202 326 -39 61 -74 118 -78 127 -10 27 -50 48 -113 58 -33 5 -77 17
-99 27 -72 31 -175 114 -211 170 -56 87 -97 175 -105 223 -27 168 -27 168 -14
207 8 21 14 46 15 56 0 34 61 161 102 215 59 78 135 113 238 108 49 -2 91 -11
120 -24z m3695 -332 c83 -6 197 -15 255 -21 58 -6 141 -14 185 -18 44 -4 96
-13 115 -19 19 -6 69 -15 110 -21 122 -16 242 -42 273 -57 l29 -15 -5 -577
c-5 -576 -19 -880 -51 -1117 -32 -242 -36 -267 -42 -277 -4 -6 -10 -41 -14
-77 -4 -36 -13 -93 -20 -126 -6 -33 -18 -96 -27 -140 -20 -108 -71 -305 -98
-385 -13 -36 -33 -99 -45 -140 -68 -232 -312 -735 -409 -842 -24 -28 -26 -28
-145 -28 -119 0 -349 -21 -456 -42 -187 -36 -272 -56 -385 -89 -238 -70 -296
-103 -354 -199 -33 -54 -29 -141 9 -216 40 -79 39 -90 -10 -97 -53 -7 -79 1
-91 27 -5 11 -32 55 -59 96 -81 121 -100 181 -65 210 8 7 15 19 15 26 0 8 -7
14 -15 14 -10 0 -15 -10 -15 -27 0 -26 0 -26 -20 -8 -21 19 -37 44 -64 100 -8
17 -24 39 -35 49 -12 11 -21 23 -21 28 0 4 -28 51 -62 102 -88 133 -108 165
-108 181 0 7 -16 22 -35 34 -20 11 -44 35 -53 51 -9 17 -51 84 -93 148 -41 64
-107 169 -146 232 -112 181 -219 347 -339 530 -108 163 -137 221 -155 305 -27
135 -112 419 -130 439 -5 6 -9 17 -9 25 0 9 -7 29 -15 45 -8 15 -15 34 -15 42
0 61 -308 730 -393 853 -17 25 -41 64 -54 88 -12 24 -40 67 -61 96 -87 117
-133 191 -128 204 3 7 14 16 23 19 38 12 163 58 283 104 69 26 177 65 240 85
63 20 131 43 150 50 47 19 144 48 265 80 55 15 122 33 149 41 26 8 54 14 61
14 7 0 35 7 61 14 169 51 389 93 671 130 55 8 106 17 113 21 7 4 53 11 104 16
50 4 134 13 186 19 234 27 700 37 945 20z m-3377 -1487 c11 -21 36 -69 56
-108 20 -38 41 -74 46 -79 6 -6 10 -22 10 -37 0 -15 4 -30 9 -33 4 -3 19 -34
31 -68 13 -35 29 -70 37 -79 7 -8 13 -22 13 -30 0 -8 12 -45 25 -84 14 -38 25
-80 25 -93 0 -21 -3 -22 -88 -20 -69 1 -94 -2 -112 -15 -25 -18 -134 -25 -144
-9 -2 4 0 30 5 57 12 62 -3 159 -33 217 -26 50 -137 163 -170 173 -13 4 -34
15 -48 25 -14 9 -38 20 -55 24 -39 9 -131 53 -175 82 -19 13 -45 24 -57 24
-25 0 -29 10 -11 28 7 7 43 12 93 12 57 0 87 5 103 16 18 12 51 15 170 14 81
0 163 3 182 8 58 16 67 14 88 -25z m6135 -32 c175 -62 262 -116 377 -231 113
-112 220 -298 256 -440 24 -97 24 -258 0 -360 -18 -78 -82 -226 -128 -295 -68
-103 -208 -229 -310 -279 -118 -57 -282 -80 -400 -55 -66 14 -109 33 -175 77
-53 35 -78 37 -89 7 -21 -54 103 -163 219 -190 66 -17 13 -85 -92 -120 -143
-47 -315 34 -449 211 -77 102 -106 166 -110 244 -5 105 32 147 86 97 39 -35
146 -97 170 -97 11 0 25 6 31 14 18 21 1 47 -56 89 -119 89 -212 210 -254 332
-21 62 -24 87 -23 215 1 124 4 151 21 190 31 67 87 126 148 154 46 23 67 26
154 26 55 0 102 -4 105 -9 3 -5 18 -12 32 -15 50 -13 138 -82 174 -137 59 -90
63 -101 68 -180 8 -136 -47 -199 -174 -199 -91 0 -156 38 -211 123 -19 31 -29
38 -51 35 -82 -9 12 -194 130 -254 26 -13 56 -24 67 -24 26 0 41 -28 41 -75 0
-46 15 -75 40 -75 24 0 36 22 43 80 7 52 34 80 78 80 26 0 29 -3 29 -32 0 -58
42 -167 82 -212 43 -50 133 -94 208 -103 118 -14 258 66 310 177 18 39 21 55
14 68 -22 34 -48 25 -115 -40 -67 -66 -113 -88 -180 -88 -116 0 -199 88 -199
211 0 61 39 157 91 222 74 91 177 157 308 196 61 19 82 41 65 69 -24 37 -147
21 -255 -34 -26 -13 -75 -46 -108 -74 -33 -27 -65 -50 -71 -50 -13 0 -30 43
-30 75 0 13 -20 63 -45 109 -25 47 -45 92 -45 100 0 32 124 113 208 135 82 23
132 49 132 70 0 82 -227 33 -367 -78 -29 -22 -61 -41 -71 -41 -10 0 -51 16
-91 36 -40 19 -89 38 -109 41 -49 8 -72 20 -72 39 0 21 53 99 104 153 128 135
308 176 489 112z m-7054 -90 c20 -15 38 -20 51 -16 12 4 26 2 33 -3 7 -5 42
-25 78 -45 58 -31 106 -51 231 -99 15 -5 34 -18 44 -29 9 -10 28 -19 41 -19
27 0 100 -43 125 -74 10 -11 18 -30 18 -42 0 -11 7 -29 15 -40 18 -24 19 -78
0 -129 -8 -22 -14 -69 -15 -105 0 -37 -5 -71 -12 -78 -6 -6 -14 -51 -16 -99
-2 -49 -8 -92 -12 -96 -4 -5 -46 9 -92 32 -46 23 -89 41 -95 41 -6 0 -16 7
-23 15 -7 8 -24 15 -39 15 -14 0 -35 7 -45 15 -11 8 -28 15 -39 15 -10 0 -33
11 -51 25 -18 14 -39 25 -45 25 -7 0 -25 7 -39 15 -26 14 -79 37 -152 66 -19
8 -59 26 -88 42 -30 15 -60 27 -67 27 -7 0 -18 7 -25 15 -7 8 -20 15 -29 15
-9 0 -33 11 -53 25 -21 14 -52 28 -70 32 -18 3 -39 10 -45 16 -18 13 -16 62 2
77 10 8 15 31 15 71 0 32 4 60 9 63 5 3 12 21 15 39 18 94 107 198 182 210 66
11 161 0 193 -22z m-361 -647 c37 -15 73 -32 81 -38 17 -13 77 -36 113 -43 15
-3 33 -11 39 -19 6 -8 16 -14 21 -14 5 0 24 -11 41 -24 18 -14 46 -28 62 -32
17 -4 51 -17 77 -29 25 -12 58 -25 73 -29 15 -4 44 -18 66 -31 21 -14 44 -25
51 -25 7 0 37 -14 67 -30 30 -17 61 -30 69 -30 12 0 39 -12 132 -60 9 -4 14
-18 12 -31 -2 -13 -6 -46 -9 -74 -3 -27 -9 -54 -13 -60 -4 -5 -11 -36 -15 -68
-3 -32 -16 -74 -26 -92 -15 -25 -18 -43 -13 -70 11 -61 -16 -254 -42 -300 -42
-72 -64 -123 -64 -147 0 -13 -4 -28 -9 -33 -43 -46 -64 -309 -36 -454 9 -50
24 -96 31 -102 16 -13 19 -65 5 -73 -17 -11 -51 -86 -51 -114 0 -15 -7 -36
-15 -46 -8 -11 -15 -39 -15 -63 0 -24 -1 -43 -3 -43 -2 0 -21 9 -43 19 -22 11
-52 23 -67 26 -14 4 -31 13 -38 21 -6 8 -19 14 -28 14 -9 0 -36 14 -61 30 -25
16 -51 30 -58 30 -7 0 -29 11 -50 24 -20 12 -48 27 -61 31 -14 4 -45 19 -70
33 -69 38 -110 58 -176 87 -132 58 -172 82 -227 138 -59 58 -74 97 -46 125 9
9 9 12 0 12 -7 0 -12 -5 -12 -11 0 -5 -4 -7 -10 -4 -13 8 -13 122 0 130 6 3
10 27 10 53 0 26 7 72 16 102 8 30 17 83 19 116 1 36 10 72 20 88 12 17 18 51
20 99 9 225 18 324 30 343 18 28 45 172 45 243 1 33 7 64 15 75 10 13 15 44
15 85 1 38 7 77 15 91 8 15 14 53 15 93 0 61 11 107 26 107 3 0 36 -12 72 -26z
m1596 -46 c8 -13 25 -49 37 -81 l22 -58 -34 -29 c-19 -16 -38 -29 -43 -30 -10
0 -84 -55 -191 -141 -38 -31 -75 -58 -81 -60 -6 -2 -42 -40 -81 -84 -134 -153
-151 -170 -158 -163 -4 4 -2 53 5 110 7 57 14 141 17 188 2 47 9 90 14 96 5 6
12 33 15 60 4 27 12 55 18 63 5 7 13 34 16 60 l5 46 80 8 c44 4 114 14 155 21
41 7 101 14 132 15 49 1 60 -2 72 -21z m767 -680 c7 -13 25 -39 40 -59 16 -20
29 -44 29 -52 0 -8 20 -40 45 -70 25 -31 45 -62 45 -70 0 -8 7 -20 15 -27 8
-7 15 -17 15 -23 0 -5 30 -56 68 -111 70 -105 84 -128 102 -161 6 -11 18 -32
28 -46 9 -14 26 -39 36 -55 10 -16 27 -41 37 -56 11 -15 19 -30 19 -34 0 -3
25 -44 55 -90 30 -47 55 -88 55 -92 0 -4 13 -23 30 -42 16 -19 29 -41 30 -48
0 -8 20 -40 45 -72 25 -32 45 -63 45 -69 0 -11 33 -64 75 -121 14 -19 35 -48
47 -64 20 -26 36 -54 76 -131 16 -32 116 -179 138 -206 8 -8 14 -21 14 -28 0
-6 18 -37 41 -67 l40 -55 -48 -43 c-26 -24 -51 -42 -54 -40 -4 2 -19 27 -34
56 -15 29 -51 85 -79 123 -29 39 -55 77 -58 86 -3 8 -23 42 -44 75 -47 72 -61
95 -70 114 -4 8 -24 40 -45 70 -20 30 -49 78 -64 105 -15 28 -34 58 -43 68
-17 19 -25 33 -65 108 -16 30 -35 61 -42 69 -15 18 -145 229 -145 237 0 3 -13
22 -29 42 -16 20 -39 54 -51 76 -40 74 -62 110 -85 137 -13 16 -27 38 -30 50
-4 13 -15 32 -25 43 -10 11 -35 51 -55 90 -19 38 -42 76 -50 85 -8 9 -15 20
-15 25 0 5 -9 19 -21 31 -14 15 -22 39 -25 80 -2 33 -6 79 -8 104 -2 25 -7 53
-11 63 -11 26 12 21 26 -5z m3145 -75 c11 -16 23 -35 26 -43 3 -8 31 -50 62
-93 31 -43 56 -81 56 -85 0 -4 11 -20 25 -37 14 -16 31 -43 39 -60 7 -16 29
-51 50 -78 20 -26 36 -51 36 -56 0 -4 9 -16 20 -26 11 -10 31 -41 45 -69 14
-28 32 -61 41 -73 15 -21 14 -23 -28 -44 -24 -11 -53 -31 -66 -42 -24 -23 -30
-20 -59 30 -10 18 -31 50 -47 73 -28 38 -28 41 -11 59 21 24 13 40 -17 34 -25
-5 -35 6 -115 126 -28 42 -41 71 -37 83 3 12 0 18 -9 18 -17 0 -97 122 -97
147 0 9 11 40 25 70 14 29 23 58 20 63 -7 11 2 30 14 30 4 0 16 -12 27 -27z
m-3695 -34 c4 -13 8 -98 8 -189 1 -92 8 -205 16 -255 10 -61 15 -164 15 -318
0 -202 -2 -228 -16 -234 -21 -8 -48 9 -53 33 -5 28 -77 109 -136 153 -58 44
-115 71 -150 71 -12 0 -39 7 -58 15 -20 8 -59 15 -86 15 -28 0 -53 5 -57 12
-4 6 -7 40 -6 75 0 53 6 72 31 112 17 26 31 53 31 61 0 7 11 26 25 44 192 236
239 287 333 359 29 22 58 49 63 59 13 24 31 18 40 -13z m3590 -390 c31 -46 96
-145 145 -220 232 -356 227 -346 200 -397 -29 -56 -59 -73 -153 -87 -87 -14
-148 -25 -251 -47 -66 -14 -74 -7 -61 52 16 66 5 145 -26 192 -27 41 -106 98
-136 98 -9 0 -27 8 -39 18 l-23 19 30 44 c37 53 58 91 148 264 74 144 83 157
99 152 6 -2 36 -41 67 -88z m-3017 -36 c13 -21 39 -64 57 -95 72 -120 174
-285 210 -339 41 -61 69 -122 69 -151 0 -10 19 -44 42 -74 37 -49 40 -58 29
-76 -11 -17 -10 -22 1 -29 7 -5 18 -9 24 -9 7 0 20 -12 29 -27 10 -15 40 -48
66 -73 49 -46 119 -163 119 -197 0 -10 -5 -24 -12 -31 -15 -15 -12 -341 3
-381 6 -14 20 -36 31 -49 20 -21 22 -36 26 -215 5 -228 3 -236 -69 -185 -241
172 -518 609 -590 931 -7 32 -16 60 -21 63 -4 3 -8 23 -8 44 0 22 -7 61 -16
87 -9 26 -21 97 -26 158 -11 126 -22 650 -14 671 9 23 24 16 50 -23z m3816
-348 c317 -22 500 -54 705 -126 17 -6 59 -19 93 -29 82 -23 90 -31 67 -67 -10
-15 -29 -57 -42 -93 l-23 -65 -41 2 c-23 1 -47 7 -53 13 -5 5 -17 10 -26 10
-8 0 -32 9 -53 20 -20 11 -45 20 -54 20 -10 0 -35 6 -58 14 -22 8 -83 23 -135
35 -52 11 -136 30 -185 41 -50 11 -107 20 -126 20 -19 0 -59 6 -89 14 -30 7
-108 16 -173 19 -138 6 -152 13 -143 70 8 51 33 87 71 103 37 16 20 16 265 -1z
m-4705 -136 c91 -34 149 -119 80 -119 -26 0 -184 -39 -243 -61 -160 -57 -324
-190 -421 -341 -24 -38 -48 -68 -53 -68 -5 0 -20 12 -33 26 -100 108 -27 319
158 458 88 65 113 78 202 104 120 36 217 36 310 1z m3609 -15 c27 -10 57 -72
59 -118 3 -67 -5 -71 -115 -57 -67 8 -111 9 -158 1 -36 -6 -128 -17 -205 -25
-77 -8 -151 -17 -165 -20 -14 -2 -65 -11 -115 -19 -155 -26 -297 -57 -389 -86
-38 -12 -41 -9 -56 47 -7 27 -22 66 -33 87 l-19 40 22 18 c12 10 30 18 40 18
10 0 52 11 94 25 42 14 85 25 96 25 11 0 39 7 62 14 40 14 123 27 278 46 79 9
582 12 604 4z m2184 -131 c11 -10 25 -33 31 -51 9 -29 7 -41 -18 -90 -16 -31
-52 -82 -81 -112 -28 -30 -115 -134 -192 -230 -146 -183 -177 -212 -218 -208
-38 4 -35 30 10 80 22 25 40 49 40 53 0 5 9 17 21 29 11 12 62 77 113 146 96
129 116 174 116 266 0 50 78 134 125 134 18 0 42 -8 53 -17z m-1148 -24 c24
-5 87 -14 140 -19 115 -11 152 -19 530 -123 100 -28 150 -52 150 -72 0 -8 -13
-30 -30 -48 -16 -19 -30 -38 -30 -43 0 -4 -17 -28 -38 -53 -20 -25 -60 -77
-87 -114 -28 -37 -80 -105 -116 -150 -61 -76 -71 -83 -120 -96 -30 -7 -79 -17
-109 -21 -30 -4 -75 -12 -100 -18 -169 -42 -272 -53 -285 -32 -3 5 1 20 9 32
20 28 20 68 3 93 -20 26 -37 10 -30 -29 5 -34 -10 -76 -28 -76 -5 0 -27 -11
-49 -25 -30 -19 -53 -25 -94 -25 -35 0 -58 -5 -66 -15 -7 -8 -18 -15 -25 -15
-7 0 -18 -6 -24 -14 -15 -18 -61 -27 -83 -15 -10 5 -27 31 -38 57 -11 26 -25
54 -31 62 -5 8 -17 31 -25 50 -9 19 -22 42 -29 50 -6 8 -20 39 -31 68 -14 41
-16 57 -7 70 11 17 94 150 176 282 22 36 55 88 74 117 18 28 33 54 33 58 0 3
12 22 26 41 l26 34 132 0 c72 0 151 -5 176 -11z m-2324 -81 c42 -45 64 -111
64 -192 0 -66 2 -70 50 -137 28 -38 50 -71 50 -74 0 -3 28 -45 63 -93 35 -48
89 -126 121 -174 32 -49 62 -90 67 -94 16 -9 10 -34 -8 -34 -34 1 -94 48 -138
109 -25 33 -45 64 -45 68 0 4 -9 16 -19 27 -18 20 -97 134 -256 368 -36 54
-73 117 -82 141 -16 43 -16 45 6 81 19 31 28 36 60 36 29 0 44 -7 67 -32z
m-2041 11 c103 -12 215 -54 287 -106 107 -77 208 -217 242 -333 26 -86 31
-213 13 -291 -25 -104 -79 -179 -105 -146 -11 13 -42 133 -42 161 0 10 -9 31
-21 47 -24 34 -63 39 -79 10 -10 -19 -4 -72 11 -102 5 -9 9 -54 10 -100 2
-136 -47 -225 -158 -282 -36 -19 -108 -23 -119 -6 -4 6 -8 49 -10 95 -3 68 -8
90 -26 114 -14 20 -30 30 -43 28 -18 -3 -20 -12 -26 -108 -3 -58 -11 -116 -18
-130 -56 -107 -167 -119 -246 -28 -20 24 -38 54 -42 68 -15 67 -63 93 -85 46
-8 -18 -8 -37 1 -71 14 -56 4 -75 -40 -75 -95 0 -224 102 -279 221 -55 119
-70 190 -70 324 1 106 4 130 30 203 51 148 127 248 249 332 110 74 222 115
357 129 113 12 110 12 209 0z m3368 -78 c19 -7 58 -79 186 -336 89 -180 173
-345 187 -367 14 -22 23 -46 20 -53 -2 -7 -28 -18 -58 -24 -157 -34 -152 -33
-183 -17 -38 20 -64 20 -87 0 -17 -16 -43 -19 -98 -12 -19 2 -24 -1 -22 -14 2
-15 -5 -18 -46 -18 -31 0 -52 -5 -55 -12 -6 -16 -128 -53 -224 -68 -69 -11
-73 -11 -140 18 -37 16 -84 35 -103 42 -19 8 -43 19 -52 25 -19 13 -129 162
-198 269 -8 13 -33 50 -56 82 -245 355 -240 343 -151 356 25 3 51 9 56 12 21
13 315 75 461 96 167 25 518 38 563 21z m414 -36 c3 -9 -2 -24 -11 -34 -9 -10
-16 -21 -16 -26 0 -4 -15 -26 -33 -49 -19 -23 -39 -51 -46 -63 -6 -13 -18 -23
-27 -23 -18 0 -88 145 -80 166 3 8 18 14 33 14 15 0 39 7 53 14 36 20 119 20
127 1z m1770 -280 c144 -47 163 -64 87 -77 -21 -3 -66 -11 -99 -16 -33 -6 -80
-15 -105 -20 -58 -14 -120 -22 -120 -16 0 27 117 154 142 154 9 0 52 -11 95
-25z m-3606 -11 c19 -11 159 -218 152 -225 -9 -9 -133 43 -175 74 -15 11 -32
32 -38 46 -13 32 -31 64 -49 84 -22 28 -3 39 53 32 28 -4 54 -9 57 -11z m-555
-151 c28 -45 86 -136 107 -166 25 -37 12 -51 -34 -35 -57 20 -99 49 -103 72
-9 45 -15 144 -9 150 12 12 23 6 39 -21z m4572 -102 c2 -53 -2 -98 -7 -105 -6
-7 -46 -20 -88 -30 -43 -9 -98 -22 -123 -28 -106 -24 -210 -46 -280 -57 -41
-7 -95 -17 -120 -23 -25 -5 -79 -16 -120 -24 -135 -25 -214 -41 -255 -52 -40
-11 -240 -49 -410 -78 -49 -9 -113 -22 -141 -30 -28 -8 -62 -14 -77 -14 -14 0
-38 -5 -54 -11 -25 -10 -77 -21 -268 -59 -27 -5 -104 -19 -170 -30 -66 -12
-138 -26 -159 -32 -21 -5 -60 -13 -85 -18 -25 -4 -111 -23 -191 -40 -80 -18
-170 -36 -200 -40 -30 -4 -73 -12 -95 -18 -22 -6 -67 -12 -100 -14 l-60 -3 -3
107 -3 107 38 17 c21 9 65 20 98 24 33 4 85 13 115 18 148 29 227 42 251 42
15 0 40 7 55 15 16 8 39 15 50 15 31 0 166 29 186 41 10 5 35 9 56 9 21 0 61
7 88 15 27 8 65 15 85 15 20 0 58 7 85 15 27 8 60 15 73 15 14 0 52 6 85 14
34 8 97 22 141 31 44 9 94 21 110 26 17 6 59 14 95 20 208 30 416 69 615 115
39 9 95 20 125 24 30 4 68 13 83 19 16 6 47 11 70 11 23 0 60 5 82 10 22 6 78
17 125 26 115 21 168 32 210 43 19 5 46 9 60 8 25 -2 25 -4 28 -96z m-3923
-99 c50 -24 99 -47 110 -51 11 -5 63 -29 115 -54 52 -25 115 -54 140 -65 72
-32 279 -130 350 -165 l65 -32 3 -112 c2 -103 1 -113 -15 -113 -17 0 -190 70
-223 90 -27 17 -104 52 -169 76 -35 14 -105 45 -155 69 -50 24 -125 57 -166
73 -80 31 -100 52 -100 108 0 41 -27 132 -52 171 -17 29 -17 60 0 51 4 -2 48
-23 97 -46z m-225 -29 c11 -14 25 -46 32 -70 6 -24 14 -46 19 -49 15 -9 10
-66 -8 -86 -23 -26 -45 -22 -80 15 -41 43 -53 69 -53 114 0 42 32 103 54 103
8 0 24 -12 36 -27z m-1092 -40 c42 -61 50 -113 19 -113 -16 0 -71 115 -63 129
11 18 23 13 44 -16z m820 -114 c34 -16 66 -29 72 -29 5 0 25 -24 44 -53 22
-36 52 -65 87 -87 52 -32 55 -33 138 -27 83 6 88 5 161 -29 141 -67 156 -74
163 -74 4 0 47 -18 95 -41 48 -23 141 -65 207 -94 139 -61 249 -111 285 -128
l25 -13 3 -306 c2 -257 0 -307 -12 -317 -12 -10 -32 -4 -103 32 -48 25 -182
91 -298 147 -280 136 -286 139 -315 156 -14 8 -115 57 -225 110 -110 52 -227
109 -260 126 -33 18 -81 42 -106 54 -26 14 -51 35 -59 51 -10 20 -15 98 -18
280 -2 139 -2 260 2 268 7 19 24 15 114 -26z m4328 -14 c3 -8 1 -29 -5 -47 -7
-18 -14 -69 -17 -113 -3 -44 -12 -112 -20 -152 -8 -40 -14 -93 -14 -119 0 -26
-4 -63 -10 -83 -5 -20 -12 -49 -15 -64 -8 -39 -24 -45 -225 -80 -47 -9 -105
-20 -130 -26 -103 -23 -148 -33 -197 -41 -29 -4 -67 -13 -85 -18 -18 -5 -91
-22 -163 -37 -71 -14 -159 -33 -195 -40 -36 -8 -87 -17 -115 -21 -27 -4 -58
-11 -69 -16 -10 -6 -42 -14 -70 -19 -28 -4 -82 -15 -121 -24 -38 -9 -92 -20
-120 -25 -27 -4 -63 -13 -78 -19 -16 -6 -45 -11 -65 -11 -36 0 -178 -27 -257
-48 -22 -6 -103 -25 -180 -42 -77 -17 -158 -35 -180 -40 -22 -5 -96 -19 -165
-31 -69 -11 -144 -28 -168 -35 -23 -8 -54 -14 -68 -14 -14 0 -33 -4 -43 -9 -9
-5 -45 -13 -79 -17 l-62 -7 0 297 c0 176 4 305 10 316 10 19 78 42 175 58 60
10 171 33 255 52 93 21 198 42 277 55 46 8 87 16 93 20 5 3 37 10 72 15 71 10
166 30 278 55 41 10 100 21 130 25 30 4 75 13 100 19 61 14 194 38 255 47 28
3 55 10 60 14 6 4 28 10 50 12 39 5 108 20 170 39 17 4 59 13 95 19 36 6 101
17 145 24 44 8 112 20 150 26 39 7 79 16 90 21 11 4 47 12 80 18 33 6 80 16
105 21 25 6 79 17 120 25 41 8 93 18 115 23 60 15 85 14 91 -3z m-4650 -416
c43 -22 82 -45 85 -52 4 -7 9 -36 13 -66 12 -90 24 -104 138 -159 206 -99 465
-225 541 -263 43 -21 83 -39 90 -39 67 0 364 -416 472 -660 15 -36 45 -102 67
-147 21 -45 38 -93 38 -108 0 -14 -12 -49 -27 -78 -26 -49 -28 -59 -27 -177 0
-123 1 -126 34 -184 34 -60 114 -146 135 -146 29 0 48 -41 55 -119 5 -43 17
-102 26 -130 24 -67 14 -80 -53 -63 -157 38 -266 62 -325 72 -37 5 -79 15 -93
20 -15 6 -40 10 -57 10 -16 0 -60 6 -97 14 -36 8 -93 19 -126 26 -33 6 -96 18
-140 26 -116 22 -160 29 -360 58 -320 46 -389 56 -430 60 -22 2 -69 9 -105 14
-36 6 -103 16 -150 21 -47 6 -121 15 -165 21 -44 5 -143 15 -220 20 -77 5
-180 14 -230 19 -49 5 -150 11 -223 13 -94 2 -137 6 -144 16 -8 9 -6 30 8 75
14 46 19 90 18 172 -1 101 -4 116 -33 179 -62 137 -158 232 -309 307 -122 61
-130 80 -40 91 32 4 74 16 96 27 42 21 107 88 145 149 25 39 27 40 109 52 222
32 431 106 608 215 77 48 220 176 291 262 33 40 84 112 114 160 30 49 65 106
78 128 14 22 37 69 52 105 22 53 50 100 60 100 1 0 38 -18 81 -41z m-2197 -59
c92 -17 231 -90 231 -121 0 -3 -27 -34 -59 -69 -53 -57 -80 -99 -125 -200 -40
-91 -40 -315 0 -420 39 -100 116 -191 206 -243 21 -12 36 -26 35 -32 -2 -6
-62 -12 -138 -16 -112 -4 -147 -10 -214 -33 -132 -46 -178 -83 -155 -126 13
-24 43 -25 107 -4 107 37 161 45 278 45 213 0 393 -68 521 -196 96 -96 118
-151 112 -285 -5 -127 -35 -183 -138 -261 -65 -49 -126 -76 -223 -99 -112 -27
-323 -27 -462 -1 -319 61 -528 196 -631 406 -57 116 -73 174 -86 315 -12 123
2 442 21 477 5 10 19 61 31 113 20 88 30 124 50 175 43 114 61 153 106 238
146 272 314 379 533 337z m606 -194 c90 -42 109 -87 43 -101 -43 -10 -106 -47
-142 -84 -65 -68 -98 -256 -59 -338 24 -51 97 -119 150 -139 49 -19 55 -39 21
-71 -109 -100 -332 -48 -425 100 -107 170 -78 404 71 559 89 94 233 125 341
74z m4847 -611 c109 -23 229 -116 297 -229 52 -86 50 -90 -44 -98 -86 -7 -148
-24 -213 -57 -23 -12 -46 -21 -52 -21 -6 0 -37 -19 -68 -42 -120 -88 -206
-165 -313 -282 -62 -66 -153 -166 -204 -221 -51 -55 -112 -122 -136 -149 -65
-72 -336 -312 -399 -353 -30 -20 -73 -51 -95 -69 -59 -47 -122 -76 -158 -72
-25 2 -39 13 -63 50 -71 106 -101 276 -70 396 20 78 20 106 1 122 -20 16 -51
4 -75 -31 -12 -16 -30 -29 -40 -29 -44 0 -120 137 -120 215 0 78 69 221 147
305 121 131 244 190 395 190 82 0 89 -2 130 -33 24 -18 44 -43 46 -55 2 -13
-19 -66 -48 -123 -59 -115 -64 -162 -19 -167 28 -3 33 2 182 209 169 236 310
383 441 462 163 99 298 122 478 82z m290 -457 c57 -17 78 -49 78 -119 0 -85
-17 -154 -61 -244 -52 -108 -71 -136 -150 -231 -87 -102 -212 -222 -314 -299
-95 -72 -279 -184 -367 -224 -35 -16 -89 -40 -120 -55 -31 -14 -63 -26 -71
-26 -8 0 -20 -7 -27 -15 -7 -8 -23 -15 -35 -15 -12 0 -40 -6 -62 -14 -71 -25
-241 -39 -328 -27 -121 17 -121 28 -6 109 37 25 86 62 111 82 25 20 56 43 70
52 48 30 247 214 351 323 57 61 179 191 271 290 261 281 379 371 543 411 65
16 71 16 117 2z"/>
<path d="M5938 15580 c-72 -21 -127 -79 -149 -154 -11 -37 5 -66 35 -66 14 0
53 9 88 20 124 39 264 14 373 -66 95 -70 111 -77 135 -64 54 29 33 117 -48
198 -68 69 -129 106 -208 127 -62 16 -181 19 -226 5z"/>
<path d="M4517 15445 c-33 -13 -73 -35 -91 -49 -90 -68 -147 -223 -108 -290
31 -54 62 -47 134 29 71 75 125 108 198 124 63 14 161 14 219 0 62 -14 91 6
91 63 0 34 -6 46 -36 74 -19 19 -47 37 -62 40 -15 4 -36 13 -47 20 -14 10 -52
14 -130 13 -91 -1 -120 -5 -168 -24z"/>
<path d="M5959 15132 c-67 -23 -112 -53 -165 -112 -67 -75 -87 -114 -125 -255
-9 -33 -14 -105 -14 -215 1 -148 4 -177 29 -274 27 -105 50 -163 88 -218 29
-42 23 -63 -24 -88 -86 -44 -115 -98 -65 -121 26 -12 107 9 137 35 55 47 205
61 276 27 21 -11 55 -36 74 -55 30 -32 35 -43 38 -101 5 -75 -12 -110 -84
-174 -64 -56 -143 -80 -284 -88 -122 -6 -160 -19 -160 -53 0 -11 11 -27 25
-36 21 -14 47 -16 162 -12 157 5 196 17 303 90 101 69 140 130 157 246 5 35
17 54 72 110 48 49 78 91 108 152 66 135 78 198 77 390 -1 146 -4 177 -28 265
-40 150 -116 295 -197 377 -88 87 -150 117 -261 124 -64 3 -96 0 -139 -14z
m246 -123 c99 -49 201 -198 240 -350 29 -112 42 -285 30 -401 -6 -57 -16 -113
-23 -125 -7 -12 -12 -31 -12 -43 0 -25 -41 -99 -85 -152 -40 -50 -65 -49 -129
6 -28 23 -65 50 -83 59 -43 23 -47 33 -25 65 29 42 47 119 46 207 0 157 -45
282 -126 353 -63 54 -96 60 -156 30 -40 -19 -52 -33 -79 -88 -20 -39 -33 -79
-33 -102 0 -63 -18 -43 -26 28 -21 203 68 442 190 507 63 34 76 36 152 33 50
-2 84 -10 119 -27z"/>
<path d="M4780 15040 c-114 -30 -168 -66 -237 -160 -94 -130 -133 -270 -133
-478 1 -289 82 -503 257 -674 55 -54 163 -118 199 -118 9 0 33 -5 54 -11 29
-9 53 -8 113 5 163 33 264 137 333 341 26 76 27 89 27 280 0 172 -3 211 -22
278 -29 108 -95 270 -128 315 -107 144 -169 192 -288 222 -92 23 -90 23 -175
0z m205 -124 c202 -90 347 -474 306 -812 -17 -144 -51 -229 -119 -305 -69 -76
-115 -98 -202 -99 -68 0 -150 24 -150 45 0 7 17 15 38 18 105 17 172 185 159
396 -9 141 -44 242 -115 330 -47 57 -87 81 -140 81 -103 0 -169 -77 -191 -222
-17 -114 -20 -128 -30 -128 -22 0 -30 270 -10 345 6 22 14 58 18 80 13 74 67
166 128 220 97 85 194 101 308 51z"/>
<path d="M3562 14968 c-17 -17 -15 -48 3 -48 17 0 39 36 30 50 -8 13 -18 13
-33 -2z"/>
<path d="M3935 14920 c-3 -6 12 -32 34 -58 23 -27 41 -58 41 -70 0 -12 5 -22
10 -22 15 0 12 41 -5 70 -8 14 -22 40 -31 58 -18 32 -37 41 -49 22z"/>
<path d="M3502 14868 c-7 -7 -12 -21 -12 -32 0 -20 1 -20 22 2 15 15 19 25 12
32 -7 7 -14 6 -22 -2z"/>
<path d="M3968 14486 c-6 -15 -8 -29 -5 -32 9 -9 37 15 37 32 0 25 -20 25 -32
0z"/>
<path d="M3873 14424 c-3 -8 1 -23 10 -32 15 -14 17 -14 23 1 8 21 -1 47 -16
47 -6 0 -13 -7 -17 -16z"/>
<path d="M4402 13649 c-32 -13 -77 -43 -113 -76 -54 -51 -60 -59 -57 -92 2
-29 8 -37 26 -39 13 -2 31 3 40 11 9 9 29 18 43 22 l26 6 -5 -123 c-5 -137 14
-302 49 -416 36 -117 121 -262 209 -356 43 -46 159 -136 175 -136 5 0 16 -6
24 -13 9 -7 54 -26 101 -43 79 -27 95 -29 225 -28 129 0 146 2 215 29 168 63
254 127 372 274 71 89 109 161 139 267 12 43 29 87 38 97 10 10 45 22 81 28
111 19 161 60 124 100 -21 24 -109 26 -169 4 -58 -21 -482 -21 -551 0 -27 8
-62 15 -78 15 -16 0 -52 7 -80 15 -28 8 -94 26 -146 40 -119 33 -239 84 -357
152 -51 29 -94 53 -97 53 -9 0 -121 87 -136 105 -11 13 -10 19 9 38 37 41 22
88 -28 86 -15 0 -50 -9 -79 -20z m352 -708 c13 -15 26 -18 52 -14 61 10 195
-55 296 -144 68 -60 81 -76 110 -133 7 -14 23 -42 36 -63 13 -22 21 -44 19
-50 -2 -7 -25 -18 -50 -25 -77 -23 -241 -2 -297 38 -16 11 -43 23 -62 26 -24
5 -56 30 -120 96 -49 48 -88 94 -88 101 0 7 -16 37 -35 67 -19 30 -35 61 -35
68 0 7 15 21 33 32 43 27 118 27 141 1z"/>
<path d="M6163 12560 c-58 -33 -68 -59 -31 -84 25 -18 48 -6 48 24 0 33 99 67
115 39 4 -5 -1 -19 -10 -29 -10 -11 -15 -26 -11 -35 5 -14 11 -13 39 11 17 15
32 31 31 35 -1 5 -2 13 -2 18 -3 16 -72 51 -100 51 -15 0 -51 -14 -79 -30z"/>
<path d="M6206 12455 c-4 -24 -11 -47 -17 -50 -12 -8 -12 -55 0 -55 5 0 11 7
15 15 4 11 13 14 31 9 20 -5 25 -2 25 12 0 11 -7 28 -15 38 -8 11 -15 32 -15
48 0 44 -17 33 -24 -17z"/>
<path d="M6325 12431 c-3 -16 -13 -35 -21 -42 -15 -12 -20 -59 -6 -59 14 0 52
76 52 104 0 35 -17 33 -25 -3z"/>
<path d="M6040 12413 c-14 -18 -17 -30 -10 -37 16 -16 44 6 48 38 4 33 -11 33
-38 -1z"/>
<path d="M5967 12303 c-4 -3 -7 -23 -7 -44 l0 -37 45 3 c30 2 57 12 80 29 35
27 46 56 22 56 -24 0 -94 -39 -101 -55 -10 -27 -28 -5 -21 26 6 27 -3 38 -18
22z"/>
<path d="M6205 12250 c-4 -6 -16 -8 -27 -4 -14 4 -29 -3 -53 -26 -18 -18 -48
-35 -67 -39 -46 -10 -44 -35 4 -39 58 -5 187 83 161 109 -8 8 -13 7 -18 -1z"/>
<path d="M4520 12151 c0 -5 14 -11 32 -15 17 -3 46 -17 64 -31 34 -26 59 -32
68 -16 13 20 -82 71 -133 71 -17 0 -31 -4 -31 -9z"/>
<path d="M4550 12087 c0 -23 11 -47 22 -47 14 0 5 53 -9 58 -7 2 -13 -3 -13
-11z"/>
<path d="M4702 12063 c2 -12 12 -18 28 -18 36 0 33 29 -3 33 -23 3 -28 0 -25
-15z"/>
<path d="M4810 11864 c0 -32 4 -44 13 -42 15 6 21 32 13 64 -10 40 -26 27 -26
-22z"/>
<path d="M4754 11766 c-6 -17 2 -36 17 -36 12 0 12 37 -1 45 -6 3 -13 -1 -16
-9z"/>
<path d="M1493 14145 c-3 -9 -3 -18 0 -21 9 -9 48 16 42 27 -9 14 -35 11 -42
-6z"/>
<path d="M3996 12311 c-8 -13 3 -38 20 -45 9 -3 14 1 14 13 0 22 -26 46 -34
32z"/>
<path d="M7115 12280 c-4 -7 -3 -16 2 -21 12 -12 45 0 40 15 -5 15 -34 19 -42
6z"/>
<path d="M7385 11530 c-7 -11 0 -14 55 -28 22 -5 41 -18 50 -35 18 -32 7 -46
-19 -23 -10 9 -35 20 -56 23 -25 4 -39 12 -43 25 -2 10 -8 18 -13 18 -16 0
-53 -24 -91 -60 -36 -32 -38 -37 -38 -96 0 -57 2 -64 31 -88 26 -22 40 -26 98
-26 53 0 74 4 94 20 14 11 30 20 35 20 6 0 27 19 47 43 35 40 37 44 31 97 -7
60 -24 85 -75 106 -39 16 -97 19 -106 4z m-19 -86 c30 -32 30 -38 0 -30 -14 3
-28 1 -31 -4 -9 -14 -25 -2 -25 19 0 15 18 41 28 41 3 0 15 -11 28 -26z m-72
-53 c3 -4 -1 -17 -9 -27 -10 -15 -16 -16 -26 -7 -6 6 -9 19 -6 27 7 17 32 22
41 7z m213 -12 c9 -9 6 -20 -10 -43 -12 -17 -23 -32 -23 -34 -1 -2 -14 -5 -29
-8 -15 -3 -40 -11 -55 -19 -26 -13 -33 -13 -75 6 -65 29 -54 44 36 44 71 1 74
2 74 25 0 17 8 26 25 31 37 10 45 10 57 -2z"/>
<path d="M7940 11423 c1 -10 66 -43 85 -43 8 0 15 5 15 10 0 6 -6 10 -14 10
-7 0 -19 7 -26 15 -13 15 -60 21 -60 8z"/>
<path d="M8057 11373 c-6 -5 37 -53 49 -53 11 0 2 29 -14 43 -20 19 -26 20
-35 10z"/>
<path d="M7812 11328 c-7 -7 -12 -17 -12 -23 0 -6 -11 -22 -25 -35 -21 -19
-25 -33 -25 -78 0 -64 22 -69 31 -6 6 43 20 74 43 94 17 13 21 46 8 54 -5 3
-14 0 -20 -6z"/>
<path d="M8080 11290 c-11 -7 -11 -11 -1 -24 18 -22 31 -20 31 3 0 24 -12 32
-30 21z"/>
<path d="M7800 11155 c-26 -31 6 -66 46 -51 13 5 13 9 -1 36 -17 33 -27 37
-45 15z"/>
<path d="M7895 11120 c-8 -13 20 -24 41 -16 20 8 9 26 -16 26 -10 0 -22 -5
-25 -10z"/>
<path d="M7226 11031 c-16 -18 -16 -20 10 -40 15 -11 30 -21 35 -21 11 0 78
44 79 51 0 10 -50 29 -79 29 -15 0 -36 -8 -45 -19z"/>
<path d="M7084 10983 c-3 -10 -13 -32 -21 -49 -10 -19 -13 -41 -9 -57 7 -29
49 -62 66 -52 18 11 11 34 -12 37 -31 4 -35 40 -7 77 21 29 21 61 -1 61 -6 0
-13 -8 -16 -17z"/>
<path d="M7144 10956 c-4 -10 -2 -22 4 -28 8 -8 13 -7 18 6 4 10 2 22 -4 28
-8 8 -13 7 -18 -6z"/>
<path d="M7263 10943 c-8 -3 -11 -14 -7 -28 5 -19 0 -25 -28 -36 l-33 -13 38
-4 c23 -2 48 3 61 12 13 8 41 16 62 18 50 4 56 33 7 33 -18 1 -38 6 -45 13
-12 12 -33 14 -55 5z"/>
<path d="M6300 11361 c0 -16 17 -21 49 -15 44 9 38 24 -9 24 -22 0 -40 -4 -40
-9z"/>
<path d="M6242 11319 c-32 -12 -21 -25 28 -33 28 -4 55 -19 86 -48 40 -36 45
-46 42 -77 -3 -35 -2 -36 32 -36 27 0 37 -5 45 -22 13 -30 40 -29 70 3 35 38
31 60 -15 89 -42 27 -48 43 -28 75 10 16 10 23 -4 36 -21 21 -45 12 -58 -21
-12 -32 -30 -32 -60 0 -13 14 -40 29 -59 35 -42 12 -49 12 -79 -1z m294 -170
c9 -16 -12 -33 -31 -25 -14 5 -15 9 -5 21 15 18 26 19 36 4z"/>
<path d="M5724 11272 c-59 -53 -69 -75 -50 -114 9 -17 13 -35 10 -40 -6 -10
14 -38 27 -38 5 0 9 9 9 19 0 11 5 23 10 26 15 9 12 25 -5 25 -10 0 -15 10
-15 29 0 36 13 46 40 31 22 -12 60 -5 60 10 0 6 -11 12 -25 16 -28 7 -32 25
-10 44 14 12 12 31 -3 30 -4 -1 -26 -18 -48 -38z"/>
<path d="M5852 11253 c3 -25 7 -28 42 -28 49 0 57 19 17 39 -46 24 -63 21 -59
-11z"/>
<path d="M6225 11209 c-8 -12 3 -29 19 -29 8 0 21 -11 30 -25 20 -31 62 -59
75 -51 6 4 1 23 -12 48 -18 34 -30 45 -64 54 -26 8 -45 9 -48 3z"/>
<path d="M5972 11188 c-7 -7 -42 -12 -84 -12 -73 -1 -111 -18 -51 -24 36 -4
58 -24 49 -47 -7 -18 -54 -20 -91 -3 -33 15 -37 9 -29 -41 5 -32 13 -45 35
-56 37 -20 37 -20 35 18 -1 29 1 32 29 32 17 -1 41 -5 53 -9 23 -8 24 -7 20
46 -3 49 -1 53 21 56 26 4 55 -17 34 -25 -15 -6 -17 -43 -3 -43 6 0 10 9 10
20 0 15 7 20 25 20 33 0 32 10 -8 48 -25 25 -36 29 -45 20z"/>
<path d="M6387 11094 c-12 -13 4 -24 34 -24 20 0 29 4 27 13 -5 13 -50 22 -61
11z"/>
<path d="M6032 11068 c2 -13 8 -23 13 -23 6 0 11 10 13 23 2 15 -2 22 -13 22
-11 0 -15 -7 -13 -22z"/>
<path d="M5955 11020 c-9 -15 14 -40 36 -40 27 0 35 21 14 37 -22 16 -41 17
-50 3z"/>
<path d="M6436 10879 c-2 -8 -9 -29 -15 -48 -13 -40 -15 -151 -3 -151 15 0 39
33 46 63 9 39 39 35 65 -9 24 -41 58 -44 53 -5 -2 12 4 32 14 42 22 24 9 52
-25 57 -15 3 -21 -2 -21 -16 0 -24 -18 -33 -43 -20 -10 5 -27 6 -37 3 -30 -10
-25 21 8 50 30 26 29 30 -10 40 -19 5 -29 3 -32 -6z"/>
<path d="M6341 10811 c-15 -28 -14 -66 3 -80 20 -17 35 13 29 57 -6 40 -19 49
-32 23z"/>
<path d="M6260 10801 c-14 -28 -13 -46 6 -62 20 -17 34 2 34 49 0 37 -23 44
-40 13z"/>
</g>
</svg>
