<?xml version="1.0" standalone="no"?>
<!DOCTYPE svg PUBLIC "-//W3C//DTD SVG 20010904//EN"
 "http://www.w3.org/TR/2001/REC-SVG-20010904/DTD/svg10.dtd">
<svg version="1.0" xmlns="http://www.w3.org/2000/svg"
 width="1000.000000pt" height="2000.000000pt" viewBox="0 0 1000.000000 2000.000000"
 preserveAspectRatio="xMidYMid meet">
<metadata>
Created by potrace 1.16, written by Peter Selinger 2001-2019
</metadata>
<g transform="translate(0.000000,2000.000000) scale(0.100000,-0.100000)"
fill="#000000" stroke="none">
<path d="M4860 17024 c-345 -26 -621 -59 -820 -98 -41 -8 -102 -19 -135 -26
-262 -49 -386 -76 -515 -111 -63 -17 -131 -33 -150 -36 -19 -3 -39 -9 -45 -13
-5 -4 -26 -11 -45 -14 -51 -10 -129 -33 -275 -81 -71 -23 -182 -59 -245 -79
-63 -21 -124 -41 -135 -46 -11 -5 -42 -16 -68 -26 -26 -9 -50 -21 -53 -25 -3
-5 -12 -9 -20 -9 -22 0 -246 -90 -265 -106 -8 -8 -19 -14 -23 -14 -10 0 -65
-39 -116 -84 -69 -60 -129 -135 -160 -199 -15 -31 -32 -63 -37 -70 -43 -56
-58 -349 -24 -469 62 -217 174 -364 356 -467 49 -28 94 -51 100 -51 32 0 91
-25 112 -48 25 -26 92 -122 106 -152 4 -8 23 -40 42 -70 74 -121 116 -200 110
-210 -3 -5 -20 -10 -37 -10 -31 0 -153 -13 -288 -32 -90 -12 -273 -32 -430
-47 -302 -29 -351 -46 -473 -160 -72 -67 -136 -214 -137 -311 0 -19 -7 -44
-15 -54 -8 -11 -15 -35 -15 -54 0 -19 -11 -100 -24 -181 -13 -80 -32 -198 -41
-261 -9 -63 -23 -149 -30 -190 -7 -41 -16 -110 -20 -152 -4 -43 -10 -80 -15
-83 -4 -3 -11 -31 -14 -62 -4 -32 -11 -78 -17 -103 -5 -25 -16 -97 -23 -160
-18 -149 -43 -322 -61 -431 -21 -122 -20 -320 2 -379 42 -112 116 -195 224
-249 35 -17 71 -36 79 -41 18 -11 681 -337 825 -405 158 -75 169 -92 144 -218
-9 -46 -8 -76 5 -164 34 -211 83 -328 179 -425 125 -128 249 -167 413 -133 21
5 42 1 62 -9 46 -24 181 -22 231 3 20 11 43 27 51 36 10 13 26 14 84 10 82 -7
156 13 230 64 50 35 110 104 121 140 4 15 23 30 53 43 26 12 58 29 71 39 34
27 57 23 85 -14 43 -57 38 -77 -77 -302 -11 -22 -68 -87 -126 -145 -79 -79
-124 -115 -176 -142 -101 -52 -221 -91 -284 -92 l-54 -1 -35 59 c-44 75 -96
126 -158 157 -42 20 -67 24 -170 27 l-121 4 -52 39 c-77 58 -117 81 -211 119
-79 31 -93 34 -200 34 -129 1 -183 -13 -281 -70 -219 -129 -433 -517 -494
-899 -4 -22 -11 -45 -16 -51 -30 -37 -35 -557 -5 -629 8 -17 19 -55 25 -84 30
-141 159 -334 269 -403 57 -35 32 -50 -118 -67 -41 -4 -92 -15 -113 -24 -31
-13 -37 -21 -37 -46 0 -26 6 -33 47 -51 89 -39 224 -61 593 -95 250 -23 361
-34 520 -51 160 -17 329 -34 580 -58 91 -9 199 -20 240 -26 41 -5 122 -14 180
-20 58 -6 128 -15 155 -21 28 -5 96 -14 150 -19 55 -5 116 -14 135 -19 19 -6
61 -11 92 -11 31 0 79 -4 105 -10 26 -5 118 -17 203 -25 184 -19 267 -28 455
-50 77 -10 192 -23 255 -30 63 -7 153 -18 200 -23 137 -17 303 -31 480 -42 91
-6 172 -13 180 -16 15 -5 135 -13 530 -34 107 -6 239 -15 294 -20 166 -17 484
-12 677 10 188 21 240 32 259 55 39 47 -46 80 -369 142 -52 10 -96 24 -99 31
-2 6 1 12 7 12 5 0 34 14 63 31 29 18 73 43 98 57 190 106 448 330 580 502 63
83 156 243 166 287 3 15 14 39 22 53 25 39 23 354 -2 430 -88 263 -288 438
-541 476 -71 11 -109 11 -180 2 -91 -11 -241 -61 -293 -97 -15 -10 -41 -27
-59 -37 -56 -33 -182 -154 -265 -253 -44 -53 -84 -97 -88 -99 -4 -2 -21 9 -38
23 -56 47 -140 77 -237 84 l-90 6 -42 75 c-24 41 -43 82 -43 91 0 19 64 36
235 64 55 9 118 21 140 27 22 5 65 14 96 18 31 5 68 14 83 20 15 5 40 10 56
10 16 0 32 5 35 10 3 6 21 10 38 10 18 0 48 5 67 11 41 13 155 35 260 50 41 6
82 15 91 19 9 5 34 12 55 15 22 4 75 16 119 27 44 11 106 24 138 29 33 5 63
11 67 14 9 5 132 29 240 46 36 5 74 14 85 18 11 5 63 16 115 26 52 9 102 19
110 23 8 3 44 11 80 18 151 30 239 47 305 58 39 6 75 14 80 17 6 4 30 10 55
14 81 12 234 55 251 71 21 19 35 73 49 188 6 50 14 94 16 98 3 5 9 43 14 86 5
42 14 111 20 152 5 41 15 111 21 155 9 69 15 85 42 113 l32 33 -3 197 c-4 215
-4 217 -67 250 -16 8 -118 45 -225 82 -205 70 -240 85 -240 100 0 6 15 27 33
47 88 101 115 184 87 268 -13 38 -129 165 -151 165 -10 0 -88 31 -164 65 -27
13 -157 55 -230 75 -16 4 -84 20 -150 34 -260 57 -241 55 -500 72 -119 8 -118
8 -165 79 -45 70 -48 103 -7 90 12 -4 88 -10 169 -12 161 -6 246 6 380 53 91
32 135 39 151 26 7 -6 37 -19 67 -30 190 -69 375 -5 508 176 21 29 29 32 75
32 65 0 190 39 265 81 245 138 446 416 496 686 42 227 -2 479 -117 668 -60 99
-94 144 -181 231 -115 114 -240 202 -352 246 -108 41 -154 50 -286 55 -99 4
-128 1 -190 -18 -40 -12 -85 -30 -100 -40 -14 -11 -30 -19 -35 -19 -5 0 -41
-30 -81 -66 -94 -85 -166 -191 -181 -264 -6 -30 -16 -38 -89 -75 -45 -23 -94
-53 -108 -66 -44 -41 -114 -145 -120 -180 -4 -19 -11 -40 -17 -47 -6 -7 -12
-70 -15 -140 -5 -152 17 -262 70 -357 48 -85 50 -92 32 -133 -9 -21 -23 -51
-30 -69 -8 -17 -14 -52 -14 -77 0 -63 -18 -71 -150 -70 -89 0 -115 4 -172 26
-96 38 -236 137 -351 249 l-100 96 7 59 c19 148 52 353 66 414 5 19 16 87 24
150 9 63 18 131 21 150 8 53 34 327 45 485 5 77 10 366 10 642 0 276 3 509 6
518 4 9 25 25 48 37 146 73 260 216 332 413 27 76 25 298 -4 379 -53 148 -167
287 -300 365 -92 55 -155 74 -427 126 -156 30 -181 34 -250 40 -38 3 -90 10
-115 16 -194 40 -1218 62 -1600 33z m890 -164 c272 -10 499 -25 605 -39 39 -6
124 -15 190 -22 66 -6 124 -16 130 -20 5 -5 29 -9 55 -9 25 -1 63 -7 85 -15
22 -8 53 -15 69 -15 16 0 54 -7 85 -16 135 -38 167 -49 181 -59 8 -6 28 -17
43 -25 28 -14 104 -96 143 -155 27 -40 50 -106 65 -183 13 -67 3 -140 -27
-210 -8 -18 -14 -37 -14 -42 0 -19 -74 -125 -117 -166 -24 -23 -63 -50 -87
-59 -41 -16 -48 -16 -107 0 -35 10 -84 21 -110 25 -25 5 -63 13 -85 19 -92 24
-490 75 -709 90 -415 29 -1048 1 -1345 -59 -25 -5 -76 -11 -115 -15 -92 -7
-247 -33 -310 -50 -27 -8 -66 -16 -85 -19 -19 -2 -64 -11 -100 -20 -36 -9 -87
-21 -115 -27 -27 -6 -54 -15 -59 -20 -6 -5 -28 -9 -49 -9 -21 0 -53 -6 -70
-14 -18 -7 -54 -18 -82 -24 -70 -14 -137 -32 -160 -43 -32 -14 -174 -58 -255
-79 -41 -11 -88 -26 -105 -34 -47 -23 -94 -41 -185 -74 -295 -106 -307 -109
-302 -77 19 120 22 168 16 280 -5 109 -11 141 -34 200 -51 127 -93 197 -165
270 -68 69 -89 85 -163 119 -44 20 -37 37 24 60 27 10 58 22 69 27 11 4 63 22
115 39 52 18 109 38 127 46 17 8 39 14 50 14 10 0 27 7 37 15 11 8 32 15 46
15 15 0 30 3 34 7 7 7 34 15 268 76 75 19 145 40 156 46 12 6 31 11 44 11 13
0 36 7 52 15 15 8 40 15 55 15 15 0 50 6 77 14 27 7 94 21 149 31 55 9 110 21
122 25 12 5 49 12 84 16 34 4 74 13 88 20 14 8 51 14 81 14 30 0 71 5 90 10
81 22 627 69 935 79 336 11 314 11 585 1z m-3374 -754 c71 -35 174 -117 174
-139 0 -5 13 -27 29 -50 29 -40 45 -86 70 -190 13 -56 15 -193 2 -201 -4 -3
-11 -32 -14 -64 -4 -32 -13 -72 -22 -88 -8 -16 -15 -36 -15 -45 0 -9 -6 -22
-14 -28 -20 -17 -29 -77 -15 -103 7 -13 36 -52 66 -88 29 -35 53 -69 53 -75 0
-7 11 -22 25 -35 13 -13 44 -54 67 -92 24 -38 55 -88 70 -111 15 -23 37 -61
49 -85 12 -23 25 -45 30 -47 4 -3 20 -31 35 -63 14 -31 36 -70 48 -87 20 -28
37 -63 69 -138 36 -82 59 -133 68 -147 5 -8 16 -31 24 -50 9 -19 20 -43 25
-52 6 -10 10 -23 10 -30 0 -7 7 -26 15 -41 8 -15 19 -42 24 -60 13 -43 56
-159 69 -183 9 -18 16 -41 57 -179 10 -33 29 -92 42 -132 12 -39 23 -80 23
-90 0 -10 6 -27 14 -38 7 -11 16 -44 19 -74 4 -30 11 -59 17 -65 5 -5 10 -31
10 -58 0 -26 6 -67 14 -90 8 -24 19 -77 25 -118 23 -170 33 -225 42 -235 5 -5
9 -207 9 -466 0 -380 3 -464 15 -499 17 -49 20 -176 5 -185 -6 -4 -10 -14 -9
-23 3 -32 -1 -35 -21 -17 -11 10 -20 29 -20 43 0 22 -3 24 -33 18 -28 -5 -38
-1 -68 26 l-35 33 -3 170 c-1 94 -6 213 -11 265 -5 52 -10 166 -10 252 0 86
-4 167 -10 180 -5 13 -14 73 -20 133 -6 61 -13 129 -16 152 -5 34 -1 48 20 79
25 37 26 45 26 171 0 72 -4 134 -9 137 -5 3 -12 18 -15 32 -4 15 -29 60 -57
101 -39 57 -57 75 -80 80 -23 4 -34 15 -49 51 -11 24 -20 57 -20 73 0 16 -6
43 -14 61 -8 18 -29 78 -46 133 -18 55 -43 123 -55 150 -12 28 -30 75 -40 105
-9 30 -30 82 -46 116 -16 34 -29 64 -29 68 0 4 -14 37 -31 74 -17 37 -38 83
-46 102 -22 50 -41 87 -81 155 -19 33 -49 87 -65 120 -29 57 -62 111 -202 325
-34 52 -72 113 -83 135 -25 50 -49 65 -115 72 -75 7 -154 42 -215 95 -18 15
-37 28 -42 28 -12 0 -95 126 -128 195 -37 74 -72 265 -54 287 5 7 13 33 17 58
11 66 79 200 124 244 99 97 216 111 357 42z m3879 -326 c44 -5 132 -14 195
-19 63 -6 124 -16 135 -21 11 -6 54 -14 95 -19 133 -16 283 -52 309 -75 l23
-21 -5 -470 c-8 -732 -30 -1091 -87 -1415 -7 -36 -16 -95 -20 -132 -5 -38 -11
-72 -15 -78 -3 -5 -12 -47 -20 -92 -38 -213 -64 -327 -110 -463 -12 -38 -33
-104 -45 -145 -27 -92 -61 -179 -119 -312 -12 -26 -21 -49 -21 -52 0 -8 -101
-209 -140 -281 -18 -33 -41 -76 -51 -95 -10 -19 -35 -57 -56 -85 l-39 -50
-184 -11 c-241 -15 -407 -34 -449 -51 -18 -7 -51 -13 -72 -13 -21 0 -53 -6
-71 -14 -18 -8 -60 -19 -93 -25 -71 -13 -285 -81 -334 -107 -49 -25 -117 -96
-136 -141 -23 -53 -15 -134 18 -204 39 -81 37 -89 -23 -89 -41 0 -51 4 -61 23
-6 12 -38 61 -71 109 -76 115 -80 134 -36 190 47 58 66 112 74 205 14 164 -52
269 -205 327 -105 41 -129 42 -189 12 -28 -14 -57 -26 -65 -26 -18 0 -50 36
-76 85 -12 22 -44 74 -71 115 -27 41 -79 122 -115 180 -36 58 -70 112 -75 120
-5 8 -37 58 -70 110 -33 52 -68 108 -78 123 -9 16 -66 104 -127 195 -60 92
-117 181 -125 197 -20 38 -44 117 -66 220 -10 44 -32 125 -50 180 -43 132
-113 335 -124 360 -5 11 -21 52 -36 90 -15 39 -35 89 -45 112 -11 23 -19 45
-19 49 0 14 -204 421 -243 484 -22 36 -47 79 -55 95 -15 29 -32 54 -157 234
-63 91 -65 109 -9 123 16 3 67 21 114 38 47 17 97 35 111 39 14 5 34 13 45 19
32 17 268 99 349 122 38 11 114 38 140 50 11 5 40 13 65 18 49 11 294 74 375
96 118 33 242 60 380 80 61 9 139 23 175 31 36 7 96 17 135 20 38 3 74 10 80
14 5 5 55 12 110 15 55 4 111 11 125 17 68 26 990 33 1205 9z m2513 -1489 c9
-5 59 -25 110 -45 320 -123 572 -481 572 -815 0 -337 -231 -680 -525 -778
-120 -40 -197 -48 -294 -31 -90 16 -130 32 -218 88 -61 38 -83 31 -83 -26 0
-26 9 -42 43 -75 41 -40 149 -99 181 -99 27 0 30 -29 6 -55 -40 -42 -124 -68
-205 -62 -85 6 -147 32 -222 92 -91 75 -192 216 -219 306 -17 57 -12 135 11
166 13 17 15 17 42 -4 15 -12 59 -41 96 -63 82 -50 130 -53 135 -8 3 24 -6 34
-65 77 -118 87 -212 211 -251 336 -29 93 -32 302 -5 379 24 65 88 135 157 170
52 27 62 28 151 24 55 -2 100 -9 107 -16 7 -7 18 -12 26 -12 27 0 130 -80 164
-128 58 -79 69 -112 70 -199 1 -90 -10 -115 -71 -157 -47 -33 -122 -35 -185
-7 -41 19 -126 100 -126 121 0 6 -12 16 -26 22 -23 11 -29 10 -45 -11 -13 -16
-17 -31 -13 -50 9 -35 51 -110 83 -144 29 -32 110 -77 139 -77 26 0 42 -20 42
-51 0 -50 13 -90 31 -100 33 -17 52 4 66 72 7 34 16 66 20 70 5 5 24 10 43 11
34 3 35 2 38 -37 2 -22 12 -69 24 -104 34 -105 114 -169 248 -200 50 -12 63
-11 125 8 88 26 161 80 198 146 35 65 34 119 -3 123 -19 2 -40 -13 -93 -67
-76 -78 -104 -88 -213 -79 -45 4 -61 10 -90 39 -45 43 -60 72 -69 129 -13 88
61 244 148 312 59 48 124 88 141 88 7 0 19 6 25 14 7 8 35 20 64 26 96 22 125
61 71 96 -22 15 -33 16 -92 5 -86 -16 -193 -67 -262 -125 -30 -26 -62 -45 -70
-44 -9 2 -19 25 -25 59 -7 31 -28 86 -48 123 -21 37 -37 77 -37 89 0 13 15 34
38 53 36 29 58 39 220 99 62 23 72 30 72 51 0 38 -40 58 -103 50 -74 -10 -200
-68 -264 -121 -31 -25 -60 -45 -66 -45 -6 0 -49 18 -94 41 -46 22 -102 43
-126 47 -59 10 -59 32 3 120 55 78 119 132 190 158 25 10 49 21 55 26 12 11
231 10 253 -1z m-1970 -1991 c34 -52 88 -133 120 -180 31 -47 83 -128 115
-180 32 -52 70 -111 83 -131 29 -43 31 -81 4 -124 -24 -38 -82 -65 -140 -65
-22 0 -59 -6 -82 -14 -51 -17 -217 -41 -225 -32 -3 3 0 33 6 66 25 124 -35
226 -158 270 -34 13 -61 28 -61 34 0 6 15 34 33 62 19 28 61 105 95 170 114
222 115 225 131 222 9 -2 44 -46 79 -98z m-3019 -41 c13 -24 52 -87 86 -139
34 -53 77 -122 96 -155 18 -33 52 -87 74 -120 52 -76 65 -113 65 -187 0 -32 4
-66 9 -76 5 -9 14 -29 20 -45 7 -17 37 -44 83 -74 98 -62 113 -77 159 -155 41
-70 46 -96 27 -131 -14 -26 -12 -303 3 -359 5 -20 21 -50 34 -66 25 -30 25
-32 25 -220 0 -105 -4 -193 -8 -196 -23 -14 -168 114 -266 234 -178 218 -292
439 -372 718 -9 35 -21 65 -26 68 -4 3 -8 27 -8 54 0 27 -5 61 -12 77 -6 15
-16 75 -20 133 -10 117 -25 670 -20 683 8 16 28 -1 51 -44z m3821 -334 c215
-9 385 -34 535 -77 39 -11 88 -25 110 -30 22 -6 51 -16 65 -23 14 -7 51 -19
84 -26 62 -14 77 -29 54 -57 -18 -22 -46 -90 -50 -122 -4 -31 -44 -38 -90 -16
-17 9 -41 16 -53 16 -11 0 -25 4 -30 9 -29 29 -311 98 -535 132 -36 5 -85 15
-110 21 -25 6 -101 13 -170 16 -69 2 -131 9 -137 14 -24 19 -15 75 17 112 33
37 58 45 130 40 25 -2 106 -6 180 -9z m-4700 -137 c104 -48 121 -98 35 -109
-48 -6 -126 -26 -210 -54 -46 -15 -161 -77 -226 -122 -73 -50 -154 -144 -223
-255 -22 -38 -40 -35 -71 9 -21 31 -25 49 -25 107 0 58 5 79 33 133 43 86 86
135 179 204 73 54 99 67 213 103 77 25 224 17 295 -16z m3546 -8 c50 0 53 -2
74 -37 13 -21 25 -56 27 -78 7 -53 -10 -68 -58 -55 -52 15 -219 12 -275 -5
-29 -9 -89 -15 -146 -15 -53 0 -109 -5 -125 -11 -15 -6 -64 -15 -108 -20 -44
-5 -141 -23 -215 -40 -74 -17 -155 -35 -179 -40 -24 -5 -47 -11 -49 -14 -9 -8
-32 16 -32 34 0 9 -12 43 -25 76 -15 37 -21 63 -15 69 5 5 42 18 81 28 39 10
85 25 102 33 16 8 45 15 64 15 18 0 50 7 70 15 19 8 61 15 92 15 31 0 72 5 91
11 43 13 361 28 484 23 49 -2 113 -4 142 -4z m2231 -142 c30 -28 31 -88 1
-137 -12 -20 -57 -75 -99 -123 -42 -47 -131 -156 -199 -242 -96 -121 -129
-156 -152 -162 -17 -3 -35 -1 -41 5 -11 11 -10 13 65 102 27 30 48 59 48 63 0
5 11 22 25 40 67 83 143 183 154 204 7 12 16 59 21 104 9 78 12 84 52 125 49
50 87 56 125 21z m-1135 -19 c18 -5 67 -9 110 -9 42 0 89 -5 105 -11 15 -7 46
-15 68 -19 51 -10 275 -69 286 -76 5 -2 46 -14 91 -26 143 -35 160 -53 113
-112 -40 -49 -105 -135 -160 -209 -27 -38 -71 -94 -96 -125 -25 -32 -51 -67
-57 -79 -8 -14 -25 -24 -50 -28 -20 -3 -44 -10 -53 -15 -8 -4 -47 -11 -85 -15
-38 -4 -74 -11 -80 -16 -7 -5 -40 -14 -75 -18 -35 -5 -84 -14 -109 -21 -56
-14 -95 -6 -84 18 30 68 8 136 -58 180 -38 25 -49 27 -137 27 -86 0 -101 -3
-142 -27 -49 -29 -99 -94 -99 -128 0 -30 17 -59 57 -102 40 -42 37 -58 -13
-58 -27 0 -37 5 -43 23 -21 52 -73 156 -99 197 -20 31 -42 89 -42 113 0 9 24
54 54 100 30 45 62 98 73 117 10 19 34 60 53 90 19 30 41 64 47 75 65 110 96
156 111 165 20 13 261 5 314 -11z m-2339 -81 c44 -55 57 -96 57 -174 0 -70 7
-91 50 -149 17 -22 52 -71 78 -109 26 -38 57 -83 70 -100 21 -29 33 -47 100
-151 14 -22 35 -50 46 -62 29 -34 11 -40 -40 -14 -32 17 -56 41 -82 83 -20 32
-60 89 -88 126 -28 37 -59 81 -67 97 -9 17 -30 48 -46 70 -87 120 -189 274
-200 302 -15 38 -8 76 19 103 32 32 64 25 103 -22z m-1923 -6 c104 -37 213
-104 266 -163 42 -47 102 -145 129 -209 36 -88 47 -265 20 -356 -18 -62 -57
-124 -79 -124 -12 0 -38 79 -52 162 -7 41 -53 92 -79 86 -33 -6 -40 -33 -26
-90 7 -29 15 -86 18 -127 4 -64 1 -84 -21 -141 -41 -103 -135 -176 -217 -168
l-34 3 -6 99 c-7 93 -9 100 -38 130 -25 25 -34 29 -49 20 -14 -9 -18 -31 -22
-122 -5 -119 -15 -142 -72 -185 -32 -24 -92 -26 -134 -4 -34 18 -77 77 -88
122 -8 34 -33 65 -51 65 -7 0 -20 -9 -30 -20 -15 -16 -17 -30 -12 -79 9 -85
-3 -92 -96 -61 -95 33 -165 102 -217 215 -38 81 -43 96 -61 195 -14 69 -5 242
15 296 55 151 111 234 219 319 100 80 225 136 351 156 92 14 304 4 366 -19z
m3254 -58 c9 -3 36 -46 61 -95 25 -50 49 -97 54 -107 5 -9 58 -116 117 -237
59 -121 120 -239 136 -262 35 -51 33 -53 -94 -78 -95 -19 -118 -16 -118 15 0
34 -26 75 -77 120 -70 61 -110 79 -189 82 -114 5 -184 -46 -184 -134 0 -48 34
-113 71 -135 30 -18 38 -33 17 -33 -7 0 -26 -7 -42 -15 -16 -8 -70 -20 -120
-26 l-91 -12 -100 43 c-144 61 -109 24 -328 346 -48 71 -123 181 -167 244 -43
63 -79 121 -79 128 -1 15 40 32 79 32 16 0 31 4 35 9 3 6 27 13 53 17 26 3 81
16 122 26 41 11 106 24 144 30 38 5 77 13 87 18 10 6 51 10 91 11 40 1 98 4
128 9 68 9 372 12 394 4z m381 -48 c0 -16 -7 -20 -37 -20 -41 -1 -52 -18 -18
-26 28 -7 26 -16 -11 -68 -35 -49 -54 -46 -45 7 5 32 2 39 -26 62 -39 32 -30
49 25 49 23 0 49 5 57 10 24 16 55 8 55 -14z m1775 -271 c9 -8 34 -15 56 -15
38 0 64 -13 64 -33 0 -5 -20 -6 -45 -3 -37 6 -50 4 -71 -13 -15 -12 -40 -21
-57 -21 -16 0 -47 -5 -69 -12 -29 -9 -41 -9 -50 0 -9 9 1 25 42 68 48 48 59
55 84 49 16 -3 37 -12 46 -20z m-3562 -45 c27 -36 27 -40 2 -40 -24 0 -26 -18
-4 -48 21 -30 11 -39 -20 -18 -36 23 -51 55 -31 62 23 9 18 21 -15 33 -47 16
-38 41 15 41 23 0 37 -8 53 -30z m81 -109 c20 -28 27 -51 15 -51 -3 0 -20 12
-39 27 -26 21 -31 30 -23 40 16 19 24 16 47 -16z m-646 -23 c10 -18 35 -60 56
-93 22 -33 40 -63 40 -67 1 -12 -47 -9 -54 2 -4 6 -22 17 -41 25 l-34 14 0 75
c0 42 4 76 8 76 5 0 16 -15 25 -32z m4555 -79 c2 -71 0 -88 -14 -100 -19 -16
-94 -37 -169 -48 -27 -3 -56 -10 -63 -15 -7 -4 -37 -12 -65 -16 -99 -17 -292
-51 -332 -60 -22 -4 -69 -13 -104 -20 -35 -6 -71 -15 -80 -19 -9 -5 -42 -11
-74 -14 -32 -3 -64 -10 -70 -15 -7 -5 -46 -15 -87 -21 -41 -6 -102 -16 -135
-22 -270 -48 -342 -62 -377 -75 -22 -8 -54 -14 -70 -14 -16 0 -39 -5 -51 -12
-12 -7 -44 -15 -72 -19 -58 -8 -358 -64 -460 -85 -38 -8 -95 -18 -127 -23 -31
-5 -62 -12 -68 -16 -7 -4 -45 -14 -84 -21 -39 -8 -132 -25 -206 -39 -74 -14
-160 -30 -191 -37 -89 -17 -90 -16 -87 104 3 101 3 103 28 106 14 2 29 8 34
13 6 5 33 9 60 9 28 1 69 7 91 15 22 8 57 15 79 15 36 0 130 18 221 41 22 6
69 16 105 23 36 7 72 15 80 18 15 7 187 39 320 60 36 6 86 16 112 24 26 8 62
14 82 14 19 0 47 5 63 11 15 6 53 15 83 20 30 4 84 15 120 24 36 10 90 20 120
25 128 18 261 41 282 49 13 4 46 11 73 15 71 10 187 36 207 47 10 5 34 9 53 9
20 0 52 7 72 15 19 8 52 15 72 15 20 0 63 7 94 15 32 8 75 15 96 15 21 0 58 7
81 15 23 8 63 15 89 15 25 1 57 7 71 15 14 8 43 15 65 15 22 1 49 5 60 10 11
5 31 8 45 7 24 -2 25 -4 28 -88z m-3858 -134 c47 -21 145 -66 217 -101 73 -35
136 -64 139 -64 4 0 25 -9 48 -19 96 -45 132 -63 146 -71 28 -17 127 -60 138
-60 6 0 16 -9 22 -19 12 -24 14 -198 1 -205 -7 -5 -67 15 -146 50 -37 16 -224
103 -247 115 -10 5 -23 9 -29 9 -7 0 -51 19 -98 43 -47 24 -120 56 -161 72
-103 38 -116 52 -124 131 -4 36 -10 73 -15 82 -4 9 -15 32 -24 50 -22 43 -14
56 21 38 15 -7 65 -31 112 -51z m-271 -30 c13 -28 30 -63 37 -78 18 -38 18
-56 -3 -79 -24 -26 -45 -22 -81 15 -41 42 -54 85 -40 134 21 79 51 82 87 8z
m-1098 -27 c20 -24 26 -68 9 -68 -5 0 -10 8 -10 18 0 9 -7 26 -15 36 -29 38
-15 50 16 14z m791 -85 c29 -16 68 -34 86 -42 19 -8 38 -24 43 -40 13 -34 44
-67 94 -100 37 -24 47 -26 140 -24 91 2 103 0 137 -22 20 -13 48 -27 63 -31
15 -4 47 -17 72 -30 24 -13 50 -24 56 -24 7 0 29 -9 50 -20 20 -11 41 -20 47
-20 5 0 32 -13 60 -30 28 -16 55 -30 61 -30 5 0 37 -13 72 -29 34 -17 94 -43
132 -60 39 -17 95 -43 125 -59 l55 -29 1 -302 c2 -240 -1 -303 -11 -307 -7 -3
-30 5 -52 18 -21 13 -61 34 -88 47 -28 13 -57 28 -65 32 -8 5 -26 14 -40 20
-22 9 -96 46 -139 70 -9 4 -61 29 -116 54 -55 25 -120 56 -145 70 -100 53
-230 115 -244 115 -8 0 -18 4 -21 10 -3 5 -54 32 -113 61 -184 88 -285 140
-307 159 -7 6 -18 44 -24 86 -12 80 -15 466 -4 477 10 11 17 9 75 -20z m4340
-48 c-2 -11 -8 -58 -13 -105 -4 -46 -11 -91 -15 -100 -3 -8 -10 -62 -14 -120
-12 -143 -32 -242 -50 -248 -8 -3 -26 -10 -40 -15 -14 -6 -65 -16 -115 -23
-49 -7 -108 -17 -130 -23 -22 -5 -71 -16 -110 -25 -38 -8 -113 -25 -165 -36
-52 -12 -113 -25 -135 -30 -22 -4 -89 -17 -150 -29 -60 -11 -130 -26 -155 -32
-25 -6 -67 -14 -95 -18 -27 -4 -59 -12 -70 -19 -11 -6 -46 -14 -77 -17 -32 -4
-60 -11 -63 -16 -4 -5 -24 -9 -45 -9 -21 0 -51 -5 -67 -11 -15 -6 -68 -17
-118 -25 -94 -14 -222 -37 -290 -53 -22 -6 -62 -15 -90 -21 -27 -6 -72 -17
-100 -25 -27 -8 -63 -16 -80 -19 -76 -12 -303 -57 -329 -66 -16 -6 -45 -10
-65 -10 -20 0 -49 -7 -65 -15 -15 -8 -44 -15 -62 -15 -19 0 -50 -6 -68 -14
-47 -19 -121 -25 -120 -8 1 6 2 143 3 302 l1 290 23 9 c56 21 100 32 149 37
29 3 67 12 85 20 17 8 44 14 60 14 15 0 75 11 133 24 160 37 249 55 312 61 32
4 60 11 63 16 4 5 29 9 56 9 28 0 62 6 77 14 15 7 53 16 85 20 32 3 65 10 75
15 9 5 73 19 142 31 69 11 172 30 230 41 58 11 125 23 150 26 25 3 52 11 60
18 8 7 40 15 70 18 51 5 144 25 180 39 8 4 43 9 76 12 34 3 81 10 105 15 57
13 151 31 215 41 28 4 61 13 72 19 11 6 40 11 64 11 24 0 55 6 69 14 14 7 52
17 84 21 31 3 85 13 119 20 33 8 79 13 101 12 34 -2 39 -5 37 -22z m-4627
-393 c74 -40 73 -38 90 -143 9 -56 41 -88 129 -129 45 -21 194 -93 331 -160
138 -67 268 -130 290 -140 59 -26 118 -77 169 -147 60 -83 156 -222 156 -227
0 -2 22 -40 48 -83 56 -89 196 -375 216 -440 5 -14 -4 -47 -25 -95 -28 -67
-31 -82 -31 -180 0 -101 2 -110 33 -173 38 -75 96 -139 144 -159 36 -15 55
-64 55 -139 0 -26 7 -64 16 -86 20 -51 16 -87 -11 -84 -11 1 -78 15 -150 32
-71 17 -159 36 -194 41 -35 6 -67 13 -72 16 -6 3 -40 10 -77 15 -37 5 -87 13
-112 19 -46 10 -217 42 -325 61 -33 5 -94 16 -135 24 -41 8 -127 21 -190 29
-63 9 -160 23 -215 31 -55 8 -121 15 -147 15 -26 0 -59 5 -74 10 -15 6 -68 15
-118 20 -50 6 -143 17 -206 25 -63 9 -169 19 -235 24 -66 5 -172 14 -235 20
-63 7 -182 15 -265 19 -171 8 -160 0 -130 102 12 41 15 83 12 165 -3 98 -7
118 -36 180 -18 38 -42 81 -55 95 -13 14 -27 32 -32 41 -21 38 -133 122 -221
165 -112 56 -120 76 -33 84 30 3 74 16 96 27 43 23 116 98 140 145 18 35 38
45 105 54 53 6 190 37 301 68 61 17 206 85 309 146 115 69 296 249 382 380 75
116 177 303 177 326 0 12 32 44 44 43 6 0 42 -17 81 -37z m-2080 -102 c54 -27
91 -52 93 -62 2 -10 -19 -40 -52 -74 -112 -115 -164 -273 -153 -464 7 -108 26
-173 72 -245 33 -52 132 -149 173 -168 12 -5 22 -13 22 -17 0 -4 -57 -10 -127
-14 -101 -6 -146 -13 -216 -37 -126 -42 -167 -70 -167 -116 0 -37 38 -46 107
-23 140 45 192 53 312 47 206 -10 367 -73 487 -192 97 -95 117 -140 118 -265
1 -77 -3 -104 -20 -141 -26 -56 -83 -115 -156 -161 -69 -44 -95 -54 -203 -78
-228 -50 -535 -5 -770 112 -61 31 -170 115 -215 165 -39 45 -130 209 -130 236
0 8 -9 43 -21 78 -19 60 -20 81 -16 319 3 211 7 260 21 285 9 17 16 41 16 54
0 60 82 297 147 425 100 198 180 291 306 355 60 31 65 32 172 28 107 -3 112
-4 200 -47z m487 -153 c50 -26 63 -37 63 -56 0 -19 -8 -26 -42 -36 -48 -14
-109 -56 -145 -100 -56 -68 -85 -235 -54 -310 22 -53 94 -124 153 -150 29 -14
53 -28 53 -33 0 -18 -58 -61 -103 -76 -62 -21 -81 -20 -157 4 -115 37 -176 98
-225 225 -27 71 -27 212 0 280 71 181 189 281 337 284 46 1 68 -5 120 -32z
m4813 -602 c132 -25 247 -110 324 -238 44 -75 39 -87 -42 -87 -89 0 -192 -34
-312 -103 -93 -54 -227 -171 -345 -303 -411 -458 -720 -742 -919 -844 -56 -28
-79 -23 -117 27 -60 79 -78 143 -79 278 0 78 5 137 15 168 17 58 7 81 -37 85
-25 2 -35 -3 -53 -27 -39 -56 -77 -37 -126 64 -14 29 -19 61 -19 115 0 67 5
84 41 160 92 192 297 330 489 330 64 0 77 -3 113 -30 64 -46 68 -62 36 -123
-15 -29 -40 -77 -56 -107 -33 -64 -36 -105 -9 -120 44 -23 39 -27 184 175 266
371 474 549 685 585 75 12 145 11 227 -5z m366 -493 c32 -36 36 -69 19 -168
-36 -200 -229 -458 -501 -670 -57 -44 -111 -84 -119 -87 -8 -4 -51 -30 -95
-58 -44 -27 -109 -64 -145 -80 -36 -17 -92 -43 -125 -59 -120 -56 -154 -70
-172 -70 -10 0 -38 -8 -63 -16 -60 -22 -348 -26 -373 -6 -24 20 -12 36 56 80
89 58 275 208 395 319 57 53 212 213 344 355 133 143 274 288 313 321 141 120
273 180 379 174 52 -3 63 -8 87 -35z"/>
<path d="M5910 15577 c-79 -41 -130 -110 -130 -175 0 -56 32 -64 125 -32 70
24 155 26 238 4 77 -20 103 -33 172 -89 87 -71 135 -61 135 31 0 43 -5 58 -34
95 -48 64 -118 117 -194 150 -60 25 -79 28 -177 29 -71 0 -119 -5 -135 -13z"/>
<path d="M4561 15465 c-114 -32 -183 -86 -229 -178 -48 -96 -36 -208 23 -223
26 -6 70 21 90 55 18 31 91 90 136 110 78 35 161 44 261 30 l90 -13 20 24 c15
19 19 34 15 63 -7 51 -29 74 -106 109 -81 37 -214 47 -300 23z"/>
<path d="M6020 15150 c-30 -3 -77 -16 -105 -28 -90 -41 -192 -159 -224 -259
-38 -118 -43 -164 -39 -349 5 -159 8 -190 33 -273 16 -52 39 -112 51 -135 13
-23 30 -54 39 -69 9 -15 14 -31 11 -35 -2 -4 -26 -18 -53 -31 -73 -36 -104
-86 -71 -119 24 -24 122 -5 168 32 23 19 118 46 161 46 91 0 202 -78 214 -150
12 -69 -3 -109 -64 -171 -78 -79 -137 -100 -303 -108 -104 -5 -130 -10 -147
-25 -30 -27 -26 -53 12 -76 27 -17 50 -20 142 -20 121 0 205 19 275 61 8 5 29
17 45 27 90 51 165 165 165 250 0 28 12 47 74 114 100 107 143 195 178 363 14
69 7 390 -10 407 -6 6 -12 24 -12 39 0 31 -46 165 -64 189 -6 8 -25 42 -41 75
-32 64 -141 180 -191 204 -16 7 -40 19 -54 26 -32 16 -119 23 -190 15z m168
-137 c44 -21 126 -95 162 -147 63 -92 114 -263 125 -421 7 -97 -9 -293 -25
-309 -6 -6 -10 -19 -10 -31 0 -53 -107 -205 -144 -205 -13 0 -40 19 -65 44
-24 24 -61 52 -82 61 -43 20 -47 30 -24 62 24 35 45 132 45 214 0 261 -161
465 -302 380 -41 -26 -97 -124 -98 -173 0 -21 -4 -38 -10 -38 -17 0 -12 216 6
279 64 223 173 321 339 304 28 -3 65 -12 83 -20z"/>
<path d="M3630 15100 c-61 -11 -121 -53 -163 -111 l-39 -56 1 -122 c0 -84 5
-131 15 -149 7 -15 20 -40 27 -56 16 -33 136 -176 148 -176 4 0 26 -12 47 -26
63 -43 202 -71 219 -44 3 6 13 10 22 10 30 0 108 77 138 136 25 49 29 70 29
129 -1 104 -16 173 -51 240 -36 67 -141 185 -166 185 -9 0 -19 4 -22 10 -13
21 -147 42 -205 30z"/>
<path d="M4810 15050 c-8 -5 -28 -10 -44 -10 -50 0 -135 -51 -193 -115 -114
-125 -171 -300 -172 -525 -2 -269 90 -511 256 -672 67 -65 139 -105 237 -130
64 -17 73 -17 135 -2 91 22 138 45 192 92 38 34 119 149 119 169 0 3 6 19 14
36 41 92 48 157 43 368 -4 164 -9 217 -25 269 -29 98 -89 236 -126 294 -43 67
-136 161 -184 185 -80 40 -218 63 -252 41z m173 -139 c101 -49 205 -188 257
-342 62 -186 66 -485 9 -639 -23 -62 -82 -144 -129 -178 -69 -51 -148 -63
-238 -37 -54 16 -72 45 -29 45 30 1 59 19 94 60 53 62 66 111 71 262 6 191
-19 285 -109 405 -49 66 -82 83 -157 83 -68 0 -95 -16 -140 -83 -26 -38 -39
-84 -57 -199 -3 -21 -10 -38 -15 -38 -24 0 -25 319 -1 343 6 6 11 20 11 32 0
11 10 49 22 85 19 52 36 78 89 131 42 43 81 72 110 82 61 23 151 17 212 -12z"/>
<path d="M4370 13639 c-65 -36 -136 -102 -144 -136 -14 -53 41 -83 88 -48 39
30 43 20 38 -89 -6 -129 19 -318 58 -436 64 -194 222 -403 357 -470 15 -8 35
-20 43 -26 8 -7 56 -27 107 -43 84 -29 102 -31 227 -31 113 0 147 4 198 21
175 60 302 156 419 314 61 83 92 146 119 243 27 98 40 109 131 122 76 11 113
35 117 78 3 27 -1 34 -23 42 -28 11 -123 1 -200 -19 -52 -14 -418 -14 -470 0
-22 6 -74 17 -115 24 -108 20 -253 59 -345 93 -163 60 -475 242 -475 277 0 6
9 20 20 30 22 20 26 55 8 73 -23 23 -99 14 -158 -19z"/>
<path d="M6162 12583 c-59 -32 -120 -86 -144 -129 -10 -16 -22 -36 -27 -44
-46 -76 -56 -189 -21 -245 69 -111 285 -3 375 187 59 124 48 198 -36 240 -48
25 -88 22 -147 -9z"/>
<path d="M7330 11530 c-19 -11 -55 -39 -79 -64 -37 -38 -45 -52 -49 -94 -11
-114 33 -157 157 -154 89 3 144 24 189 76 45 51 55 81 47 144 -6 45 -12 56
-42 80 -32 23 -46 27 -112 29 -58 1 -84 -3 -111 -17z"/>
<path d="M7938 11432 c-20 -2 -42 -10 -48 -18 -7 -8 -20 -14 -29 -14 -54 -2
-141 -137 -141 -221 0 -42 3 -49 38 -73 32 -22 49 -26 110 -26 161 0 272 89
272 219 0 47 -3 51 -47 89 -49 40 -85 51 -155 44z"/>
<path d="M6259 11371 c-56 -26 -67 -39 -75 -88 -13 -88 64 -179 191 -224 65
-23 94 -24 139 -5 65 27 95 113 67 189 -12 32 -69 96 -95 108 -12 6 -32 16
-46 24 -34 20 -136 18 -181 -4z"/>
<path d="M5715 11292 c-22 -15 -48 -44 -59 -65 -16 -34 -17 -43 -6 -84 21 -71
87 -145 155 -171 103 -40 211 -24 252 37 41 61 28 112 -48 199 -31 36 -67 63
-109 83 -80 37 -131 38 -185 1z"/>
<path d="M8615 11140 c-11 -17 7 -30 33 -24 21 6 31 24 13 24 -5 0 -16 3 -24
6 -8 3 -18 0 -22 -6z"/>
</g>
</svg>
