<?xml version="1.0" standalone="no"?>
<!DOCTYPE svg PUBLIC "-//W3C//DTD SVG 20010904//EN"
 "http://www.w3.org/TR/2001/REC-SVG-20010904/DTD/svg10.dtd">
<svg version="1.0" xmlns="http://www.w3.org/2000/svg"
 width="1000.000000pt" height="2000.000000pt" viewBox="0 0 1000.000000 2000.000000"
 preserveAspectRatio="xMidYMid meet">
<metadata>
Created by potrace 1.16, written by Peter Selinger 2001-2019
</metadata>
<g transform="translate(0.000000,2000.000000) scale(0.100000,-0.100000)"
fill="#000000" stroke="none">
<path d="M4734 17020 c-127 -10 -254 -23 -283 -29 -28 -6 -73 -11 -99 -11 -26
0 -78 -6 -117 -14 -38 -8 -113 -22 -165 -31 -52 -9 -111 -20 -130 -25 -19 -5
-66 -13 -105 -19 -151 -23 -276 -50 -515 -113 -63 -16 -124 -34 -135 -38 -11
-5 -38 -11 -60 -15 -22 -3 -58 -12 -80 -20 -22 -7 -121 -39 -220 -70 -193 -60
-288 -92 -320 -105 -21 -9 -154 -62 -215 -85 -212 -81 -289 -126 -388 -226
-59 -60 -132 -166 -132 -191 0 -6 -6 -19 -13 -27 -8 -9 -22 -45 -33 -81 -15
-53 -19 -95 -18 -222 1 -92 5 -163 11 -170 6 -7 14 -29 18 -48 4 -19 28 -77
53 -129 89 -179 245 -311 438 -367 28 -8 58 -22 67 -32 17 -20 100 -142 110
-162 4 -8 22 -38 40 -67 87 -141 109 -185 98 -196 -6 -6 -44 -15 -84 -18 -243
-24 -285 -29 -310 -38 -16 -6 -63 -11 -105 -11 -42 0 -95 -5 -117 -11 -22 -5
-99 -14 -171 -19 -133 -10 -233 -28 -295 -54 -19 -8 -64 -39 -100 -70 -99 -81
-159 -194 -172 -325 -4 -35 -11 -69 -16 -75 -5 -6 -12 -38 -15 -71 -4 -33 -11
-82 -16 -110 -22 -119 -32 -184 -75 -480 -3 -22 -12 -86 -19 -142 -8 -55 -17
-107 -22 -115 -5 -7 -11 -38 -15 -68 -15 -127 -51 -378 -60 -410 -12 -45 -39
-262 -50 -405 -21 -265 47 -412 234 -507 174 -88 787 -390 937 -461 41 -19 88
-49 104 -66 26 -27 28 -34 20 -68 -4 -21 -8 -76 -8 -123 0 -231 66 -419 189
-544 110 -110 270 -166 379 -132 46 14 53 14 85 -2 26 -12 62 -17 126 -17 85
0 93 2 135 32 42 28 53 31 140 34 80 3 104 9 155 33 66 33 161 122 171 162 4
17 22 33 57 51 28 14 63 34 77 45 15 11 33 16 43 12 22 -8 57 -65 57 -93 0
-29 -112 -243 -160 -305 -39 -51 -132 -138 -200 -187 -60 -43 -232 -110 -314
-122 -52 -8 -68 2 -105 67 -41 73 -93 123 -158 153 -46 21 -71 25 -173 28
-118 2 -118 2 -162 37 -68 54 -123 87 -185 109 -32 12 -64 26 -71 32 -8 6 -72
11 -150 11 -164 1 -213 -12 -325 -88 -118 -80 -225 -217 -310 -396 -65 -138
-74 -158 -100 -246 -39 -129 -46 -156 -53 -219 -4 -33 -11 -65 -16 -72 -5 -7
-15 -61 -21 -120 -21 -189 -11 -464 18 -523 7 -14 16 -45 20 -70 21 -128 158
-336 263 -402 49 -31 27 -45 -98 -61 -121 -16 -170 -36 -170 -71 0 -27 21 -47
75 -68 104 -42 279 -65 805 -108 69 -6 133 -13 143 -16 11 -3 71 -10 135 -14
65 -5 155 -13 202 -19 85 -10 168 -19 435 -46 77 -8 237 -26 355 -40 118 -14
256 -30 305 -35 50 -5 110 -14 135 -19 25 -6 131 -20 235 -31 253 -27 444 -49
533 -61 40 -5 94 -9 120 -9 26 0 79 -7 117 -15 39 -8 97 -15 130 -15 33 0 76
-5 95 -11 19 -5 85 -14 145 -19 363 -29 495 -40 535 -44 65 -8 296 -25 605
-43 317 -19 880 -21 1039 -4 181 20 246 58 182 109 -27 21 -180 65 -286 82
-163 26 -176 34 -113 66 21 10 45 24 53 31 8 6 49 30 90 54 172 97 428 320
550 480 59 77 170 267 170 291 0 7 7 25 15 41 38 73 37 361 -1 472 -95 274
-351 465 -625 465 -70 0 -195 -17 -224 -30 -11 -5 -43 -18 -71 -29 -134 -51
-281 -169 -417 -333 -82 -98 -108 -114 -126 -80 -5 10 -36 31 -68 47 -47 23
-74 29 -148 33 -85 4 -125 18 -125 43 0 4 -16 35 -36 69 -20 33 -34 64 -30 67
12 12 91 29 239 53 78 12 151 27 162 33 11 6 45 14 75 19 30 4 84 15 120 23
36 9 85 20 110 24 25 5 65 13 90 19 90 23 166 35 232 39 41 3 71 10 79 19 6 8
23 14 38 14 14 0 62 9 106 20 44 11 136 31 205 45 69 14 158 32 198 40 40 8
84 15 97 15 14 0 33 5 43 10 17 10 210 53 307 69 28 5 68 13 90 19 22 6 96 20
165 32 69 12 134 25 145 29 11 5 68 17 126 29 144 28 176 42 195 89 9 20 20
75 24 122 5 48 14 102 19 121 6 19 11 50 11 68 0 18 6 70 14 115 8 45 21 130
29 189 13 96 18 111 46 144 l32 36 -3 195 -3 195 -41 37 c-34 30 -75 47 -235
100 -218 72 -239 80 -247 99 -2 7 9 28 26 45 16 18 44 54 61 81 27 44 31 59
31 121 0 63 -4 77 -31 119 -42 62 -99 106 -184 141 -38 15 -88 36 -110 46 -64
28 -153 56 -250 79 -86 20 -121 28 -295 65 -73 15 -196 29 -369 42 l-83 6 -39
60 c-43 66 -45 84 -8 79 13 -2 101 -4 194 -4 160 0 176 1 276 29 58 17 115 35
126 42 35 18 82 13 142 -16 51 -25 66 -28 166 -28 105 0 113 2 177 34 63 32
134 92 188 160 22 28 33 33 100 40 96 12 153 30 237 76 202 111 373 314 462
546 41 107 54 184 54 324 1 112 -22 272 -42 300 -4 6 -18 37 -30 70 -13 33
-31 74 -42 90 -10 17 -23 41 -29 53 -20 45 -120 170 -193 238 -187 178 -394
273 -614 281 -171 7 -294 -38 -421 -152 -87 -79 -160 -188 -171 -255 -5 -32
-13 -38 -77 -70 -94 -47 -137 -82 -189 -154 -70 -99 -89 -166 -88 -326 0 -170
25 -271 95 -372 27 -39 23 -67 -23 -150 -5 -10 -9 -37 -9 -61 0 -76 -11 -82
-147 -82 -141 0 -189 16 -323 105 -83 56 -271 224 -291 261 -6 13 -5 46 6 106
34 192 46 262 60 363 8 58 20 123 25 145 5 22 10 60 10 85 0 25 5 61 11 80 6
19 14 89 19 155 5 66 14 170 20 230 6 61 14 368 18 684 7 560 7 574 27 585
134 71 231 168 292 288 74 149 78 165 78 338 -1 153 -1 156 -33 224 -109 232
-279 370 -512 415 -30 6 -91 18 -135 27 -199 40 -236 46 -323 54 -51 5 -114
13 -140 19 -182 42 -1251 55 -1698 21z m1236 -180 c10 -5 89 -12 177 -16 92
-4 181 -13 213 -22 33 -9 89 -14 141 -13 51 1 105 -5 135 -14 27 -8 67 -15 90
-15 22 0 67 -9 99 -20 31 -11 68 -17 80 -14 13 3 26 1 29 -5 4 -6 22 -11 39
-11 18 0 45 -7 61 -15 15 -8 37 -15 47 -15 34 0 125 -59 175 -113 58 -63 80
-100 111 -187 20 -56 23 -78 18 -159 -3 -65 -9 -99 -20 -111 -9 -9 -13 -24
-10 -32 4 -9 -5 -29 -19 -46 -15 -16 -26 -37 -26 -45 0 -23 -110 -131 -154
-151 -38 -18 -42 -18 -93 -2 -30 10 -75 21 -101 26 -26 5 -76 15 -112 23 -36
8 -96 18 -135 22 -38 4 -101 13 -138 21 -38 8 -102 14 -143 14 -44 0 -90 6
-111 15 -30 13 -121 15 -588 16 -492 0 -557 -1 -603 -16 -29 -10 -64 -15 -78
-12 -14 2 -62 -2 -107 -10 -45 -8 -104 -16 -132 -18 -148 -10 -439 -58 -460
-75 -5 -4 -35 -10 -65 -12 -30 -3 -70 -10 -87 -16 -85 -31 -102 -35 -153 -43
-104 -15 -172 -30 -207 -44 -20 -8 -48 -15 -62 -15 -15 0 -36 -7 -47 -15 -10
-8 -30 -15 -42 -15 -13 0 -36 -6 -50 -14 -15 -7 -54 -21 -87 -31 -33 -9 -71
-21 -85 -25 -14 -5 -54 -14 -90 -21 -36 -6 -74 -20 -86 -30 -11 -11 -25 -19
-31 -19 -11 0 -95 -34 -124 -50 -9 -5 -33 -12 -53 -15 -20 -4 -39 -11 -42 -16
-3 -5 -17 -9 -32 -9 -15 0 -40 -7 -56 -15 -15 -8 -38 -15 -51 -15 -12 0 -28
-7 -35 -15 -7 -8 -21 -15 -31 -15 -16 0 -18 6 -13 48 3 26 10 56 16 68 18 38
-8 290 -39 373 -9 25 -27 62 -40 81 -13 19 -23 40 -23 47 0 44 -203 250 -262
266 -40 11 -31 28 23 45 24 8 57 20 72 28 16 8 39 14 51 14 12 0 31 7 42 15
10 8 28 15 40 15 11 0 44 11 72 25 29 14 61 25 72 25 12 0 31 7 44 15 12 8 42
19 67 24 24 5 71 17 104 26 33 9 80 21 105 26 25 6 54 14 65 19 11 5 42 14 69
20 27 6 68 20 92 30 23 11 54 20 67 20 14 0 38 7 53 15 20 10 43 13 77 9 37
-5 52 -3 67 11 11 10 42 19 82 22 35 3 68 10 74 14 6 5 40 14 75 19 137 23
155 27 176 38 12 7 48 12 80 12 32 1 78 6 103 11 57 14 304 36 530 49 96 6
198 14 225 19 71 12 942 13 965 1z m-3807 -727 c12 -11 -14 -33 -39 -33 -28 0
-30 8 -6 26 19 15 35 17 45 7z m257 -53 c12 -12 18 -25 15 -30 -6 -10 -75 27
-75 41 0 17 40 9 60 -11z m176 -196 c10 -24 12 -40 6 -46 -11 -11 -35 20 -47
60 -11 38 24 26 41 -14z m-648 4 c-4 -27 -28 -36 -28 -10 0 20 8 32 22 32 5 0
8 -10 6 -22z m52 -103 c0 -19 -4 -35 -10 -35 -5 0 -10 16 -10 35 0 19 5 35 10
35 6 0 10 -16 10 -35z m4323 -1 c22 -8 74 -14 131 -14 64 0 103 -5 122 -15 16
-8 48 -15 71 -15 22 0 83 -11 135 -24 51 -13 114 -27 140 -31 25 -3 52 -13 60
-22 17 -21 16 -895 -2 -1198 -12 -221 -36 -530 -40 -530 -1 0 -8 -43 -15 -95
-7 -52 -18 -113 -24 -135 -6 -22 -11 -60 -11 -86 0 -25 -5 -50 -10 -55 -6 -6
-14 -39 -19 -75 -17 -124 -67 -351 -96 -434 -33 -95 -95 -295 -95 -305 0 -10
-14 -43 -50 -125 -5 -11 -22 -51 -38 -90 -16 -38 -43 -99 -60 -135 -17 -36
-33 -72 -36 -80 -3 -8 -10 -22 -16 -30 -16 -26 -100 -171 -100 -175 0 -2 -18
-31 -40 -64 -25 -37 -49 -63 -63 -65 -12 -3 -74 -7 -137 -10 -231 -11 -431
-36 -503 -62 -20 -8 -55 -14 -77 -14 -21 0 -41 -4 -44 -9 -3 -5 -32 -12 -63
-15 -32 -4 -76 -13 -98 -21 -22 -7 -84 -27 -137 -44 -112 -36 -157 -60 -211
-110 -55 -51 -67 -81 -70 -164 -1 -61 2 -80 27 -129 15 -32 26 -65 22 -73 -9
-24 -76 -16 -90 10 -6 11 -36 59 -68 107 -73 113 -76 121 -44 159 84 99 116
252 80 377 -30 101 -103 170 -225 210 -86 29 -138 28 -200 -3 -27 -14 -54 -23
-60 -20 -5 4 -23 31 -40 60 -16 29 -37 59 -44 65 -8 7 -15 19 -15 27 0 8 -19
40 -42 71 -24 32 -50 71 -58 87 -8 17 -41 68 -72 115 -32 46 -58 88 -58 92 0
5 -9 21 -19 36 -10 15 -45 68 -77 117 -31 50 -105 162 -163 250 -58 88 -108
165 -110 170 -2 6 -9 17 -16 25 -16 20 -45 112 -45 143 0 14 -7 49 -16 78 -8
30 -24 86 -36 124 -18 64 -48 151 -82 245 -8 19 -22 62 -32 95 -10 33 -24 69
-31 80 -7 11 -13 25 -13 32 0 10 -29 83 -99 248 -12 27 -79 166 -90 185 -5 8
-33 64 -62 125 -30 60 -71 136 -91 168 -21 31 -38 63 -38 68 0 6 -17 34 -38
62 -67 92 -80 111 -108 157 -15 25 -36 55 -47 67 -25 28 -16 53 20 53 16 0 37
6 48 13 11 7 63 28 115 47 52 18 104 39 115 46 11 8 28 14 37 14 10 0 26 4 36
10 9 5 85 32 167 59 210 69 217 72 248 87 16 8 44 14 63 14 20 0 44 5 54 10
22 12 306 87 396 105 34 7 66 15 72 19 10 6 40 11 232 41 52 8 127 22 165 30
39 9 103 19 142 23 40 4 78 13 85 20 8 8 46 12 109 12 55 0 110 5 126 12 65
29 1191 30 1266 2z m-3686 -86 c8 -39 9 -66 3 -72 -16 -16 -22 0 -27 68 -7 84
9 86 24 4z m-649 -210 c14 -14 16 -58 2 -58 -12 0 -30 33 -30 54 0 19 11 21
28 4z m169 -210 c32 -24 41 -34 29 -36 -18 -4 -86 43 -86 59 0 15 9 11 57 -23z
m719 -531 c19 -36 11 -46 -17 -21 -27 25 -48 65 -41 83 5 16 30 -11 58 -62z
m-176 17 c0 -18 -14 -18 -30 1 -16 19 -3 40 16 24 8 -6 14 -18 14 -25z m123
-232 c19 -43 21 -52 10 -52 -11 0 -43 58 -43 76 0 26 16 14 33 -24z m5933
-221 c5 -5 37 -18 70 -29 127 -43 217 -99 323 -198 140 -131 248 -317 282
-486 24 -121 24 -172 -2 -304 -15 -79 -32 -130 -60 -184 -21 -42 -39 -79 -39
-83 0 -4 -20 -35 -45 -69 -56 -77 -193 -201 -260 -236 -195 -101 -399 -108
-558 -18 -37 20 -69 41 -72 46 -12 20 -55 11 -66 -14 -17 -35 -3 -73 39 -112
38 -36 140 -94 165 -94 8 0 20 -7 27 -15 20 -24 -21 -61 -97 -86 -146 -48
-307 25 -439 201 -96 127 -124 201 -110 295 9 54 28 66 59 38 39 -36 162 -103
188 -103 31 0 49 17 49 47 0 15 -14 32 -47 55 -58 40 -165 148 -206 207 -16
24 -44 78 -61 120 -29 73 -31 82 -31 221 0 130 2 150 23 193 32 68 88 125 152
156 140 66 337 7 438 -132 57 -80 72 -119 72 -195 0 -82 -20 -119 -85 -158
-86 -50 -182 -17 -274 94 -28 34 -58 62 -66 62 -18 0 -45 -39 -45 -65 0 -31
44 -117 80 -159 34 -38 88 -68 150 -84 34 -8 35 -10 38 -62 4 -64 24 -92 61
-88 21 2 28 10 35 43 4 22 13 56 20 75 10 31 16 35 46 35 l35 0 6 -60 c14
-139 86 -224 223 -266 136 -41 269 3 356 120 63 84 64 151 2 151 -18 0 -44
-19 -89 -65 -74 -75 -115 -91 -207 -81 -68 7 -86 20 -127 91 -33 58 -37 115
-14 183 38 108 85 171 175 232 67 46 179 100 206 100 30 0 84 38 84 58 0 20
-24 45 -51 55 -27 9 -159 -22 -220 -53 -31 -15 -82 -49 -114 -74 -31 -26 -64
-46 -73 -44 -12 2 -19 19 -25 56 -5 28 -26 84 -48 123 -21 40 -39 77 -39 83 0
15 85 86 102 86 8 0 19 5 24 10 6 6 43 19 83 30 98 28 131 45 131 72 0 72
-100 79 -241 18 -51 -22 -114 -58 -140 -80 -26 -22 -56 -40 -66 -40 -10 0 -50
16 -90 36 -40 21 -89 40 -109 43 -52 8 -63 30 -39 75 39 73 116 144 205 191
84 44 86 44 191 44 58 1 109 -3 115 -8z m-5591 -111 c20 -23 17 -24 -20 -10
-14 5 -23 14 -20 20 9 15 20 12 40 -10z m139 -372 c11 -41 7 -54 -9 -32 -16
21 -20 54 -6 54 5 0 11 -10 15 -22z m60 -466 c28 -41 32 -52 16 -52 -9 0 -60
72 -60 85 0 16 21 0 44 -33z m33 -496 c-4 -9 -11 -16 -17 -16 -11 0 -14 33 -3
44 11 10 26 -11 20 -28z m3351 -473 c6 -16 76 -127 118 -188 38 -56 110 -162
119 -177 5 -9 37 -60 70 -113 88 -141 88 -140 75 -179 -6 -19 -19 -41 -29 -50
-25 -22 -104 -46 -152 -46 -21 0 -56 -6 -76 -14 -21 -8 -63 -17 -93 -20 -30
-3 -64 -7 -75 -8 -25 -4 -32 31 -16 84 10 33 9 47 -11 100 -27 77 -80 130
-149 153 -28 10 -53 23 -55 30 -3 7 12 39 33 72 22 33 75 131 118 217 59 117
83 156 97 156 10 0 22 -8 26 -17z m-3318 -73 c0 -40 -4 -70 -10 -70 -6 0 -10
30 -10 70 0 40 4 70 10 70 6 0 10 -30 10 -70z m360 -77 c23 -43 59 -102 81
-130 22 -29 43 -61 47 -70 7 -17 55 -98 126 -211 29 -46 34 -64 39 -141 4 -49
14 -106 24 -129 19 -42 86 -101 146 -127 52 -23 83 -56 122 -128 34 -65 35
-70 21 -92 -13 -20 -16 -57 -16 -193 0 -180 5 -202 57 -265 22 -28 23 -35 23
-207 0 -98 -4 -181 -8 -184 -22 -13 -139 88 -242 210 -61 71 -110 133 -110
138 0 4 -13 25 -29 45 -15 20 -39 56 -52 80 -78 144 -129 248 -129 263 0 9 -4
20 -10 23 -5 3 -10 19 -10 34 0 15 -7 36 -15 47 -8 10 -15 27 -15 36 0 10 -11
50 -24 90 -14 40 -28 98 -32 128 -4 30 -12 64 -18 75 -6 11 -12 47 -13 80 -10
362 -17 698 -14 701 7 7 8 6 51 -73z m-216 -206 c-3 -9 -10 -17 -15 -17 -11 0
-12 34 -2 44 11 11 24 -9 17 -27z m4186 -115 c74 -6 166 -17 203 -26 38 -9 82
-16 98 -16 16 0 37 -4 47 -9 34 -17 88 -34 122 -38 38 -5 116 -39 126 -54 3
-5 23 -9 45 -9 21 0 39 -3 39 -7 0 -7 -12 -34 -52 -115 -4 -10 -8 -27 -8 -37
0 -28 -16 -35 -42 -17 -12 9 -36 16 -53 16 -17 0 -41 7 -53 16 -29 20 -186 74
-216 74 -13 0 -37 7 -52 15 -18 9 -57 15 -99 15 -46 1 -77 6 -89 15 -13 10
-44 15 -92 15 -51 0 -75 4 -84 15 -10 12 -36 15 -114 15 -64 0 -106 4 -114 12
-6 6 -33 12 -59 12 -63 1 -68 25 -17 84 l37 43 146 -4 c80 -3 207 -9 281 -15z
m-4890 -108 c60 -23 112 -62 108 -81 -2 -11 -39 -24 -118 -44 -113 -28 -129
-33 -200 -69 -103 -52 -164 -89 -205 -124 -49 -40 -148 -161 -177 -215 -22
-41 -42 -39 -73 6 -86 128 49 365 275 484 25 13 68 29 95 37 28 7 64 17 80 22
43 13 162 4 215 -16z m3564 -23 c56 -6 59 -8 83 -50 13 -24 23 -55 21 -69 l-3
-25 -165 -2 c-124 -1 -171 -5 -190 -15 -19 -11 -56 -14 -147 -13 -96 2 -124
-1 -133 -12 -9 -11 -34 -15 -86 -15 -50 0 -90 -6 -124 -20 -28 -11 -68 -20
-89 -20 -21 0 -41 -3 -45 -7 -9 -9 -135 -42 -163 -43 -18 0 -23 6 -23 24 0 14
-4 28 -10 31 -5 3 -10 17 -10 31 0 13 -6 33 -12 45 -11 17 -10 22 6 35 11 8
34 14 50 14 17 0 43 7 58 14 16 8 48 18 73 22 25 3 48 10 51 15 3 5 20 9 37 9
18 1 43 7 57 15 33 19 64 19 80 0 10 -12 16 -13 39 -1 58 30 488 55 645 37z
m-2824 -132 c0 -22 -13 -25 -29 -6 -8 10 -7 17 1 25 15 15 28 6 28 -19z m5054
0 c39 -31 36 -85 -9 -155 -19 -30 -41 -57 -49 -60 -8 -3 -34 -32 -57 -65 -24
-32 -47 -59 -51 -59 -4 0 -38 -42 -77 -92 -38 -51 -84 -109 -100 -128 -17 -19
-43 -50 -57 -67 -24 -31 -57 -43 -68 -25 -3 5 13 26 34 47 22 22 40 43 40 48
0 6 10 20 23 32 30 31 57 66 67 90 4 11 29 44 53 73 82 95 87 104 94 191 4 49
11 85 19 92 8 6 14 16 14 22 0 13 71 76 86 77 6 0 23 -9 38 -21z m-1167 -20
c15 -6 75 -13 133 -16 58 -2 114 -8 125 -13 11 -4 45 -13 75 -19 122 -25 145
-32 154 -41 6 -6 19 -10 30 -10 12 0 57 -11 101 -24 44 -14 107 -34 139 -43
71 -22 91 -46 60 -71 -12 -9 -29 -30 -37 -47 -9 -16 -35 -53 -59 -82 -52 -63
-109 -138 -125 -165 -6 -12 -37 -51 -68 -89 -42 -50 -64 -69 -82 -69 -13 0
-40 -7 -60 -15 -19 -8 -56 -15 -82 -15 -25 0 -59 -7 -75 -15 -15 -8 -48 -15
-72 -15 -25 0 -61 -7 -81 -15 -19 -8 -47 -15 -62 -15 -27 0 -27 0 -23 68 3 57
0 72 -20 102 -38 57 -86 75 -203 75 -115 0 -149 -14 -210 -89 -28 -34 -35 -52
-35 -85 0 -22 -4 -41 -8 -41 -13 0 -39 32 -46 57 -4 12 -17 37 -30 56 -13 19
-27 53 -31 76 -6 38 -3 47 48 124 29 45 74 115 98 155 24 40 51 84 59 97 8 12
30 49 49 81 19 33 45 71 59 87 25 26 28 27 138 27 62 0 125 -5 141 -11z
m-2294 -102 c32 -50 35 -60 38 -145 4 -83 6 -93 32 -119 15 -16 27 -34 27 -41
0 -6 13 -26 29 -44 16 -18 37 -47 47 -64 42 -68 93 -141 108 -153 9 -7 16 -20
16 -28 0 -8 21 -41 46 -74 25 -33 43 -63 40 -66 -13 -13 -82 56 -116 115 -19
33 -56 88 -82 122 -27 33 -48 64 -48 68 0 5 -11 19 -25 32 -14 13 -25 27 -25
31 0 5 -37 63 -82 129 -142 208 -145 216 -107 264 33 42 61 34 102 -27z
m-1956 18 c150 -44 266 -125 348 -240 101 -141 138 -321 99 -477 -16 -64 -55
-128 -78 -128 -11 0 -26 54 -51 175 -2 11 -18 34 -34 49 -27 26 -34 28 -56 18
-22 -10 -25 -18 -25 -61 0 -27 7 -65 15 -84 52 -126 -34 -324 -162 -370 -37
-13 -56 -15 -75 -8 -25 9 -26 13 -30 105 -3 84 -6 97 -27 120 -26 28 -65 34
-78 14 -4 -7 -8 -59 -8 -114 -1 -93 -3 -105 -28 -142 -70 -107 -213 -65 -258
77 -13 41 -36 71 -54 71 -7 0 -20 -10 -31 -21 -15 -16 -19 -36 -19 -88 0 -59
-2 -66 -21 -69 -11 -2 -47 7 -80 19 -104 39 -192 155 -244 321 -15 49 -20 92
-20 188 0 113 3 133 29 207 43 121 94 196 186 275 113 97 257 160 405 178 86
11 235 3 297 -15z m3295 -82 c8 -10 23 -36 34 -58 11 -22 34 -67 51 -100 17
-33 79 -157 138 -275 58 -118 117 -232 131 -253 18 -27 21 -39 12 -41 -59 -18
-111 -28 -153 -29 -48 -2 -50 -1 -53 27 -5 39 -44 99 -86 131 -64 49 -108 65
-191 71 -70 5 -85 2 -125 -18 -54 -28 -70 -56 -70 -125 0 -63 13 -99 47 -135
15 -15 25 -29 22 -31 -36 -26 -67 -36 -145 -42 -81 -6 -95 -5 -130 14 -21 12
-43 21 -48 21 -16 0 -136 60 -136 68 0 5 -28 47 -62 94 -35 48 -81 115 -103
149 -64 99 -87 132 -139 200 -26 35 -51 71 -54 79 -3 8 -20 37 -39 63 -41 58
-37 77 12 77 20 0 51 6 70 14 19 8 56 18 82 21 26 4 57 10 68 15 11 5 54 15
95 23 41 9 102 21 135 28 73 15 244 25 461 27 142 2 163 0 176 -15z m2553
-498 c0 -5 -15 -11 -33 -13 -37 -4 -58 -38 -47 -79 4 -18 0 -24 -20 -29 -36
-9 -54 1 -60 33 -4 15 -10 35 -15 45 -13 23 25 46 86 51 69 5 89 4 89 -8z
m-240 -45 c9 -14 -40 -34 -62 -26 -17 7 -17 8 1 22 23 16 52 18 61 4z m-96
-12 c0 -7 -14 -24 -32 -38 -28 -22 -41 -25 -114 -25 -48 0 -83 4 -83 10 -1 11
96 34 146 35 17 0 37 7 44 15 15 18 40 20 39 3z m339 -39 c-3 -50 -4 -51 -43
-65 -47 -16 -95 -18 -95 -4 0 6 15 10 34 10 27 0 38 7 60 38 14 21 26 46 26
55 0 9 5 17 11 17 6 0 9 -20 7 -51z m-618 -17 c0 -5 -39 -17 -86 -28 -47 -10
-86 -23 -87 -29 -1 -6 26 -11 61 -13 72 -3 82 -17 17 -25 -53 -5 -66 -14 -45
-28 9 -6 50 -7 103 -4 74 6 87 4 87 -9 0 -23 -37 -31 -147 -31 -90 0 -104 -2
-125 -22 -27 -25 -69 -43 -102 -43 -13 0 -29 -7 -36 -15 -20 -24 -59 -19 -70
9 -5 13 -18 27 -30 31 -15 5 -19 12 -15 25 3 10 1 21 -5 25 -19 12 -10 24 25
31 40 7 47 24 10 24 -14 0 -25 4 -25 9 0 11 10 14 90 31 30 6 73 16 95 21 22
6 69 15 105 21 36 6 69 14 75 19 11 11 105 12 105 1z m-1413 -34 c25 -24 31
-58 10 -58 -17 0 -43 28 -51 58 -9 29 10 29 41 0z m1857 13 c7 -11 -49 -25
-64 -16 -5 3 -10 10 -10 16 0 12 67 12 74 0z m-56 -36 c59 -8 67 -20 20 -30
-18 -4 -48 -13 -66 -21 -35 -16 -66 -16 -64 1 1 6 10 11 22 13 11 2 20 7 20
12 0 12 -28 20 -73 20 -83 0 -117 -23 -52 -36 19 -3 35 -9 35 -13 0 -9 -75
-31 -106 -31 -20 0 -24 4 -19 19 8 26 -15 41 -74 48 -34 4 -51 10 -51 20 0 12
30 13 178 9 97 -2 201 -7 230 -11z m-3649 -14 c29 -23 21 -40 -16 -33 -34 6
-53 20 -53 38 0 20 41 17 69 -5z m-233 -57 c14 -30 24 -64 21 -75 -3 -12 0
-19 9 -19 18 0 18 -9 -3 -32 -24 -26 -38 -23 -72 19 -24 29 -31 47 -31 81 0
49 14 82 35 82 8 0 26 -25 41 -56z m342 7 c29 -15 86 -39 105 -45 25 -8 12
-26 -18 -26 -26 0 -115 55 -115 71 0 11 6 11 28 0z m2612 0 c0 -16 -20 -23
-46 -17 -36 9 -29 26 11 26 19 0 35 -4 35 -9z m-2656 -20 c23 -26 30 -61 12
-61 -16 0 -56 46 -56 65 0 17 27 14 44 -4z m2524 -15 c-19 -19 -49 -41 -66
-50 -47 -24 -39 -36 24 -36 42 0 60 -4 69 -17 13 -17 14 -17 32 0 15 12 37 17
86 17 37 0 67 -3 67 -7 0 -13 -139 -41 -209 -43 -35 -1 -73 -7 -85 -15 -12 -7
-45 -16 -75 -19 -30 -4 -60 -10 -65 -14 -18 -11 -99 -31 -131 -32 -16 0 -39
-7 -49 -15 -12 -9 -42 -15 -73 -15 -51 0 -69 12 -38 24 20 7 19 42 -1 50 -35
13 -124 3 -124 -15 0 -5 13 -9 29 -9 34 0 51 -18 30 -31 -8 -5 -31 -9 -51 -9
-27 0 -40 -6 -48 -20 -7 -14 -21 -20 -44 -20 -19 0 -39 -7 -46 -15 -16 -19
-63 -19 -101 0 -29 15 -31 35 -4 35 7 0 35 10 62 21 26 12 73 27 103 33 42 9
54 15 52 28 -4 26 102 37 141 14 16 -9 37 -16 47 -16 10 0 20 -9 23 -20 7 -26
33 -26 40 0 4 15 13 20 39 19 55 -2 137 13 149 27 6 8 28 14 48 14 34 0 61 14
61 31 0 3 -18 9 -40 13 -22 3 -40 10 -40 15 0 13 43 39 70 43 31 4 38 28 11
35 -12 3 -21 9 -21 14 0 12 27 11 35 -1 9 -15 58 -12 81 5 37 28 47 15 12 -19z
m-2598 -21 c0 -28 -12 -32 -30 -10 -14 16 -6 35 16 35 8 0 14 -10 14 -25z
m2420 14 c0 -15 -42 -48 -62 -49 -9 0 -20 5 -23 10 -3 6 -22 10 -41 10 -35 0
-46 13 -18 24 9 3 29 -2 45 -11 28 -16 30 -16 56 4 32 25 43 28 43 12z m245
-9 c3 -5 15 -10 25 -10 25 0 35 -19 14 -27 -10 -4 -22 0 -29 10 -7 10 -17 17
-24 17 -6 0 -11 5 -11 10 0 6 4 10 9 10 6 0 13 -4 16 -10z m-485 -37 c0 -5
-24 -23 -53 -42 -50 -32 -54 -33 -125 -27 -54 5 -80 3 -105 -8 -18 -9 -67 -17
-115 -18 -84 -3 -117 -21 -49 -26 42 -4 47 -25 6 -30 -13 -2 -32 -11 -41 -19
-10 -9 -25 -12 -37 -8 -24 7 -28 25 -7 25 24 0 29 20 11 40 -9 10 -14 23 -11
28 3 5 49 12 101 14 53 3 101 10 108 17 6 6 33 11 59 11 49 0 165 27 183 42
11 10 75 11 75 1z m-1875 -18 c0 -5 -10 -11 -22 -13 -16 -2 -23 2 -23 13 0 11
7 15 23 13 12 -2 22 -7 22 -13z m1995 0 c0 -10 -10 -15 -30 -15 -47 0 -35 27
13 29 9 1 17 -6 17 -14z m-2125 -14 c0 -23 -23 -24 -35 -1 -10 19 -9 21 12 18
13 -2 23 -9 23 -17z m-135 -43 c0 -13 -27 -9 -40 7 -19 23 -1 39 21 19 10 -9
19 -21 19 -26z m2176 27 c16 -8 37 -15 47 -15 36 0 15 -19 -28 -26 -50 -7 -75
5 -75 37 0 23 18 24 56 4z m169 -5 c0 -15 -61 -38 -72 -27 -3 4 2 16 12 27 21
23 60 23 60 0z m-1944 -11 c16 -11 29 -25 29 -30 0 -24 -109 20 -110 44 0 15
53 6 81 -14z m-126 -24 c21 -18 27 -27 19 -35 -8 -8 -22 -5 -50 10 -50 28 -51
29 -34 40 22 14 32 12 65 -15z m243 -27 c16 -16 15 -28 -1 -28 -18 0 -67 24
-67 33 0 12 55 8 68 -5z m1017 -7 c-3 -11 -1 -22 5 -26 5 -3 10 -15 10 -26 0
-12 10 -23 25 -29 38 -14 30 -30 -14 -30 -32 0 -44 6 -65 31 -29 34 -30 37
-16 73 7 19 17 26 35 26 21 0 25 -4 20 -19z m-1357 -9 c3 -10 -5 -13 -29 -10
-18 2 -34 9 -37 16 -3 10 5 13 29 10 18 -2 34 -9 37 -16z m3213 -7 c0 -13 -41
-19 -41 -7 0 11 20 22 33 18 5 -1 8 -6 8 -11z m-1971 -14 c0 -13 -22 -27 -51
-35 -15 -3 -29 -15 -32 -26 -6 -25 -58 -28 -77 -4 -11 12 -10 18 4 32 24 24
156 52 156 33z m-1157 -23 c26 -13 36 -28 17 -28 -16 0 -60 23 -60 32 0 11 11
10 43 -4z m277 -33 c0 -9 -7 -18 -16 -22 -18 -7 -39 11 -30 26 11 17 46 13 46
-4z m-178 -9 c18 -8 42 -17 52 -21 14 -4 16 -9 9 -16 -8 -8 -24 -5 -57 12 -25
12 -46 26 -46 31 0 11 4 10 42 -6z m-455 -36 c43 -25 54 -40 29 -40 -18 0 -78
42 -84 59 -5 16 -1 14 55 -19z m1363 6 c0 -2 3 -12 7 -21 5 -15 3 -16 -15 -6
-11 6 -32 11 -46 11 -14 0 -26 5 -26 10 0 6 18 10 40 10 22 0 40 -2 40 -4z
m293 -13 c74 -5 87 -17 30 -27 -62 -10 -100 -7 -113 9 -7 8 -23 15 -36 15 -13
0 -24 5 -24 11 0 7 13 9 38 4 20 -3 67 -9 105 -12z m-373 -23 c11 -11 20 -23
20 -27 0 -13 -143 -9 -147 3 -4 13 24 27 37 19 4 -3 21 2 36 10 36 18 30 19
54 -5z m1453 5 c1 -5 -18 -11 -43 -13 -42 -2 -44 -1 -25 13 21 17 64 17 68 0z
m-2051 -32 c23 -21 23 -33 0 -33 -21 0 -56 33 -45 43 11 11 25 8 45 -10z m878
10 c0 -5 -19 -16 -43 -25 -46 -20 -117 -24 -117 -8 0 6 8 10 19 10 10 0 24 7
31 15 13 15 110 22 110 8z m1020 -12 c0 -9 -33 -21 -57 -21 -7 0 -13 7 -13 15
0 10 11 15 35 15 19 0 35 -4 35 -9z m-170 -31 c0 -5 -16 -10 -35 -10 -19 0
-35 5 -35 10 0 6 16 10 35 10 19 0 35 -4 35 -10z m-1217 -6 c49 -9 47 -24 -3
-24 -23 0 -55 -7 -71 -16 -32 -16 -95 -16 -92 1 1 6 25 17 55 27 64 19 63 19
111 12z m125 -12 c2 -7 -7 -12 -22 -12 -27 0 -35 15 -13 23 17 7 30 3 35 -11z
m-323 -30 c0 -31 -19 -28 -23 4 -3 18 0 25 10 22 7 -3 13 -14 13 -26z m1255
18 c0 -5 -18 -10 -40 -10 -22 0 -40 5 -40 10 0 6 18 10 40 10 22 0 40 -4 40
-10z m-232 -31 c-6 -17 -56 -44 -65 -35 -10 9 33 46 54 46 8 0 13 -5 11 -11z
m-2792 -50 c81 -43 84 -46 84 -93 0 -23 10 -61 23 -86 21 -43 29 -49 187 -126
330 -163 559 -274 566 -274 3 0 28 -16 54 -35 90 -66 311 -402 425 -645 27
-58 55 -112 62 -121 7 -8 13 -25 13 -37 0 -11 5 -24 10 -27 18 -11 10 -65 -17
-118 -25 -48 -27 -61 -27 -177 0 -122 1 -126 33 -185 32 -59 123 -155 148
-155 20 0 35 -39 44 -118 5 -41 16 -94 25 -119 22 -58 12 -70 -48 -55 -24 6
-79 19 -123 28 -44 9 -87 19 -95 22 -8 3 -44 11 -80 18 -36 6 -92 17 -125 24
-33 6 -94 18 -135 25 -41 7 -104 19 -140 26 -36 6 -85 15 -110 20 -25 4 -85
16 -135 25 -49 9 -117 20 -150 25 -33 4 -107 15 -165 23 -58 9 -141 20 -185
26 -44 5 -116 15 -160 21 -87 13 -145 20 -305 38 -58 7 -127 16 -155 22 -27 5
-113 14 -190 19 -77 6 -183 14 -236 20 -53 5 -156 10 -229 12 -94 2 -134 6
-137 15 -3 7 3 34 13 60 15 37 19 75 19 170 l-1 121 -42 84 c-69 139 -193 255
-337 316 -27 11 -50 26 -50 33 0 8 22 18 55 24 30 5 74 20 96 32 39 21 110 95
146 153 12 20 30 28 79 38 197 39 240 49 349 84 35 11 198 87 235 110 105 65
141 93 214 163 162 155 281 330 394 583 14 30 33 28 103 -9z m-2173 -65 c79
-24 181 -77 185 -97 2 -10 -16 -38 -46 -67 -42 -44 -63 -79 -135 -225 -6 -11
-12 -83 -15 -160 -5 -165 8 -235 64 -326 35 -58 158 -178 182 -179 6 0 12 -4
12 -10 0 -6 -44 -10 -112 -10 -111 0 -135 -4 -253 -47 -130 -47 -172 -91 -127
-135 23 -24 13 -25 192 22 106 28 277 27 391 -1 156 -40 259 -100 349 -206 81
-95 106 -223 67 -339 -29 -83 -150 -195 -252 -231 -160 -57 -469 -57 -670 1
-47 13 -71 23 -200 81 -129 58 -244 172 -307 306 -78 163 -92 248 -84 515 4
133 10 205 21 235 8 24 15 52 15 61 0 20 39 160 75 267 30 88 112 251 166 331
65 95 159 174 254 213 52 21 162 21 228 1z m3565 -1 c2 -8 -5 -13 -17 -13 -12
0 -21 6 -21 16 0 18 31 15 38 -3z m835 0 c4 -3 2 -12 -4 -20 -13 -15 -99 -18
-99 -3 0 6 10 10 23 10 12 0 29 5 37 10 18 11 34 13 43 3z m-778 -25 c32 -14
35 -42 3 -32 -28 8 -48 23 -48 35 0 12 14 11 45 -3z m-1072 -32 c9 -7 17 -16
17 -20 0 -11 -35 -7 -48 6 -27 27 -2 39 31 14z m-1975 -131 c54 -26 72 -39 72
-54 0 -14 -9 -23 -27 -27 -43 -10 -104 -48 -144 -91 -52 -55 -79 -135 -79
-236 0 -74 3 -88 28 -128 34 -53 75 -89 136 -119 25 -12 46 -26 46 -31 0 -16
-52 -59 -71 -59 -10 0 -21 -4 -24 -10 -10 -16 -103 -12 -161 7 -90 28 -143 76
-191 173 -41 81 -43 89 -43 175 1 99 16 158 64 239 60 103 118 147 246 189 37
13 81 4 148 -28z m5542 -34 c0 -5 -19 -11 -42 -14 -24 -2 -53 -8 -65 -12 -13
-4 -23 -3 -23 2 0 6 10 15 23 21 27 13 107 15 107 3z m-1130 -231 c0 -5 -13
-10 -30 -10 -16 0 -30 5 -30 10 0 6 14 10 30 10 17 0 30 -4 30 -10z m-290 -60
c0 -12 -40 -33 -48 -25 -4 4 2 13 12 21 23 16 36 18 36 4z m-940 -146 c0 -9
-7 -14 -17 -12 -25 5 -28 28 -4 28 12 0 21 -6 21 -16z m1651 -134 c81 -15 157
-58 224 -125 67 -68 131 -170 113 -181 -6 -4 -39 -8 -72 -9 -119 -5 -262 -66
-401 -170 -77 -59 -181 -162 -361 -360 -323 -355 -558 -568 -767 -695 -84 -51
-109 -50 -153 7 -64 84 -101 271 -74 373 20 73 23 129 10 145 -22 26 -59 18
-93 -20 -17 -19 -37 -35 -44 -35 -19 0 -77 96 -93 154 -16 58 -5 113 44 221
54 118 194 243 329 293 44 16 81 22 146 22 86 0 88 -1 129 -36 23 -19 42 -42
42 -50 0 -9 -23 -58 -51 -109 -42 -79 -50 -101 -47 -137 3 -41 5 -43 37 -46
39 -4 41 -1 116 108 25 36 53 76 62 90 10 14 47 62 83 107 36 45 76 97 90 116
35 46 216 214 265 245 73 48 171 88 230 95 64 8 185 7 236 -3z m301 -460 c55
-16 78 -51 78 -119 -1 -160 -86 -325 -272 -530 -62 -68 -126 -133 -143 -144
-16 -12 -54 -41 -84 -65 -80 -65 -263 -181 -351 -223 -19 -9 -66 -31 -105 -49
-38 -18 -92 -42 -120 -55 -46 -21 -72 -29 -195 -56 -65 -14 -282 -14 -308 0
-31 16 -20 32 63 87 189 127 554 461 704 644 81 100 308 325 386 384 81 62
189 115 254 126 26 4 48 8 51 9 3 0 22 -4 42 -9z"/>
<path d="M5911 15590 c-74 -32 -141 -123 -141 -193 0 -31 4 -39 25 -47 28 -11
70 -5 132 17 48 18 169 13 243 -9 52 -15 135 -65 170 -103 33 -35 91 -35 114
0 19 29 20 43 4 97 -18 59 -128 168 -210 209 -58 29 -72 32 -188 35 -71 2
-135 0 -149 -6z"/>
<path d="M4506 15457 c-148 -52 -264 -271 -195 -368 16 -23 28 -29 56 -29 31
0 44 8 97 66 109 119 254 159 408 114 46 -13 48 -13 73 10 20 19 25 33 25 75
0 45 -4 55 -32 81 -57 53 -133 74 -261 73 -86 -1 -126 -6 -171 -22z"/>
<path d="M5935 15141 c-22 -11 -45 -20 -51 -21 -20 0 -165 -162 -184 -205 -29
-63 -48 -143 -56 -235 -9 -96 -8 -121 5 -275 12 -137 29 -197 85 -307 l45 -87
-27 -19 c-15 -11 -37 -22 -48 -26 -59 -18 -78 -94 -33 -128 26 -20 29 -20 77
-4 28 10 63 26 77 38 14 11 43 25 63 30 58 16 153 21 165 9 6 -6 20 -11 32
-11 13 0 39 -21 68 -54 43 -50 47 -59 47 -106 0 -46 -5 -57 -42 -101 -78 -92
-165 -127 -340 -136 -104 -5 -131 -9 -144 -24 -25 -28 -14 -69 26 -91 31 -18
50 -19 171 -15 126 5 140 7 200 36 101 49 130 68 177 113 56 55 80 102 88 175
6 53 11 63 59 113 56 58 135 166 135 184 0 6 7 23 14 39 32 60 49 154 53 292
7 218 -19 352 -103 524 -50 102 -66 125 -137 194 -44 42 -91 80 -106 84 -14 3
-32 11 -40 17 -8 6 -63 12 -125 14 -94 2 -117 -1 -151 -17z m251 -136 c142
-71 242 -244 276 -480 15 -104 5 -357 -16 -386 -9 -13 -16 -33 -16 -45 0 -53
-96 -184 -135 -184 -11 0 -38 18 -59 39 -21 21 -56 47 -77 56 -21 10 -39 23
-39 28 0 6 9 29 20 52 94 193 9 522 -152 589 -49 21 -76 20 -116 -4 -33 -21
-102 -117 -102 -145 0 -8 -4 -15 -10 -15 -17 0 -11 128 11 212 36 142 84 215
184 282 56 37 158 37 231 1z"/>
<path d="M3627 15119 c-85 -13 -186 -103 -208 -183 -7 -25 -9 -85 -6 -151 6
-136 28 -190 117 -293 68 -78 108 -107 185 -134 54 -19 170 -24 180 -8 3 6 16
10 28 10 42 0 91 45 130 118 34 66 37 76 37 156 0 97 -11 153 -49 245 -30 72
-114 164 -188 206 -41 23 -64 28 -153 39 -14 2 -47 -1 -73 -5z"/>
<path d="M4790 15054 c-14 -7 -39 -14 -57 -14 -17 0 -35 -5 -38 -10 -4 -6 -21
-16 -38 -24 -18 -8 -55 -38 -83 -67 -141 -147 -204 -389 -175 -672 7 -67 16
-126 20 -132 5 -5 11 -21 14 -35 31 -139 150 -331 260 -418 107 -84 278 -126
353 -87 16 8 39 15 52 15 29 0 123 59 162 102 27 30 82 131 101 183 3 11 15
40 25 64 16 38 18 72 17 275 l0 231 -33 95 c-51 150 -70 193 -123 273 -72 109
-189 207 -245 207 -11 0 -36 7 -55 15 -44 18 -123 18 -157 -1z m135 -128 c46
-12 104 -43 145 -78 22 -19 82 -104 117 -168 74 -135 110 -357 92 -574 -13
-147 -49 -237 -127 -315 -60 -60 -109 -83 -178 -83 -52 -1 -144 21 -144 33 0
9 27 19 49 19 30 0 100 82 123 145 18 50 21 82 22 195 0 164 -20 255 -74 338
-60 91 -103 130 -155 137 -127 20 -199 -46 -231 -209 -10 -47 -21 -86 -26 -86
-15 0 -9 252 7 311 50 176 47 169 120 244 95 98 156 119 260 91z"/>
<path d="M4373 13651 c-118 -65 -170 -128 -154 -188 6 -22 14 -29 40 -31 21
-2 40 3 52 14 12 11 23 14 29 8 5 -5 11 -83 13 -174 4 -160 18 -284 37 -325 5
-11 17 -45 28 -75 28 -78 105 -204 169 -278 54 -61 162 -152 181 -152 5 0 20
-8 33 -19 76 -59 285 -97 429 -79 219 27 422 163 564 378 59 89 75 125 106
243 15 55 37 71 115 80 68 7 103 25 121 59 16 31 7 61 -22 72 -31 12 -159 6
-188 -9 -23 -12 -74 -15 -260 -15 -145 0 -236 4 -242 10 -6 6 -35 13 -65 16
-30 3 -76 11 -104 19 -204 54 -326 96 -415 143 -212 110 -220 114 -303 184
l-32 26 23 24 c24 27 28 49 12 79 -17 31 -102 26 -167 -10z"/>
<path d="M6185 12618 c-91 -33 -192 -138 -225 -234 -30 -90 -30 -192 0 -234
51 -72 144 -67 254 14 89 66 157 169 182 278 11 48 11 62 0 90 -18 42 -45 66
-93 84 -45 16 -77 16 -118 2z"/>
<path d="M7835 11861 c-3 -5 -2 -12 3 -15 12 -7 52 4 52 15 0 12 -47 12 -55 0z"/>
<path d="M7315 11541 c-23 -10 -59 -39 -82 -65 -36 -40 -42 -54 -48 -110 -4
-45 -2 -73 8 -97 23 -55 39 -63 146 -67 89 -4 102 -2 147 21 91 47 124 100
124 202 0 63 -16 93 -60 116 -48 26 -179 26 -235 0z"/>
<path d="M7865 11423 c-16 -9 -51 -31 -77 -51 -40 -30 -50 -45 -68 -103 -28
-85 -21 -134 21 -175 28 -27 37 -29 119 -32 71 -3 96 0 133 16 103 46 173 145
165 234 -4 40 -12 56 -44 89 l-38 39 -91 -1 c-59 -1 -100 -6 -120 -16z"/>
<path d="M6258 11396 c-15 -6 -41 -25 -58 -41 -27 -26 -30 -35 -30 -89 1 -95
49 -159 161 -211 60 -28 167 -34 214 -13 56 25 83 144 49 211 -26 50 -74 107
-91 107 -8 0 -29 11 -47 25 -28 21 -43 25 -102 24 -38 0 -81 -6 -96 -13z"/>
<path d="M5707 11309 c-79 -41 -100 -135 -52 -226 35 -65 60 -89 119 -117 96
-44 140 -50 211 -26 74 25 90 40 106 102 12 44 11 50 -13 100 -73 147 -254
229 -371 167z"/>
<path d="M8201 10757 c-33 -17 -23 -33 19 -28 43 4 73 19 65 32 -9 13 -55 11
-84 -4z"/>
<path d="M8063 10664 c-8 -21 10 -36 38 -32 32 4 34 22 4 36 -33 15 -34 15
-42 -4z"/>
</g>
</svg>
