<?xml version="1.0" standalone="no"?>
<!DOCTYPE svg PUBLIC "-//W3C//DTD SVG 20010904//EN"
 "http://www.w3.org/TR/2001/REC-SVG-20010904/DTD/svg10.dtd">
<svg version="1.0" xmlns="http://www.w3.org/2000/svg"
 width="1000.000000pt" height="2000.000000pt" viewBox="0 0 1000.000000 2000.000000"
 preserveAspectRatio="xMidYMid meet">
<metadata>
Created by potrace 1.16, written by Peter Selinger 2001-2019
</metadata>
<g transform="translate(0.000000,2000.000000) scale(0.100000,-0.100000)"
fill="#000000" stroke="none">
<path d="M4761 17020 c-128 -10 -268 -23 -310 -28 -42 -6 -114 -16 -161 -22
-104 -15 -159 -24 -270 -45 -47 -10 -119 -23 -160 -30 -237 -42 -410 -81 -620
-141 -30 -9 -80 -22 -110 -29 -91 -21 -160 -41 -255 -75 -49 -17 -141 -47
-204 -66 -105 -33 -181 -59 -241 -85 -14 -6 -38 -17 -55 -24 -16 -7 -59 -23
-95 -36 -253 -89 -412 -214 -498 -390 -66 -136 -77 -184 -75 -344 1 -125 4
-149 28 -219 52 -150 94 -223 182 -316 69 -71 200 -152 294 -180 55 -17 73
-28 101 -63 34 -42 79 -109 91 -137 4 -8 20 -35 36 -60 83 -128 112 -185 103
-200 -6 -10 -32 -17 -73 -21 -190 -18 -294 -31 -316 -40 -13 -5 -57 -9 -96 -9
-40 -1 -92 -5 -117 -10 -25 -6 -101 -15 -170 -20 -240 -19 -320 -44 -416 -131
-100 -89 -148 -181 -165 -312 -5 -38 -12 -74 -16 -80 -4 -7 -18 -77 -30 -157
-12 -80 -29 -190 -38 -245 -26 -165 -45 -294 -58 -400 -7 -55 -16 -106 -21
-114 -5 -7 -12 -43 -17 -80 -5 -36 -20 -142 -34 -236 -88 -589 -97 -716 -59
-833 19 -58 72 -140 116 -178 32 -28 784 -408 1008 -510 47 -21 102 -52 124
-69 38 -30 38 -30 30 -80 -15 -98 -8 -254 18 -350 53 -202 118 -301 257 -392
30 -20 77 -42 105 -49 63 -17 166 -18 200 -2 21 9 33 8 63 -5 92 -40 195 -34
269 16 44 29 53 31 121 28 85 -3 158 20 230 71 41 30 101 102 115 139 3 9 28
26 55 38 26 13 58 32 70 43 14 13 28 18 42 13 24 -7 61 -64 61 -94 0 -32 -74
-181 -142 -286 -41 -66 -197 -201 -274 -239 -97 -48 -211 -85 -269 -88 -46 -3
-50 -1 -71 32 -62 95 -93 132 -134 159 -67 43 -112 53 -225 53 -95 0 -106 2
-137 25 -181 136 -308 180 -496 170 -83 -5 -101 -10 -178 -47 -70 -34 -102
-58 -173 -128 -103 -103 -166 -201 -247 -385 -60 -136 -106 -288 -120 -398 -4
-30 -11 -59 -16 -65 -17 -23 -30 -241 -25 -419 5 -146 10 -191 27 -237 11 -32
20 -67 20 -78 0 -11 4 -28 9 -38 5 -9 22 -44 37 -77 49 -106 133 -210 219
-272 21 -14 27 -24 20 -32 -6 -5 -57 -16 -115 -24 -58 -7 -118 -20 -134 -28
-39 -19 -54 -44 -40 -66 13 -21 91 -62 119 -62 12 -1 46 -8 77 -16 61 -16 155
-27 408 -50 91 -8 217 -19 280 -25 63 -5 127 -12 141 -15 14 -3 77 -10 140
-15 63 -5 152 -14 199 -19 47 -6 155 -17 240 -26 85 -8 198 -20 250 -25 52 -6
136 -15 185 -20 50 -5 144 -17 210 -26 66 -8 158 -19 205 -24 47 -5 108 -13
135 -19 28 -5 140 -19 250 -31 110 -11 250 -27 310 -35 61 -8 166 -19 235 -25
69 -6 152 -15 184 -21 32 -6 105 -14 162 -19 56 -4 107 -11 113 -14 6 -4 61
-11 123 -16 62 -5 228 -18 368 -30 140 -11 311 -25 380 -30 747 -60 1414 -59
1585 1 76 27 55 72 -50 107 -59 20 -85 26 -274 61 -52 9 -96 22 -99 29 -2 7 1
12 7 12 19 0 262 151 361 224 179 133 392 364 469 510 17 33 35 64 40 70 6 6
22 43 36 81 23 61 28 90 32 218 7 181 -4 241 -63 365 -37 79 -59 108 -132 183
-75 75 -102 95 -178 131 -94 44 -136 55 -249 64 -110 9 -271 -25 -366 -77 -15
-8 -48 -26 -75 -40 -68 -37 -208 -167 -299 -276 -76 -92 -108 -112 -122 -78
-3 9 -35 30 -72 47 -53 25 -84 32 -156 37 l-89 6 -27 40 c-43 63 -72 126 -63
135 12 12 248 59 330 67 35 3 69 12 75 19 6 8 28 14 48 14 38 0 165 27 193 41
10 5 30 9 45 9 16 0 44 5 63 11 32 10 75 18 267 52 39 6 75 15 79 20 4 4 19 7
33 7 14 0 70 11 126 24 134 32 268 60 390 81 55 9 123 23 150 30 71 20 190 45
209 45 9 0 24 4 34 9 9 5 46 14 82 20 36 6 99 17 140 25 41 7 104 19 140 26
36 6 74 15 85 20 11 5 43 12 70 15 80 11 208 46 229 64 30 26 44 62 51 136 4
39 12 90 17 115 6 25 14 74 18 110 4 36 12 99 18 140 6 41 17 114 23 162 9 72
16 94 40 125 16 20 32 46 35 59 3 12 4 101 2 197 -4 232 9 217 -270 313 -90
31 -174 58 -188 61 -14 3 -37 14 -52 25 l-27 19 50 62 c64 78 79 112 79 181 0
69 -11 97 -61 157 -39 47 -71 66 -204 123 -22 10 -49 22 -60 27 -63 29 -301
92 -525 139 -30 6 -147 20 -260 31 l-205 21 -27 31 c-15 18 -35 47 -45 64 -26
48 -12 55 83 43 157 -21 333 1 516 64 l77 27 43 -19 c99 -44 115 -47 208 -47
96 0 108 3 209 53 18 9 68 54 109 100 l76 82 57 0 c54 0 135 22 209 57 128 59
303 215 385 342 42 65 105 189 105 207 0 5 7 22 15 37 44 85 61 347 31 497
-19 94 -69 220 -127 320 -102 173 -301 352 -491 440 -96 45 -247 80 -342 80
-92 0 -212 -30 -266 -66 -19 -13 -39 -24 -44 -24 -5 0 -38 -25 -73 -56 -89
-79 -183 -221 -183 -278 0 -22 -12 -31 -84 -64 -53 -25 -99 -56 -126 -83 -47
-49 -110 -142 -110 -163 0 -7 -7 -31 -16 -52 -12 -29 -16 -71 -16 -169 0 -154
21 -247 76 -343 37 -66 43 -90 26 -120 -26 -48 -40 -92 -42 -137 -3 -44 -6
-52 -32 -64 -47 -22 -189 -18 -266 8 -71 24 -163 80 -250 149 -72 57 -186 167
-206 197 -17 26 -19 6 30 290 8 44 20 118 26 165 7 47 18 115 26 152 8 37 14
86 14 110 0 24 5 59 10 78 6 19 15 94 20 165 5 72 14 171 20 220 6 50 13 348
15 664 3 315 8 578 11 582 3 5 26 20 52 33 51 26 132 92 180 147 37 42 110
174 134 244 23 63 34 239 20 325 -36 230 -258 462 -492 514 -41 10 -91 21
-110 26 -19 5 -75 17 -125 25 -49 9 -121 23 -159 31 -38 7 -89 14 -115 14 -25
1 -66 5 -91 10 -212 45 -1282 64 -1719 30z m1029 -171 c401 -19 536 -28 570
-39 19 -6 91 -14 160 -17 69 -3 130 -9 135 -14 6 -4 39 -11 75 -15 36 -3 74
-11 84 -17 11 -5 45 -13 75 -18 87 -12 154 -28 165 -39 6 -6 22 -10 37 -10 31
0 82 -29 140 -79 47 -41 129 -155 129 -180 0 -10 7 -32 15 -47 21 -40 21 -232
0 -260 -8 -10 -15 -29 -15 -41 0 -12 -11 -34 -24 -50 -13 -15 -26 -38 -30 -50
-10 -31 -98 -117 -142 -138 -33 -16 -45 -17 -89 -6 -27 6 -81 18 -120 26 -38
7 -77 16 -85 19 -27 10 -362 58 -460 66 -52 4 -108 12 -123 19 -46 18 -1044
15 -1122 -4 -33 -8 -82 -15 -110 -15 -27 0 -95 -7 -150 -15 -115 -18 -195 -30
-315 -44 -47 -6 -119 -18 -160 -26 -41 -9 -101 -20 -134 -24 -32 -5 -63 -14
-69 -20 -6 -6 -25 -11 -41 -11 -17 0 -44 -7 -60 -15 -15 -8 -45 -15 -65 -15
-21 0 -46 -7 -57 -15 -10 -8 -38 -15 -60 -15 -23 0 -58 -7 -77 -15 -20 -8 -49
-15 -64 -15 -15 0 -41 -7 -57 -15 -15 -8 -37 -15 -48 -15 -11 0 -32 -6 -46
-14 -32 -16 -169 -59 -267 -82 -38 -9 -77 -22 -85 -29 -8 -7 -26 -16 -40 -20
-27 -7 -85 -31 -110 -44 -9 -5 -30 -12 -48 -15 -17 -4 -34 -12 -37 -17 -4 -5
-18 -9 -33 -9 -15 0 -40 -7 -56 -15 -15 -8 -38 -15 -50 -15 -12 0 -30 -6 -41
-14 -11 -7 -30 -17 -43 -20 -22 -7 -23 -7 -17 56 13 149 13 178 5 279 -5 58
-16 121 -24 140 -8 19 -22 51 -30 71 -9 20 -21 40 -26 43 -6 3 -10 13 -10 21
0 26 -60 106 -129 172 -36 34 -70 62 -75 62 -5 0 -18 7 -28 17 -10 9 -28 21
-39 27 -12 6 -21 16 -20 21 1 9 91 47 156 65 17 5 68 23 115 40 47 17 103 37
125 43 22 7 46 16 54 21 8 5 31 13 50 17 109 24 138 31 156 39 11 5 38 14 60
19 96 22 229 61 239 71 5 5 26 10 45 10 20 0 45 7 55 15 12 9 42 15 76 15 34
0 64 6 76 15 10 8 40 15 66 15 26 0 59 5 73 10 28 11 140 34 215 45 24 3 49
10 55 14 5 5 46 11 91 14 44 3 93 11 109 17 16 6 81 13 144 16 64 3 136 10
161 15 25 5 126 15 225 21 443 26 698 31 995 17z m-3540 -709 c0 -5 -9 -10
-20 -10 -11 0 -26 -12 -34 -29 -9 -16 -25 -31 -37 -34 -28 -8 -19 -31 14 -35
23 -3 27 0 27 21 0 19 6 26 28 30 21 4 37 -3 69 -29 23 -19 51 -34 63 -34 31
0 16 16 -46 52 -30 17 -53 35 -51 42 6 17 52 19 67 2 7 -9 20 -16 30 -16 31 0
180 -119 180 -145 0 -5 16 -30 35 -54 19 -24 35 -52 35 -62 0 -10 5 -21 10
-24 6 -3 10 -25 10 -48 1 -23 7 -60 15 -82 19 -51 19 -74 0 -118 -8 -20 -15
-56 -15 -79 0 -40 -26 -127 -43 -144 -4 -4 -7 -15 -7 -24 0 -10 -7 -23 -15
-30 -26 -21 -19 -82 15 -120 16 -19 29 -40 30 -46 0 -5 14 -23 30 -39 17 -16
30 -36 30 -46 0 -9 15 -28 34 -42 18 -14 46 -50 61 -79 15 -29 38 -67 51 -85
13 -17 24 -35 24 -38 0 -3 11 -21 24 -38 13 -18 27 -43 31 -57 4 -14 19 -42
31 -62 13 -21 24 -40 24 -44 0 -3 13 -23 29 -43 35 -44 84 -139 105 -201 8
-25 21 -58 30 -75 9 -16 16 -35 16 -41 0 -6 11 -21 25 -34 17 -16 25 -34 25
-56 0 -17 7 -37 16 -45 11 -9 14 -22 10 -45 -5 -26 -3 -32 15 -37 16 -4 20
-12 17 -34 -2 -17 -9 -28 -18 -28 -11 0 -14 -9 -11 -35 1 -19 7 -43 12 -52 5
-9 9 -29 9 -45 1 -31 20 -63 39 -63 14 0 8 29 -16 76 -10 19 -13 41 -9 57 8
34 26 35 26 3 0 -14 4 -28 10 -31 13 -8 50 -94 50 -117 0 -11 5 -28 11 -39 7
-15 7 -24 -1 -34 -8 -10 -5 -20 15 -40 17 -19 25 -39 25 -62 0 -19 6 -47 14
-61 30 -59 46 -104 46 -131 0 -16 6 -34 14 -40 8 -7 17 -38 20 -69 3 -31 8
-78 12 -104 5 -41 4 -46 -13 -45 -15 2 -18 -5 -18 -42 0 -27 5 -46 13 -48 7
-3 12 4 12 16 0 12 5 21 10 21 6 0 10 -6 10 -14 0 -7 6 -19 13 -25 14 -11 15
-128 1 -233 -4 -32 -2 -48 5 -48 6 0 11 18 11 40 0 29 4 40 15 40 12 0 14 -17
13 -92 -2 -61 2 -101 11 -117 10 -18 13 -110 12 -413 -1 -214 -4 -394 -7 -399
-3 -5 3 -24 14 -42 23 -40 39 -167 21 -167 -7 0 -21 8 -31 17 -10 9 -46 22
-81 28 -57 10 -62 13 -65 38 -4 33 10 35 31 5 24 -36 39 -12 25 37 -15 50 -17
53 -28 35 -5 -8 -11 -12 -14 -10 -6 7 -26 368 -32 578 -3 115 -1 178 6 187 7
9 4 24 -15 56 -32 57 -35 151 -5 204 21 38 26 65 11 65 -5 0 -11 -10 -14 -22
-5 -18 -8 -19 -21 -8 -23 18 -20 44 9 78 24 29 25 35 25 173 0 159 8 132 -87
291 -33 55 -80 98 -108 98 -8 0 -15 6 -15 14 0 19 17 29 25 16 11 -18 25 -11
25 14 0 17 -11 30 -36 45 l-36 21 7 65 c5 45 4 65 -4 65 -6 0 -11 -12 -11 -26
0 -33 -24 -27 -28 7 -3 26 -43 138 -73 206 -11 23 -19 49 -19 57 0 9 -11 41
-25 72 -14 31 -25 62 -25 69 0 7 -7 18 -16 26 -9 7 -14 22 -11 36 3 16 -2 27
-14 34 -23 12 -24 37 -3 67 12 18 19 20 29 12 16 -13 35 -5 35 14 0 7 11 23
25 36 17 16 22 27 15 34 -14 14 -60 -13 -71 -41 -10 -27 -29 -30 -29 -5 0 9
-7 26 -15 36 -8 11 -15 28 -15 38 0 25 -17 23 -25 -4 -5 -15 -1 -26 15 -38 15
-12 21 -25 18 -46 -4 -38 -20 -37 -32 1 -5 17 -17 46 -27 66 -11 20 -19 43
-19 50 0 8 -16 36 -35 63 -19 27 -40 65 -46 85 -7 20 -18 40 -25 44 -8 4 -14
15 -14 23 0 9 -20 47 -45 85 -25 38 -45 73 -45 78 0 4 -9 16 -19 25 -11 10
-27 32 -36 49 -30 59 -57 102 -91 144 -19 23 -34 46 -34 52 0 35 -75 121 -105
121 -12 0 -30 7 -41 15 -10 8 -40 15 -65 15 -25 0 -61 7 -79 16 -39 20 -170
141 -170 158 0 7 -11 23 -24 35 -13 13 -27 34 -31 48 -3 13 -17 42 -30 64 -21
32 -25 51 -25 114 0 43 4 75 10 75 6 0 10 -11 10 -25 0 -14 5 -25 10 -25 6 0
10 9 10 21 0 11 5 30 12 42 6 12 12 39 13 59 1 20 9 46 18 56 20 22 24 86 5
80 -7 -3 -20 -24 -28 -49 -23 -63 -49 -111 -60 -104 -14 9 0 75 31 142 16 34
29 65 29 69 0 16 52 74 78 86 15 7 27 19 27 25 0 14 71 53 97 53 9 0 20 5 23
10 3 6 19 10 36 10 16 0 29 -4 29 -10z m4085 -375 c24 -8 79 -14 135 -15 58 0
101 -5 107 -11 7 -7 42 -15 80 -19 105 -12 305 -59 325 -77 17 -15 18 -43 18
-358 0 -380 -15 -894 -31 -1085 -22 -258 -45 -451 -58 -495 -5 -16 -13 -59
-16 -95 -4 -36 -11 -70 -16 -76 -4 -5 -12 -41 -17 -80 -11 -78 -54 -284 -76
-359 -81 -278 -152 -480 -202 -577 -8 -14 -14 -31 -14 -37 0 -13 -91 -197
-144 -291 -20 -36 -43 -78 -51 -95 -8 -16 -31 -52 -52 -80 l-39 -50 -174 -12
c-215 -14 -423 -40 -473 -59 -20 -8 -57 -14 -82 -14 -24 0 -46 -4 -49 -9 -3
-5 -27 -12 -53 -16 -27 -4 -100 -22 -163 -42 -63 -19 -131 -39 -150 -44 -54
-16 -140 -80 -177 -133 -30 -43 -33 -55 -33 -118 0 -58 5 -82 31 -135 35 -74
31 -86 -27 -81 -26 2 -42 9 -49 23 -6 11 -38 62 -73 114 -66 100 -74 127 -42
156 11 10 34 48 51 84 41 87 50 200 24 296 -15 56 -25 72 -71 114 -36 33 -77
58 -126 77 -94 36 -156 37 -224 1 l-51 -26 -20 27 c-11 15 -31 47 -44 71 -28
51 -30 54 -90 146 -49 75 -89 138 -184 290 -33 53 -74 117 -92 143 -17 26 -48
75 -68 110 -21 34 -57 89 -81 122 -24 33 -44 62 -44 65 0 3 -27 46 -60 97 -33
51 -60 103 -60 115 0 12 -4 24 -9 27 -4 3 -11 29 -15 58 -4 29 -11 67 -16 83
-37 126 -73 246 -85 275 -33 87 -44 119 -60 175 -10 33 -24 71 -31 85 -7 14
-22 52 -35 85 -12 33 -32 83 -44 110 -12 28 -35 82 -51 120 -15 39 -40 90 -54
115 -25 46 -39 73 -83 165 -35 72 -72 139 -96 174 -12 16 -28 45 -37 63 -8 18
-37 65 -65 103 -141 199 -159 235 -112 235 10 0 30 6 44 14 15 7 51 21 80 31
49 15 156 56 236 91 17 8 37 14 44 14 7 0 34 7 59 16 25 9 52 19 60 22 8 2 51
18 95 34 44 16 95 33 114 38 18 4 38 13 44 19 6 6 26 11 43 11 18 0 45 5 61
11 15 6 96 28 178 49 83 22 166 43 185 48 19 5 71 17 115 27 44 9 96 21 115
25 19 5 62 12 95 15 33 4 105 16 160 27 55 11 129 24 165 28 36 3 75 12 87 18
12 7 62 12 112 12 49 0 102 5 118 12 43 19 322 26 808 22 348 -4 448 -7 480
-19z m2423 -1475 c9 -5 49 -22 87 -36 39 -14 84 -31 100 -37 17 -7 49 -26 70
-42 22 -17 51 -38 65 -47 49 -31 160 -150 210 -226 67 -101 117 -206 131 -273
6 -30 15 -72 20 -94 14 -66 10 -158 -11 -263 -47 -239 -222 -480 -422 -580
-125 -63 -284 -87 -410 -61 -64 13 -101 29 -170 74 -60 40 -83 43 -98 14 -36
-66 63 -160 223 -213 26 -8 21 -41 -10 -62 -41 -27 -122 -54 -164 -54 -68 0
-170 39 -232 89 -84 68 -195 211 -223 288 -24 67 -14 193 15 193 6 0 43 -22
83 -49 40 -27 90 -55 110 -62 33 -11 39 -11 58 6 29 27 25 39 -27 82 -139 112
-231 228 -274 343 -22 59 -24 80 -24 220 l1 155 37 62 c65 107 167 160 291
150 40 -3 82 -10 92 -16 11 -5 37 -18 59 -27 52 -23 171 -145 180 -184 4 -16
11 -32 16 -35 5 -4 9 -43 9 -88 0 -100 -16 -132 -84 -166 -92 -45 -201 -7
-277 95 -29 40 -46 54 -65 54 -55 0 -53 -79 6 -172 34 -55 88 -94 163 -118
l52 -17 5 -55 c5 -59 22 -88 50 -88 26 0 42 25 51 81 10 64 24 81 63 77 30 -3
31 -5 37 -58 16 -147 83 -226 229 -272 69 -22 108 -22 173 -1 92 29 163 87
203 165 27 53 30 78 12 96 -27 27 -59 13 -129 -57 -65 -65 -74 -70 -123 -76
-111 -14 -174 14 -217 97 -46 89 -8 234 89 337 64 68 183 142 272 167 51 15
100 47 100 66 0 4 -9 17 -20 28 -51 51 -249 -7 -365 -106 -69 -58 -85 -56
-100 16 -6 30 -27 85 -48 122 -20 37 -37 74 -37 81 0 17 71 75 120 99 19 9 69
26 110 38 110 32 140 70 85 106 -63 41 -237 -14 -369 -118 -51 -40 -72 -42
-107 -12 -23 20 -135 64 -163 64 -15 0 -30 8 -36 20 -9 18 -4 30 34 83 58 82
109 128 182 161 32 15 66 32 74 36 21 12 217 12 238 0z m-2007 -1922 c7 -13
63 -99 124 -193 205 -310 265 -408 265 -429 0 -32 -36 -83 -70 -101 -17 -9
-64 -20 -104 -24 -40 -5 -82 -13 -94 -20 -11 -6 -37 -11 -57 -11 -20 0 -56 -5
-81 -11 -60 -15 -68 -6 -53 59 27 116 -37 231 -152 273 -34 13 -59 28 -59 36
0 8 20 47 43 86 24 40 77 136 117 215 75 148 95 168 121 120z m-2946 -161 c25
-45 59 -100 76 -122 16 -22 36 -53 44 -70 21 -45 59 -107 98 -161 57 -80 67
-108 67 -179 0 -104 23 -159 84 -204 28 -20 65 -43 82 -50 40 -16 71 -50 117
-127 41 -68 44 -81 22 -110 -11 -15 -14 -54 -15 -175 0 -168 7 -200 56 -264
23 -31 24 -37 24 -213 0 -99 -4 -183 -9 -186 -41 -26 -303 251 -407 429 -16
27 -33 57 -39 67 -10 17 -70 127 -99 183 -9 17 -16 38 -16 47 0 9 -4 20 -10
23 -5 3 -10 16 -10 28 0 12 -7 35 -15 50 -8 15 -17 44 -21 64 -4 20 -15 59
-26 87 -10 28 -21 76 -25 106 -3 30 -11 64 -17 75 -6 11 -14 74 -18 140 -11
181 -21 623 -14 641 9 24 21 11 71 -79z m3915 -298 c186 -16 381 -46 396 -62
4 -4 17 -7 28 -7 12 0 34 -7 50 -15 15 -8 41 -15 56 -15 15 0 48 -11 74 -25
26 -14 59 -25 74 -25 51 0 57 -12 28 -66 -15 -27 -29 -66 -33 -87 -7 -47 -22
-54 -64 -33 -18 9 -44 16 -58 16 -14 0 -35 7 -45 15 -21 16 -150 60 -206 70
-19 4 -54 13 -78 21 -23 8 -67 14 -96 14 -30 0 -67 7 -82 15 -17 9 -56 15 -92
15 -36 0 -72 6 -85 14 -15 9 -67 15 -159 19 -143 5 -168 12 -168 49 0 28 56
96 83 101 30 6 225 -1 377 -14z m-4830 -122 c57 -25 106 -69 96 -85 -3 -5 -25
-12 -48 -16 -24 -4 -65 -13 -93 -21 -140 -42 -161 -49 -175 -60 -8 -6 -37 -21
-65 -34 -79 -38 -168 -105 -221 -168 -58 -69 -94 -119 -94 -131 0 -5 -11 -19
-24 -31 l-23 -22 -27 31 c-33 40 -39 66 -34 138 11 149 202 348 381 399 29 8
66 19 82 23 55 17 185 5 245 -23z m3614 -38 c29 -34 39 -65 34 -100 -3 -24 -3
-24 -167 -27 -111 -2 -169 -6 -179 -15 -10 -8 -58 -13 -139 -14 -72 -1 -130
-6 -137 -13 -8 -6 -51 -13 -97 -16 -46 -3 -96 -10 -110 -16 -15 -5 -51 -13
-80 -18 -30 -5 -96 -20 -148 -34 -51 -14 -98 -23 -102 -20 -5 3 -9 14 -9 24 0
10 -4 21 -9 24 -5 3 -12 23 -16 43 -4 21 -12 44 -18 52 -16 19 12 37 70 45 25
3 51 10 57 15 6 4 45 16 86 25 41 10 89 22 105 28 17 6 62 13 100 14 39 2 111
9 160 17 58 9 177 15 332 16 l241 1 26 -31z m2165 -108 c49 -37 22 -144 -53
-215 -44 -41 -247 -286 -339 -409 -19 -25 -36 -37 -52 -37 -40 0 -37 14 16 76
28 32 57 71 65 87 8 15 19 27 24 27 5 0 19 18 31 41 11 23 37 60 57 82 73 82
81 100 88 188 7 81 8 85 52 131 49 52 73 58 111 29z m-1152 -21 c16 -6 77 -15
134 -20 118 -10 188 -21 239 -37 19 -7 62 -19 95 -28 33 -9 74 -21 90 -27 17
-5 68 -20 115 -33 151 -40 162 -48 127 -92 -12 -15 -38 -50 -57 -78 -19 -27
-53 -73 -75 -102 -22 -28 -60 -79 -85 -112 -25 -34 -56 -74 -70 -90 -14 -15
-29 -36 -35 -45 -12 -19 -94 -44 -186 -56 -37 -5 -75 -13 -85 -19 -19 -10
-114 -27 -206 -38 -45 -5 -64 6 -38 22 13 8 13 76 -1 112 -13 36 -47 73 -79
85 -83 33 -227 24 -287 -16 -44 -30 -93 -100 -93 -131 0 -37 23 -86 54 -114
33 -31 33 -51 1 -51 -20 0 -29 8 -41 38 -21 50 -39 84 -88 167 -49 84 -56 157
-20 197 18 20 110 165 179 282 65 110 87 144 110 169 25 27 28 27 149 27 68 0
136 -5 153 -10z m-2310 -102 c37 -51 38 -55 39 -140 1 -90 0 -87 59 -168 54
-75 85 -122 85 -129 0 -5 7 -15 16 -22 25 -21 187 -269 180 -276 -14 -14 -60
25 -94 80 -20 33 -49 73 -63 91 -14 17 -60 81 -101 141 -230 337 -248 366
-248 398 0 45 25 77 60 77 23 0 36 -10 67 -52z m-1949 17 c145 -44 276 -141
359 -267 102 -153 121 -408 42 -543 -35 -59 -55 -47 -74 43 -22 100 -38 137
-70 158 -24 16 -27 16 -45 -1 -24 -22 -26 -80 -5 -132 39 -92 -4 -264 -83
-329 -53 -44 -126 -70 -156 -56 -22 10 -24 17 -27 99 -3 73 -8 94 -28 121 -18
25 -29 32 -50 30 -26 -3 -26 -3 -31 -113 -8 -164 -39 -210 -142 -210 -59 0
-61 1 -99 44 -21 24 -44 61 -49 83 -11 37 -41 78 -58 78 -5 0 -17 -9 -27 -20
-14 -15 -18 -37 -19 -88 -1 -62 -3 -67 -25 -70 -47 -7 -137 37 -190 92 -56 60
-87 116 -126 230 -25 71 -27 93 -27 207 1 144 12 188 75 311 91 177 282 304
525 348 69 13 268 4 330 -15z m3283 -71 c5 -3 24 -37 43 -77 20 -40 44 -88 55
-107 11 -19 45 -89 77 -155 114 -239 150 -311 176 -349 15 -22 25 -42 23 -46
-2 -4 -28 -12 -57 -18 -159 -36 -158 -36 -158 7 0 55 -89 148 -175 183 -22 9
-67 19 -100 22 -50 5 -68 2 -113 -19 -59 -27 -82 -65 -82 -132 0 -48 32 -118
59 -133 12 -6 21 -14 21 -18 0 -20 -77 -42 -162 -48 -83 -6 -97 -4 -133 15
-22 11 -43 21 -47 21 -4 0 -32 11 -61 25 -42 20 -65 41 -103 93 -27 36 -53 74
-59 84 -25 43 -170 255 -191 278 -40 44 -145 222 -140 236 3 8 17 14 30 14 14
0 46 7 72 16 25 8 67 19 93 24 25 5 87 18 136 29 172 38 201 42 360 51 88 6
176 11 195 13 46 5 230 -2 241 -9z m2564 -569 c1 -44 -3 -85 -8 -92 -5 -7 -30
-15 -55 -19 -26 -3 -51 -10 -57 -14 -5 -4 -34 -11 -64 -15 -30 -4 -69 -14 -87
-21 -18 -8 -51 -14 -72 -14 -22 0 -52 -4 -68 -10 -16 -5 -60 -14 -99 -20 -135
-19 -224 -35 -231 -42 -4 -5 -21 -8 -38 -8 -17 0 -40 -7 -50 -15 -12 -9 -42
-15 -77 -15 -38 0 -61 -5 -69 -15 -8 -10 -31 -15 -69 -15 -31 -1 -74 -7 -96
-15 -22 -8 -68 -15 -103 -15 -34 0 -78 -6 -96 -14 -18 -7 -57 -17 -87 -21 -29
-4 -78 -15 -109 -25 -30 -10 -75 -21 -100 -24 -24 -4 -50 -12 -57 -17 -7 -6
-41 -13 -75 -16 -35 -2 -73 -9 -85 -15 -12 -6 -42 -8 -67 -5 -26 4 -48 2 -51
-3 -3 -6 -19 -10 -34 -10 -15 0 -31 -4 -37 -10 -5 -5 -41 -14 -79 -19 -95 -14
-285 -55 -310 -68 -11 -6 -51 -13 -88 -16 -38 -2 -74 -10 -80 -16 -6 -6 -36
-11 -66 -11 -50 0 -127 -14 -221 -41 -19 -5 -46 -10 -60 -12 l-25 -2 0 100 0
100 40 8 c22 5 54 8 71 8 18 -1 51 6 74 14 23 8 60 15 81 15 21 0 82 11 135
25 53 14 111 25 129 25 20 0 35 6 39 15 4 11 22 15 69 15 37 0 68 5 75 13 7 6
50 17 95 24 190 26 294 46 365 69 23 8 61 14 83 14 22 0 51 7 65 16 17 12 38
15 68 12 27 -3 50 -1 58 7 15 14 143 40 156 31 5 -3 30 1 57 9 26 8 67 15 89
15 23 0 77 11 121 25 44 14 96 25 115 25 19 1 53 7 75 15 22 8 50 15 63 15 13
0 31 4 41 10 20 10 83 22 271 50 69 11 148 24 175 30 28 6 78 15 112 19 35 5
69 14 77 20 8 7 40 14 72 17 31 2 60 6 63 9 3 3 12 4 20 3 12 -2 15 -21 16
-83z m-4530 29 c16 -24 16 -27 -1 -45 -25 -28 -31 -24 -31 26 0 51 8 56 32 19z
m614 -134 c8 0 28 -11 45 -24 17 -13 47 -27 66 -31 19 -4 55 -18 80 -31 25
-12 52 -25 60 -29 8 -3 31 -15 50 -26 64 -39 105 -59 119 -59 13 0 116 -46
161 -72 8 -5 35 -18 60 -29 141 -65 146 -69 118 -97 -9 -9 -8 -15 6 -25 26
-19 17 -60 -14 -68 l-25 -6 28 -11 c15 -6 27 -18 27 -26 0 -22 -16 -28 -30
-11 -7 8 -23 15 -35 15 -13 0 -36 6 -52 14 -70 35 -206 97 -288 131 -49 21
-111 49 -136 62 -26 13 -51 23 -57 23 -5 0 -15 7 -22 15 -7 8 -22 15 -34 15
-11 0 -30 7 -40 15 -11 8 -30 15 -42 15 -26 0 -48 24 -41 44 3 7 -1 24 -10 36
-10 13 -13 34 -10 54 3 22 -1 38 -14 55 -10 13 -19 32 -19 42 0 10 -4 19 -10
19 -5 0 -10 4 -10 9 0 6 12 3 28 -5 15 -7 33 -14 41 -14z m-219 -30 c4 -8 14
-30 23 -48 9 -19 17 -41 17 -50 0 -8 7 -24 17 -34 15 -17 15 -19 -2 -38 -10
-11 -27 -20 -37 -20 -31 0 -75 51 -83 97 -12 72 40 146 65 93z m-307 -150 c14
-11 37 -20 50 -20 14 0 29 -5 32 -11 4 -5 17 -14 30 -19 16 -6 25 -20 30 -46
3 -21 17 -51 30 -68 l24 -32 140 -1 c133 -2 143 -3 173 -26 18 -14 42 -27 52
-28 11 -2 21 -10 24 -16 3 -10 -14 -13 -62 -13 -72 0 -85 -8 -56 -35 27 -25
119 -15 139 15 17 26 37 26 52 -1 9 -18 6 -26 -21 -54 -35 -36 -35 -65 -1 -65
22 0 67 75 51 85 -17 11 -11 25 11 25 30 0 169 -68 176 -86 3 -8 -3 -21 -13
-29 -18 -13 -18 -14 7 -25 15 -7 31 -22 37 -34 15 -33 142 -65 142 -36 0 6
-13 10 -28 10 -15 0 -33 5 -39 11 -6 6 -22 17 -35 23 -12 6 -23 20 -23 31 0
28 45 23 88 -9 19 -15 47 -26 64 -26 16 0 38 -7 49 -15 10 -8 27 -15 36 -15
10 0 33 -13 51 -30 19 -16 44 -30 56 -30 12 0 23 -6 26 -12 9 -29 12 -598 3
-598 -5 0 -24 11 -42 25 -18 14 -39 25 -47 25 -16 0 -64 43 -91 81 -13 19 -19
22 -29 12 -7 -7 -21 -13 -31 -13 -21 0 -91 35 -135 67 -17 12 -39 23 -47 23
-9 0 -16 5 -16 10 0 6 13 10 30 10 19 0 33 7 40 20 16 30 92 28 112 -2 14 -21
48 -20 48 1 0 21 -79 52 -115 45 -19 -3 -35 -10 -35 -15 0 -5 -17 -9 -38 -9
-21 0 -47 -7 -58 -15 -10 -8 -29 -15 -41 -15 -24 0 -44 21 -25 28 7 2 12 9 12
15 0 8 -4 7 -12 -1 -17 -17 -63 -15 -78 3 -7 8 -23 15 -36 15 -13 0 -28 9 -34
19 -5 11 -20 23 -32 26 -20 6 -60 24 -198 89 -48 23 -80 42 -93 55 -6 6 -21
11 -33 11 -12 0 -27 7 -34 15 -7 8 -21 15 -32 15 -10 0 -40 12 -66 26 -26 15
-67 37 -91 50 -71 39 -72 39 -69 118 2 39 -3 107 -10 152 -15 97 -6 134 32
134 52 0 40 43 -14 54 -23 4 -30 11 -30 29 0 13 5 28 12 35 9 9 9 15 0 24 -14
14 -16 38 -3 38 4 0 20 -9 34 -20z m4347 -34 c0 -7 -6 -18 -12 -24 -9 -7 -14
-46 -16 -114 -3 -97 -4 -104 -28 -124 -24 -20 -26 -25 -20 -85 4 -35 9 -94 12
-132 l6 -67 -47 -21 c-50 -22 -60 -20 -60 14 0 11 -6 22 -12 24 -8 3 -13 -4
-13 -17 0 -50 -15 -60 -98 -60 -52 -1 -83 -5 -96 -15 -11 -8 -34 -15 -51 -15
-17 0 -56 -9 -88 -20 -71 -25 -83 -25 -115 1 -25 19 -35 20 -116 14 -48 -4
-100 -13 -115 -21 -14 -8 -36 -14 -47 -14 -12 0 -27 -7 -34 -15 -16 -19 -80
-19 -106 0 -22 16 -134 21 -134 5 0 -5 24 -10 53 -10 28 -1 63 -7 77 -15 27
-16 106 -20 114 -6 3 4 28 11 56 14 28 3 60 13 72 22 31 21 158 18 158 -4 0
-7 -80 -27 -150 -37 -25 -3 -64 -12 -88 -20 -23 -8 -63 -14 -87 -14 -25 0 -66
-5 -92 -11 -139 -33 -174 -43 -184 -55 -13 -16 -95 -19 -104 -4 -11 18 -35 10
-45 -15 -8 -22 -15 -25 -63 -25 -29 0 -57 4 -63 9 -8 9 -55 14 -96 12 -29 -2
-21 -18 12 -24 59 -12 31 -27 -52 -27 -59 0 -86 -4 -98 -15 -11 -10 -39 -16
-74 -17 -31 -1 -61 -7 -67 -14 -6 -7 -36 -16 -67 -20 -31 -3 -79 -15 -107 -25
-27 -11 -63 -19 -78 -19 -24 0 -27 3 -22 20 5 17 2 20 -26 20 -18 0 -50 -8
-71 -17 -39 -17 -50 -33 -23 -33 8 0 15 -5 15 -11 0 -7 -18 -8 -53 -4 -43 6
-56 3 -77 -13 -17 -13 -49 -22 -95 -27 -68 -6 -92 -13 -147 -41 -14 -8 -48
-14 -75 -14 -28 0 -58 -7 -71 -16 -12 -8 -32 -14 -45 -12 l-22 3 -3 287 -2
287 32 17 c34 18 147 44 189 44 14 0 34 7 45 15 10 8 30 15 44 15 14 0 53 7
85 16 54 14 112 24 243 41 34 4 42 2 42 -11 0 -17 15 -22 25 -7 17 28 125 63
189 62 17 0 50 11 75 25 39 22 56 25 114 22 55 -2 70 0 78 14 6 11 31 18 89
23 44 4 83 11 86 16 3 5 27 9 53 9 27 0 66 6 87 14 22 7 64 16 94 20 56 7 124
26 136 39 4 4 38 7 74 7 48 0 71 4 80 15 8 10 31 15 72 15 32 0 75 7 95 15 20
9 66 15 108 15 49 0 76 4 84 14 6 7 30 16 54 20 23 4 56 12 73 18 22 8 36 8
50 0 14 -8 25 -6 48 11 19 13 45 21 76 21 29 1 56 8 67 17 12 12 44 18 101 21
45 3 88 10 94 16 17 17 98 16 98 -2z m-4632 -392 c39 -19 75 -41 80 -47 5 -7
12 -33 14 -58 7 -67 37 -120 78 -141 167 -85 696 -338 706 -338 19 0 123 -107
174 -179 100 -142 130 -186 130 -193 0 -4 13 -26 29 -50 31 -46 85 -140 100
-173 5 -11 25 -54 45 -96 20 -42 36 -80 36 -85 0 -6 5 -15 12 -22 14 -14 38
-80 38 -108 0 -12 -12 -48 -27 -80 -23 -53 -26 -71 -26 -174 0 -110 1 -118 32
-179 32 -62 122 -161 146 -161 25 0 38 -32 47 -117 5 -48 16 -99 24 -114 18
-35 18 -69 1 -69 -12 0 -140 27 -242 51 -46 11 -154 33 -240 49 -33 6 -90 18
-126 26 -37 8 -79 14 -94 14 -15 0 -53 6 -84 14 -31 7 -90 19 -131 25 -41 7
-104 19 -140 27 -36 8 -79 14 -96 14 -17 0 -44 4 -60 10 -28 9 -214 33 -379
49 -44 5 -107 13 -140 19 -135 25 -298 44 -555 66 -91 8 -182 17 -203 21 -21
4 -122 10 -225 14 -186 6 -187 6 -190 29 -2 13 1 29 7 36 6 7 16 49 22 92 24
180 -26 327 -154 457 -70 71 -166 134 -245 161 -56 20 -47 39 23 52 33 6 74
18 90 27 37 20 96 78 139 137 26 36 43 48 80 58 25 6 57 12 70 12 24 0 271 61
316 78 53 20 187 88 230 117 25 17 58 37 75 45 44 22 233 213 297 300 30 41
70 102 88 135 18 33 41 71 51 85 19 28 69 134 69 147 0 9 29 53 35 53 2 0 35
-16 73 -36z m-2162 -69 c78 -24 179 -78 182 -98 2 -11 -17 -40 -50 -75 -30
-31 -67 -84 -82 -117 -16 -33 -36 -76 -45 -95 -13 -28 -16 -68 -16 -200 l0
-165 36 -75 c42 -87 97 -152 168 -201 28 -19 51 -37 51 -40 0 -4 -55 -9 -122
-11 -106 -4 -136 -9 -219 -37 -100 -34 -169 -79 -169 -110 0 -10 9 -26 21 -37
20 -18 22 -18 82 -1 34 10 89 25 122 34 124 34 364 14 488 -41 17 -7 39 -17
47 -20 117 -48 235 -177 264 -291 20 -73 20 -106 3 -173 -18 -67 -59 -125
-127 -179 -116 -92 -230 -123 -452 -123 -189 0 -299 19 -443 75 -153 60 -223
105 -316 202 -94 99 -141 199 -181 388 -15 73 -4 467 16 525 8 25 26 95 41
155 15 61 33 123 41 139 8 16 14 36 14 45 0 31 137 284 191 353 56 72 152 146
226 173 51 18 168 19 229 0z m571 -184 c34 -16 66 -39 73 -50 9 -18 7 -22 -17
-32 -169 -66 -240 -172 -231 -346 3 -69 7 -84 36 -125 35 -50 102 -102 145
-114 52 -12 28 -57 -47 -88 -112 -46 -281 14 -352 125 -47 75 -64 138 -64 236
0 95 3 105 59 221 35 72 119 149 196 178 82 31 127 30 202 -5z m4841 -612 c74
-12 146 -53 218 -124 72 -71 129 -162 112 -182 -7 -8 -35 -13 -78 -13 -83 0
-179 -33 -310 -105 -68 -37 -233 -191 -389 -361 -298 -324 -549 -570 -659
-644 -20 -14 -66 -46 -102 -71 -36 -26 -85 -57 -109 -69 -38 -19 -47 -20 -68
-9 -31 17 -70 83 -100 168 -26 79 -30 213 -8 276 19 52 19 109 0 125 -22 18
-61 4 -87 -30 -12 -17 -30 -30 -39 -30 -39 0 -109 130 -109 204 0 42 41 162
73 212 68 108 177 200 292 247 58 24 85 29 160 31 88 1 91 0 133 -33 23 -19
42 -43 42 -53 0 -11 -22 -62 -50 -115 -66 -127 -66 -183 0 -183 22 0 36 13 76
71 152 219 291 395 371 469 60 57 149 130 158 130 4 0 18 9 31 19 38 30 154
71 226 80 65 9 124 6 216 -10z m306 -463 c18 -7 43 -26 55 -42 19 -24 21 -36
16 -79 -15 -124 -52 -229 -114 -319 -17 -24 -31 -49 -31 -54 0 -10 -85 -106
-184 -210 -131 -137 -401 -321 -597 -408 -54 -24 -107 -48 -116 -52 -80 -40
-97 -45 -223 -73 -25 -6 -101 -11 -170 -12 -191 -1 -211 14 -107 85 174 118
417 327 552 474 83 90 138 149 296 321 203 220 349 329 492 368 67 18 90 18
131 1z"/>
<path d="M2530 15846 c0 -13 7 -29 15 -36 19 -16 19 -39 -1 -61 -10 -11 -14
-25 -10 -35 6 -15 11 -12 36 17 16 19 29 38 30 43 0 4 -11 21 -25 38 -14 16
-25 36 -25 44 0 8 -4 14 -10 14 -5 0 -10 -11 -10 -24z"/>
<path d="M2012 15785 c2 -14 8 -26 13 -26 6 0 11 12 13 26 2 18 -1 25 -13 25
-12 0 -15 -7 -13 -25z"/>
<path d="M1987 15674 c-10 -11 -8 -54 2 -54 14 0 25 40 14 51 -5 5 -12 6 -16
3z"/>
<path d="M1950 15541 c0 -10 8 -29 18 -41 16 -20 19 -21 31 -6 12 14 10 20
-13 41 -32 30 -36 31 -36 6z"/>
<path d="M2560 15506 c0 -7 7 -19 15 -26 12 -10 16 -9 21 3 3 9 3 21 -1 27 -9
15 -35 12 -35 -4z"/>
<path d="M2014 15456 c-8 -21 3 -49 16 -41 5 3 10 15 10 25 0 25 -18 36 -26
16z"/>
<path d="M2525 15390 c-8 -13 3 -50 15 -50 9 0 20 25 20 46 0 16 -26 19 -35 4z"/>
<path d="M2160 15285 c0 -17 46 -42 57 -32 8 9 -27 47 -44 47 -7 0 -13 -7 -13
-15z"/>
<path d="M2237 15294 c-14 -14 -6 -24 19 -24 16 0 24 5 22 13 -5 14 -31 21
-41 11z"/>
<path d="M2453 15263 c-33 -6 -28 -23 7 -23 20 0 30 5 30 15 0 8 -3 14 -7 14
-5 -1 -18 -4 -30 -6z"/>
<path d="M2570 15082 c0 -13 49 -56 56 -49 10 10 -24 57 -41 57 -8 0 -15 -4
-15 -8z"/>
<path d="M2540 15007 c0 -7 11 -24 25 -37 14 -13 25 -29 25 -35 0 -14 38 -50
45 -43 10 9 -18 73 -39 91 -37 31 -56 39 -56 24z"/>
<path d="M2700 14925 c0 -11 9 -31 20 -45 17 -23 19 -23 26 -7 5 13 -1 27 -20
45 -24 24 -26 25 -26 7z"/>
<path d="M2640 14852 c0 -5 6 -17 14 -28 11 -15 17 -16 27 -7 16 16 4 43 -21
43 -11 0 -20 -4 -20 -8z"/>
<path d="M2818 14705 c-12 -13 6 -55 38 -86 41 -40 54 -32 28 16 -21 40 -57
78 -66 70z"/>
<path d="M2836 14542 c-7 -12 24 -73 39 -75 19 -3 15 29 -8 57 -15 18 -26 25
-31 18z"/>
<path d="M2987 14454 c-4 -4 -7 -17 -7 -29 0 -11 -5 -26 -12 -33 -20 -20 -1
-25 27 -6 19 12 25 24 23 42 -3 26 -18 38 -31 26z"/>
<path d="M3073 14234 c-9 -23 11 -38 26 -20 13 16 7 36 -10 36 -5 0 -12 -7
-16 -16z"/>
<path d="M3106 14144 c-10 -26 -7 -51 9 -64 10 -8 15 -30 15 -61 0 -37 4 -49
15 -49 11 0 15 12 15 45 0 31 -5 47 -15 51 -17 7 -21 59 -5 69 17 10 11 25 -9
25 -10 0 -22 -7 -25 -16z"/>
<path d="M3020 14125 c0 -16 6 -25 15 -25 16 0 19 9 9 34 -9 25 -24 19 -24 -9z"/>
<path d="M3050 14031 c0 -30 4 -41 16 -41 11 0 14 9 12 37 -4 52 -28 56 -28 4z"/>
<path d="M3080 13941 c0 -23 38 -91 51 -91 12 0 12 35 0 58 -5 9 -12 25 -15
35 -7 23 -36 22 -36 -2z"/>
<path d="M3140 13806 c0 -27 15 -42 25 -26 8 13 -3 50 -16 50 -5 0 -9 -11 -9
-24z"/>
<path d="M3360 13388 c0 -15 42 -78 53 -78 13 0 7 24 -13 58 -20 32 -40 42
-40 20z"/>
<path d="M3458 12908 c-7 -20 3 -108 12 -108 13 0 20 43 13 83 -6 37 -17 48
-25 25z"/>
<path d="M3487 12613 c-4 -3 -7 -26 -7 -50 0 -32 4 -43 15 -43 11 0 15 12 15
50 0 46 -7 60 -23 43z"/>
<path d="M3510 12004 c0 -59 24 -55 28 4 2 33 0 42 -12 42 -12 0 -16 -11 -16
-46z"/>
<path d="M5905 15580 c-58 -27 -80 -49 -109 -107 -28 -57 -33 -92 -14 -111 17
-17 81 -15 125 3 52 22 180 19 262 -5 49 -15 87 -36 136 -75 76 -61 113 -70
139 -33 19 26 20 58 5 111 -13 50 -121 155 -194 191 -102 50 -274 63 -350 26z"/>
<path d="M4522 15459 c-82 -30 -126 -62 -167 -124 -65 -99 -81 -182 -44 -241
27 -44 72 -47 111 -6 115 119 136 133 241 161 45 13 130 11 230 -5 55 -9 77
14 77 79 0 44 -4 54 -35 82 -75 71 -289 99 -413 54z"/>
<path d="M5975 15153 c-11 -3 -24 -9 -30 -13 -5 -4 -22 -10 -36 -13 -48 -12
-188 -157 -213 -222 -43 -113 -63 -322 -47 -490 14 -138 41 -236 87 -318 51
-91 50 -87 24 -108 -14 -10 -38 -21 -53 -24 -36 -9 -59 -45 -55 -87 2 -25 9
-35 30 -42 32 -11 102 8 135 37 11 10 38 23 60 29 58 16 173 22 186 9 6 -6 18
-11 27 -11 9 0 37 -22 63 -48 46 -47 47 -49 47 -113 l0 -65 -52 -51 c-34 -33
-79 -64 -123 -84 -63 -28 -82 -32 -195 -36 -108 -5 -128 -8 -147 -26 -30 -27
-29 -51 4 -77 26 -20 36 -21 178 -18 131 3 157 6 205 27 30 14 64 33 76 43 11
10 24 18 29 18 17 0 74 51 109 98 27 38 38 66 48 123 12 71 15 76 65 123 29
26 53 53 53 58 0 6 12 24 27 42 118 140 157 487 85 756 -31 115 -114 281 -168
334 -125 126 -165 146 -299 151 -55 2 -109 1 -120 -2z m191 -136 c95 -41 171
-120 219 -224 14 -32 30 -66 35 -75 5 -9 13 -36 16 -60 4 -24 12 -49 18 -57
15 -20 15 -433 0 -452 -7 -8 -15 -29 -19 -47 -14 -64 -107 -202 -138 -202 -5
0 -37 24 -72 54 -36 30 -73 57 -85 61 -23 7 -26 32 -7 60 37 56 56 207 37 293
-41 188 -109 290 -208 313 -39 8 -105 -13 -129 -42 -19 -23 -63 -111 -63 -125
0 -8 -4 -14 -10 -14 -18 0 -11 146 11 227 38 137 86 211 184 281 24 17 45 21
106 22 42 0 90 -6 105 -13z"/>
<path d="M3615 15111 c-53 -10 -111 -51 -156 -110 -31 -43 -37 -58 -42 -123
-7 -80 5 -211 20 -231 6 -6 13 -23 16 -37 8 -35 118 -162 175 -203 70 -50 238
-88 256 -58 3 4 19 11 36 14 47 10 88 46 125 112 62 112 57 257 -13 409 -42
90 -113 163 -197 201 -55 26 -157 38 -220 26z"/>
<path d="M4801 15055 c-18 -8 -44 -15 -57 -15 -27 0 -109 -42 -142 -73 -34
-31 -104 -125 -124 -167 -69 -143 -97 -327 -78 -524 28 -281 186 -550 380
-643 111 -53 192 -65 257 -38 19 8 44 15 55 15 46 0 154 78 192 139 44 70 58
100 96 201 19 50 30 224 23 375 -4 106 -10 148 -34 225 -16 52 -33 104 -39
115 -80 173 -88 186 -167 266 -64 65 -132 109 -169 109 -10 0 -37 7 -59 15
-51 18 -91 18 -134 0z m173 -144 c97 -42 142 -94 225 -256 23 -44 41 -87 41
-96 0 -9 6 -32 14 -50 25 -63 40 -291 27 -414 -7 -60 -16 -119 -21 -130 -5
-11 -17 -40 -28 -65 -25 -58 -92 -133 -149 -167 -53 -31 -132 -36 -206 -13
-54 16 -56 31 -6 41 51 11 112 83 133 158 26 92 24 309 -4 398 -39 128 -121
234 -193 254 -51 13 -114 3 -152 -26 -42 -31 -81 -115 -95 -202 -7 -40 -16
-73 -20 -73 -13 0 -23 144 -16 211 12 106 54 246 91 305 29 45 121 121 169
138 52 20 130 14 190 -13z"/>
<path d="M4380 13652 c-30 -15 -78 -50 -107 -78 -44 -42 -53 -56 -53 -85 0
-19 5 -40 12 -47 16 -16 50 -15 74 3 40 31 43 23 47 -147 3 -153 18 -288 37
-333 4 -11 16 -42 26 -70 23 -67 96 -198 144 -260 79 -103 212 -198 344 -248
77 -29 89 -30 236 -31 169 -1 173 0 309 67 104 52 123 65 183 117 57 50 148
160 148 178 0 5 7 15 15 22 27 22 61 95 85 180 13 47 30 92 37 101 16 19 78
39 119 39 70 0 126 70 89 110 -15 16 -31 20 -87 20 -38 0 -84 -7 -105 -15 -28
-12 -85 -15 -274 -15 -136 0 -240 4 -244 9 -3 5 -31 12 -63 16 -54 6 -87 13
-222 52 -184 52 -214 65 -410 171 -102 55 -210 131 -210 147 0 7 9 20 20 30
24 22 25 43 4 73 -22 32 -84 29 -154 -6z"/>
<path d="M6165 12601 c-41 -18 -137 -95 -144 -115 -2 -6 -11 -20 -21 -31 -55
-65 -77 -222 -40 -294 22 -45 34 -51 101 -51 138 0 313 185 334 355 6 42 3 55
-17 85 -45 67 -132 88 -213 51z"/>
<path d="M7335 11544 c-44 -16 -109 -74 -132 -118 -11 -21 -14 -49 -11 -99 3
-60 7 -72 31 -92 49 -43 189 -45 267 -5 54 28 100 82 111 130 11 47 3 127 -15
149 -37 47 -169 65 -251 35z"/>
<path d="M7859 11413 c-79 -48 -107 -76 -128 -131 -12 -29 -21 -74 -21 -100 0
-41 5 -53 30 -77 25 -24 43 -30 98 -36 87 -10 144 3 210 47 44 29 59 47 84
100 39 83 34 125 -23 180 -39 38 -42 39 -122 42 -74 2 -86 0 -128 -25z"/>
<path d="M6279 11397 c-74 -28 -97 -52 -104 -111 -12 -93 49 -178 161 -226
107 -46 215 -33 246 30 20 40 23 131 7 163 -61 115 -206 182 -310 144z"/>
<path d="M5718 11310 c-79 -43 -107 -125 -69 -204 39 -79 88 -124 166 -151 84
-29 114 -31 180 -7 85 31 118 111 79 193 -24 50 -102 127 -156 155 -67 34
-152 40 -200 14z"/>
<path d="M5705 10391 c-7 -12 63 -47 73 -37 8 8 -37 45 -55 46 -6 0 -14 -4
-18 -9z"/>
<path d="M4670 10556 c0 -18 17 -29 30 -21 8 5 7 11 -1 21 -15 18 -29 18 -29
0z"/>
<path d="M4750 10455 c-10 -13 -10 -19 5 -35 10 -11 22 -20 27 -20 9 0 11 31
2 54 -8 20 -18 20 -34 1z"/>
<path d="M4760 10361 c0 -19 17 -38 25 -29 7 7 -7 48 -16 48 -5 0 -9 -9 -9
-19z"/>
<path d="M5055 10370 c-8 -13 3 -30 21 -30 18 0 18 14 0 29 -10 8 -16 9 -21 1z"/>
<path d="M4676 10288 c-9 -37 -7 -96 5 -104 20 -12 28 11 22 69 -6 59 -16 73
-27 35z"/>
<path d="M5392 10233 c4 -22 43 -25 43 -3 0 8 -11 16 -23 18 -19 3 -23 0 -20
-15z"/>
<path d="M4735 10189 c-4 -6 1 -16 11 -23 26 -20 8 -39 -32 -33 -39 7 -55 -10
-29 -30 32 -23 71 -16 95 17 20 28 20 31 4 55 -17 26 -38 32 -49 14z"/>
<path d="M5513 10064 c-8 -21 13 -42 28 -27 13 13 5 43 -11 43 -6 0 -13 -7
-17 -16z"/>
<path d="M5742 10063 c2 -10 13 -19 26 -21 24 -4 29 7 10 26 -18 18 -40 15
-36 -5z"/>
<path d="M5642 10021 c-51 -9 -33 -26 23 -22 28 1 52 5 54 7 13 13 -37 22 -77
15z"/>
<path d="M5165 9960 c-4 -7 -3 -16 3 -22 14 -14 57 -6 57 12 0 18 -50 26 -60
10z"/>
<path d="M5011 9953 c1 -15 59 -54 76 -51 30 6 26 28 -6 34 -17 4 -34 11 -37
15 -6 11 -34 12 -33 2z"/>
<path d="M5160 9882 c0 -17 25 -32 52 -32 32 0 37 15 9 30 -23 12 -61 13 -61
2z"/>
<path d="M5632 9643 c3 -19 53 -42 65 -29 13 13 -13 41 -41 44 -22 3 -27 0
-24 -15z"/>
<path d="M5857 9653 c-13 -12 -7 -33 13 -53 24 -24 40 -18 40 14 0 34 -34 59
-53 39z"/>
<path d="M8623 10453 c-29 -3 -43 -9 -43 -19 0 -23 73 -18 95 6 13 15 14 20 4
18 -8 -1 -33 -3 -56 -5z"/>
<path d="M8895 10411 c-10 -17 15 -45 29 -31 7 7 5 15 -6 26 -11 11 -18 13
-23 5z"/>
<path d="M7840 10320 c0 -5 16 -10 35 -10 19 0 35 5 35 10 0 6 -16 10 -35 10
-19 0 -35 -4 -35 -10z"/>
<path d="M7763 10303 c-24 -9 -13 -24 15 -21 15 2 26 8 25 13 -2 12 -23 16
-40 8z"/>
<path d="M7870 10262 c0 -19 30 -33 62 -30 21 2 33 8 33 18 0 11 -13 16 -47
18 -27 2 -48 -1 -48 -6z"/>
<path d="M8754 10189 c-10 -17 13 -36 27 -22 12 12 4 33 -11 33 -5 0 -12 -5
-16 -11z"/>
<path d="M8833 10185 c-3 -9 -3 -19 1 -22 3 -4 -2 -15 -11 -25 -12 -13 -13
-22 -6 -29 15 -15 35 -2 31 20 -2 10 3 25 10 34 14 16 9 37 -9 37 -5 0 -12 -7
-16 -15z"/>
<path d="M8887 10114 c-10 -11 -8 -64 2 -64 13 0 24 51 13 62 -4 4 -11 5 -15
2z"/>
<path d="M6870 10065 c-10 -12 -10 -19 -2 -27 15 -15 48 14 38 31 -10 15 -21
14 -36 -4z"/>
<path d="M6505 10060 c-7 -12 -8 -12 30 -15 37 -3 65 3 65 16 0 12 -87 12 -95
-1z"/>
<path d="M8035 9945 c-36 -30 -25 -46 16 -22 17 9 40 17 51 17 28 0 17 24 -13
27 -14 2 -37 -8 -54 -22z"/>
<path d="M7833 9948 c2 -7 12 -13 22 -13 10 0 20 6 23 13 2 7 -6 12 -23 12
-17 0 -25 -5 -22 -12z"/>
<path d="M7595 9850 c-4 -7 -3 -16 3 -22 14 -14 47 -6 47 12 0 18 -40 26 -50
10z"/>
<path d="M7715 9814 c-27 -13 -57 -32 -65 -40 -14 -15 -12 -15 20 -9 47 10 71
21 98 44 45 39 20 41 -53 5z"/>
<path d="M7098 9703 c-11 -23 -21 -29 -56 -31 -61 -5 -51 -22 13 -22 42 0 55
3 55 15 0 11 12 15 45 15 25 0 45 5 45 10 0 6 -8 10 -17 10 -10 0 -27 7 -37
15 -27 21 -33 19 -48 -12z"/>
<path d="M6750 9660 c0 -5 14 -10 30 -10 17 0 30 5 30 10 0 6 -13 10 -30 10
-16 0 -30 -4 -30 -10z"/>
<path d="M6580 9631 c-44 -9 -62 -19 -55 -32 9 -14 49 -11 71 6 10 8 36 15 56
15 20 0 40 5 43 10 7 11 -59 12 -115 1z"/>
</g>
</svg>
