<?xml version="1.0" standalone="no"?>
<!DOCTYPE svg PUBLIC "-//W3C//DTD SVG 20010904//EN"
 "http://www.w3.org/TR/2001/REC-SVG-20010904/DTD/svg10.dtd">
<svg version="1.0" xmlns="http://www.w3.org/2000/svg"
 width="1000.000000pt" height="2000.000000pt" viewBox="0 0 1000.000000 2000.000000"
 preserveAspectRatio="xMidYMid meet">
<metadata>
Created by potrace 1.16, written by Peter Selinger 2001-2019
</metadata>
<g transform="translate(0.000000,2000.000000) scale(0.100000,-0.100000)"
fill="#000000" stroke="none">
<path d="M5000 17034 c-14 -2 -128 -10 -254 -19 -126 -8 -257 -20 -290 -25
-34 -5 -101 -15 -151 -21 -123 -15 -186 -25 -280 -44 -44 -9 -116 -22 -160
-30 -44 -7 -100 -18 -125 -23 -25 -6 -83 -18 -130 -27 -85 -17 -167 -37 -310
-76 -41 -11 -97 -27 -125 -34 -132 -34 -194 -52 -365 -108 -102 -32 -239 -79
-305 -104 -66 -25 -160 -60 -210 -78 -229 -84 -369 -177 -458 -305 -35 -50
-67 -109 -67 -124 0 -5 -6 -17 -13 -25 -49 -58 -66 -365 -27 -490 31 -99 95
-223 147 -285 86 -102 221 -193 327 -220 32 -9 65 -21 74 -28 20 -17 122 -155
122 -165 0 -5 20 -40 45 -77 24 -38 60 -97 80 -131 41 -74 38 -80 -50 -88
-178 -15 -293 -29 -319 -37 -16 -6 -56 -10 -90 -11 -34 0 -86 -5 -116 -10 -30
-5 -111 -14 -179 -19 -157 -14 -255 -32 -313 -60 -59 -28 -157 -116 -197 -178
-35 -55 -71 -159 -71 -206 0 -17 -6 -51 -14 -76 -8 -25 -24 -110 -37 -190 -12
-80 -28 -185 -36 -235 -32 -208 -44 -295 -54 -380 -5 -49 -14 -101 -20 -114
-5 -13 -14 -54 -19 -90 -5 -36 -21 -145 -35 -241 -15 -96 -33 -227 -40 -290
-8 -63 -19 -134 -25 -158 -6 -24 -11 -105 -11 -180 -1 -114 3 -146 19 -190 29
-74 75 -143 123 -182 40 -32 690 -359 1029 -519 47 -22 96 -51 109 -65 25 -26
25 -28 5 -155 -11 -68 27 -284 68 -391 40 -103 120 -203 211 -263 87 -58 227
-83 306 -56 27 9 40 8 74 -7 30 -14 64 -19 124 -18 78 0 86 2 131 34 45 32 51
34 137 34 75 1 99 5 146 27 69 33 127 84 173 153 23 34 47 58 68 66 18 7 47
24 65 37 42 31 57 29 87 -10 36 -47 33 -80 -19 -183 -47 -91 -52 -101 -96
-169 -47 -72 -189 -197 -270 -237 -101 -51 -203 -86 -271 -94 l-56 -7 -34 59
c-40 71 -101 135 -160 165 -36 20 -62 24 -168 27 -103 3 -129 7 -145 22 -38
34 -161 108 -225 135 -122 51 -302 58 -411 15 -128 -51 -270 -178 -351 -315
-116 -195 -207 -435 -233 -620 -4 -27 -12 -55 -17 -62 -31 -39 -34 -574 -4
-635 8 -15 17 -45 21 -67 21 -124 140 -317 242 -393 30 -22 52 -45 50 -51 -4
-13 -104 -36 -159 -37 -49 0 -116 -27 -129 -51 -16 -30 5 -54 63 -77 119 -45
183 -53 828 -112 100 -9 269 -27 485 -50 55 -6 170 -17 255 -26 280 -27 663
-71 733 -85 27 -5 73 -9 101 -9 28 0 67 -5 86 -11 19 -6 73 -14 120 -19 152
-15 373 -39 490 -54 63 -9 169 -20 235 -26 66 -6 143 -15 170 -20 28 -5 91
-12 140 -16 50 -3 104 -10 121 -15 17 -5 85 -14 150 -19 66 -5 234 -19 374
-30 347 -29 471 -38 705 -49 110 -6 256 -16 325 -22 254 -22 799 3 915 42 32
11 40 19 40 39 0 44 -112 83 -362 127 -59 10 -103 22 -103 28 0 7 24 24 53 39
284 147 581 401 735 627 41 62 122 213 122 231 0 7 8 27 17 43 26 46 26 368
-1 445 -67 198 -225 367 -403 433 -207 76 -419 52 -630 -71 -83 -49 -216 -171
-315 -289 -72 -87 -92 -97 -123 -63 -39 43 -124 73 -222 78 l-93 5 -45 78
c-25 43 -45 83 -45 89 0 6 11 15 25 20 32 12 290 60 324 60 14 0 39 7 55 15
15 8 41 15 57 15 16 0 57 7 92 16 162 41 325 75 474 98 39 6 75 14 79 19 4 4
16 7 27 7 11 0 79 13 151 30 224 51 258 58 361 75 55 10 123 23 150 31 28 7
64 15 80 18 17 3 62 12 100 21 125 29 251 54 440 88 39 6 75 15 80 18 6 4 33
10 60 14 80 11 208 45 233 61 32 21 49 65 57 149 4 39 11 88 17 109 5 22 14
74 18 115 5 42 13 105 19 141 5 36 15 105 21 154 10 77 16 95 46 135 l36 46
-4 186 c-2 146 -6 190 -18 204 -30 36 -89 63 -275 125 -104 35 -202 72 -217
82 l-27 19 62 81 62 80 0 83 c0 81 0 82 -43 138 -49 63 -70 78 -144 108 -28
11 -75 31 -102 43 -63 29 -158 63 -211 75 -77 19 -311 71 -380 86 -77 16 -270
35 -356 35 -65 0 -86 13 -128 78 -54 84 -46 90 80 72 138 -20 401 18 526 75
39 18 63 19 88 2 65 -43 200 -66 284 -48 114 24 205 84 277 182 35 49 36 49
92 49 185 1 433 160 595 383 40 55 110 199 142 292 36 106 46 323 21 455 -52
271 -230 523 -497 702 -105 71 -218 113 -374 138 -175 28 -330 -18 -478 -143
-75 -64 -166 -200 -176 -265 -3 -19 -13 -38 -21 -42 -8 -4 -44 -20 -79 -36
-45 -21 -79 -46 -120 -90 -99 -107 -131 -198 -131 -376 0 -143 23 -245 75
-338 42 -74 43 -90 10 -158 -15 -32 -25 -69 -25 -97 0 -55 -20 -70 -106 -80
-73 -8 -167 8 -239 40 -118 52 -356 240 -406 321 -21 34 -21 41 -11 98 19 98
43 246 53 316 5 36 13 88 18 115 4 28 13 88 20 135 6 47 16 111 22 142 5 32
14 115 19 185 5 71 14 175 20 233 6 58 13 352 15 655 2 303 4 553 4 557 1 4
27 20 59 34 75 36 196 157 246 247 77 138 89 185 89 347 0 135 -2 150 -27 211
-65 159 -167 277 -311 361 -108 62 -278 101 -750 168 -217 31 -462 43 -955 45
-278 1 -516 1 -530 -1z m1070 -194 c91 -6 199 -15 240 -21 41 -5 134 -14 205
-20 72 -5 139 -14 150 -19 11 -5 47 -12 80 -15 33 -4 68 -11 77 -16 9 -5 43
-13 75 -19 186 -30 255 -57 336 -129 57 -52 127 -143 127 -166 0 -9 8 -30 17
-48 25 -46 25 -242 0 -280 -9 -14 -17 -35 -17 -45 0 -11 -7 -25 -16 -32 -8 -8
-21 -28 -29 -46 -18 -44 -98 -128 -140 -148 -38 -18 -91 -21 -130 -6 -33 13
-212 50 -290 60 -33 5 -109 16 -170 25 -60 9 -150 20 -200 25 -49 4 -106 13
-125 19 -57 18 -999 14 -1075 -4 -33 -8 -89 -15 -125 -15 -36 0 -81 -4 -100
-10 -40 -11 -154 -27 -285 -40 -105 -11 -198 -27 -275 -47 -30 -8 -77 -18
-105 -23 -100 -17 -160 -32 -169 -41 -6 -5 -26 -9 -45 -9 -20 0 -49 -7 -65
-15 -15 -8 -47 -15 -70 -15 -22 -1 -52 -7 -66 -15 -14 -8 -40 -14 -58 -15 -19
0 -48 -6 -65 -14 -18 -8 -99 -35 -182 -60 -82 -26 -164 -51 -181 -56 -17 -6
-38 -10 -48 -10 -9 0 -34 -9 -54 -19 -78 -40 -322 -131 -352 -131 -6 0 -32 -9
-57 -21 -56 -25 -76 -20 -66 18 5 16 8 109 7 208 0 173 -1 183 -28 250 -16 39
-34 77 -41 85 -7 8 -16 26 -20 40 -17 54 -153 207 -205 229 -33 14 -90 53 -90
62 0 10 53 39 70 39 7 0 26 6 43 14 18 8 41 16 52 19 33 9 168 57 202 73 17 8
40 14 50 14 10 0 24 5 30 11 6 6 29 15 50 20 21 4 63 15 93 23 30 8 116 31
190 51 74 20 148 42 163 50 16 8 42 15 58 15 16 0 40 6 52 14 12 7 51 16 86
19 35 3 68 10 74 16 6 6 25 11 42 11 32 0 167 27 200 40 11 5 49 11 85 15 36
4 70 11 76 16 6 5 48 11 93 14 45 3 90 9 99 14 10 5 60 12 112 16 52 3 149 12
215 20 121 14 419 33 595 39 178 6 734 -3 900 -14z m-3772 -705 c23 -8 50 -19
60 -24 9 -5 30 -15 45 -22 34 -16 147 -117 147 -131 0 -6 11 -26 25 -44 32
-42 44 -73 63 -159 33 -152 4 -349 -69 -473 -26 -46 -24 -59 19 -118 84 -117
102 -141 132 -179 40 -50 170 -252 170 -264 0 -4 14 -27 30 -49 17 -23 30 -48
30 -56 0 -7 7 -19 15 -26 8 -7 15 -18 15 -25 0 -7 6 -17 13 -23 12 -10 63
-108 94 -182 9 -19 22 -48 29 -63 8 -16 14 -36 14 -46 0 -10 11 -28 25 -41 15
-14 25 -35 25 -51 0 -14 7 -32 15 -39 8 -7 15 -27 15 -45 0 -18 6 -38 14 -44
8 -7 18 -27 22 -44 3 -18 13 -41 20 -52 8 -11 14 -27 14 -35 0 -9 10 -36 22
-61 11 -24 25 -57 29 -74 5 -16 15 -52 23 -80 9 -27 21 -70 27 -95 7 -25 18
-59 25 -77 8 -17 14 -38 14 -46 0 -9 5 -19 10 -22 6 -3 10 -21 10 -38 0 -18 7
-41 15 -51 8 -11 15 -41 15 -67 0 -29 6 -51 15 -59 11 -9 15 -32 15 -79 0 -39
6 -78 15 -95 8 -15 15 -54 15 -86 0 -33 5 -71 12 -87 33 -80 46 -282 47 -721
1 -230 5 -391 11 -402 5 -10 13 -49 16 -88 7 -76 -3 -96 -35 -68 -10 9 -34 16
-55 16 -22 0 -48 9 -66 22 l-30 22 0 170 c0 94 -7 225 -15 291 -9 68 -15 185
-14 271 1 93 -3 158 -9 171 -7 11 -13 65 -16 119 -2 55 -9 112 -15 127 -9 22
-8 34 4 57 8 16 19 32 25 35 13 8 13 302 0 310 -5 3 -10 13 -10 21 0 9 -23 51
-51 94 -40 61 -60 82 -89 94 -24 9 -40 23 -43 38 -3 13 -12 52 -20 86 -8 35
-20 69 -26 75 -6 6 -11 19 -11 30 0 23 -44 153 -75 222 -12 28 -25 64 -29 80
-8 32 -29 83 -52 127 -8 14 -14 35 -14 46 0 11 -7 25 -15 32 -8 7 -15 19 -15
27 0 8 -9 31 -20 51 -30 57 -70 149 -70 162 0 6 -11 26 -24 43 -13 18 -50 81
-82 142 -31 60 -74 134 -93 164 -20 29 -42 65 -50 80 -8 14 -37 59 -65 100
-28 40 -63 96 -78 125 -35 64 -80 106 -115 106 -37 0 -143 30 -173 49 -81 52
-126 93 -164 151 -72 110 -103 180 -109 246 -4 34 -12 73 -18 86 -8 20 -7 35
5 72 9 26 16 55 16 65 0 10 11 40 25 67 14 27 25 56 25 65 0 9 23 42 52 75 84
97 195 134 296 99z m3892 -356 c199 -12 351 -28 385 -40 17 -6 62 -15 100 -19
105 -13 297 -58 313 -74 11 -11 14 -86 14 -412 0 -361 -24 -1101 -37 -1135 -3
-8 -9 -57 -15 -109 -15 -153 -28 -248 -39 -298 -10 -45 -15 -76 -46 -242 -39
-213 -70 -350 -100 -435 -8 -22 -35 -107 -61 -190 -26 -82 -51 -157 -55 -165
-5 -8 -27 -60 -50 -115 -40 -99 -161 -347 -201 -415 -57 -95 -110 -170 -121
-171 -54 -4 -129 -8 -227 -14 -148 -8 -390 -39 -417 -54 -12 -6 -38 -11 -59
-11 -20 0 -57 -6 -83 -14 -25 -8 -71 -20 -101 -27 -76 -17 -256 -75 -306 -99
-50 -25 -110 -82 -135 -132 -30 -59 -26 -141 12 -218 16 -34 28 -69 25 -76 -8
-22 -95 -19 -103 4 -3 9 -34 60 -68 112 -72 109 -84 144 -57 159 30 16 80 130
93 210 27 178 -46 304 -214 365 -93 34 -145 34 -209 -1 l-50 -27 -24 29 c-13
17 -34 48 -45 70 -12 22 -47 78 -79 125 -31 47 -65 99 -74 115 -9 17 -24 42
-34 56 -9 15 -42 67 -72 115 -29 49 -74 120 -100 158 -25 37 -49 76 -55 85 -5
9 -25 41 -44 71 -18 30 -42 68 -53 83 -155 224 -176 268 -213 452 -9 44 -20
89 -25 100 -5 11 -18 49 -29 85 -21 69 -46 142 -60 175 -4 11 -16 45 -25 75
-43 136 -190 485 -235 560 -5 8 -37 70 -70 137 -33 67 -75 146 -93 175 -18 29
-39 64 -46 78 -6 14 -34 57 -62 95 -28 39 -67 94 -88 124 -20 29 -41 59 -47
67 -13 18 3 33 46 44 49 12 182 60 264 95 50 22 104 41 255 90 80 26 149 52
154 56 6 5 19 9 30 9 12 0 34 7 50 15 15 8 39 15 52 15 13 0 41 7 61 15 21 8
102 30 181 49 79 20 147 38 153 41 5 4 30 10 57 15 26 4 101 19 167 33 66 14
158 30 205 37 47 6 108 18 135 25 28 7 81 15 119 19 38 3 74 10 80 16 5 5 39
10 75 11 37 0 91 5 121 11 30 5 107 13 170 17 164 10 850 10 1010 0z m2615
-1505 c38 -14 88 -34 111 -45 23 -10 44 -19 48 -19 15 0 164 -116 217 -169 64
-64 154 -197 199 -294 58 -123 86 -334 60 -442 -6 -22 -15 -61 -20 -87 -19
-94 -120 -277 -199 -362 -116 -124 -250 -199 -411 -231 -79 -16 -93 -16 -177
-1 -89 15 -162 46 -236 98 -42 30 -61 21 -65 -31 -3 -40 0 -46 40 -83 43 -40
145 -98 171 -98 8 0 20 -7 27 -15 29 -35 -100 -105 -195 -105 -24 0 -72 9
-107 20 -173 53 -383 330 -361 475 13 86 30 92 100 38 27 -20 72 -47 101 -60
50 -23 54 -24 77 -9 14 9 25 22 25 28 0 7 -21 30 -46 52 -182 160 -245 242
-284 374 -20 64 -22 90 -18 210 4 127 7 141 33 190 54 102 153 162 265 162
159 0 306 -96 373 -243 23 -52 24 -187 1 -222 -26 -40 -96 -75 -150 -75 -80 0
-149 46 -217 144 -22 32 -62 35 -78 5 -15 -30 3 -90 49 -158 37 -55 99 -96
177 -118 28 -8 30 -13 36 -66 7 -61 21 -87 49 -87 26 0 40 22 49 79 10 63 25
81 67 81 34 0 34 -1 34 -45 0 -25 11 -73 26 -110 40 -100 109 -153 242 -186
120 -30 273 50 336 176 24 47 27 60 18 80 -20 43 -53 32 -131 -44 -61 -60 -78
-71 -117 -77 -114 -17 -181 13 -225 99 -36 70 -20 189 37 273 13 19 24 37 24
40 0 8 50 56 92 87 51 38 163 95 212 108 59 15 86 35 86 64 0 90 -241 32 -386
-91 -63 -54 -78 -50 -89 24 -4 26 -24 78 -46 115 -21 38 -39 76 -39 85 0 22
72 90 105 98 14 3 27 10 30 14 3 5 29 14 58 20 76 16 141 51 145 77 7 45 -79
68 -159 42 -72 -24 -176 -78 -227 -118 -54 -43 -75 -46 -112 -17 -24 20 -139
66 -164 66 -13 0 -29 7 -36 15 -18 22 10 72 84 152 45 48 78 73 140 103 78 38
85 40 181 40 82 0 112 -4 170 -26z m-2005 -1981 c38 -60 91 -139 117 -177 61
-87 78 -114 99 -151 9 -16 40 -64 67 -105 62 -93 69 -141 24 -188 -30 -32 -85
-52 -138 -52 -19 0 -50 -5 -69 -11 -58 -18 -213 -40 -222 -31 -5 5 -3 33 3 62
25 118 -43 236 -159 274 -28 10 -54 21 -57 26 -3 5 18 46 45 92 28 46 81 142
117 213 69 137 80 155 94 155 5 0 40 -48 79 -107z m-3038 -10 c10 -9 18 -20
18 -26 0 -11 65 -119 100 -167 15 -19 44 -66 65 -105 21 -38 61 -103 89 -144
48 -71 51 -78 57 -160 7 -90 24 -147 52 -179 9 -10 45 -35 80 -56 91 -54 111
-74 151 -148 39 -73 44 -99 21 -118 -13 -11 -14 -38 -9 -179 6 -184 13 -217
49 -251 25 -23 25 -24 25 -216 0 -106 -4 -195 -8 -198 -15 -9 -135 89 -202
165 -146 165 -198 242 -315 464 -34 66 -79 190 -120 333 -10 35 -22 65 -27 68
-4 3 -8 27 -8 54 0 27 -5 61 -12 77 -7 15 -16 78 -20 138 -12 164 -21 665 -12
665 4 0 16 -7 26 -17z m4053 -379 c77 -8 153 -19 169 -24 16 -6 43 -10 60 -10
17 -1 63 -12 101 -26 39 -14 86 -28 105 -31 19 -3 44 -11 55 -18 11 -6 40 -18
65 -24 86 -25 94 -30 78 -49 -20 -24 -37 -60 -52 -112 -15 -51 -31 -59 -78
-36 -17 9 -41 16 -52 16 -12 0 -30 6 -41 14 -40 27 -240 81 -360 97 -38 5 -81
14 -95 20 -14 6 -59 13 -100 16 -41 3 -79 9 -85 13 -19 14 -61 19 -175 21 -63
1 -123 6 -132 11 -10 5 -18 20 -18 35 0 33 36 92 64 104 28 12 314 3 491 -17z
m-4951 -105 c78 -26 137 -78 116 -103 -7 -9 -16 -14 -20 -11 -4 2 -32 -2 -61
-10 -30 -8 -76 -20 -104 -26 -67 -15 -227 -93 -295 -145 -77 -58 -159 -148
-204 -221 -20 -35 -41 -63 -46 -63 -4 0 -22 16 -39 35 -29 33 -31 41 -31 108
0 68 3 78 45 152 54 94 70 112 155 175 86 63 120 80 210 106 99 29 192 30 274
3z m3638 -36 c39 -47 59 -125 36 -139 -6 -4 -82 -8 -167 -9 -89 0 -173 -6
-196 -13 -22 -6 -85 -12 -140 -12 -57 0 -106 -5 -111 -10 -6 -6 -44 -13 -85
-16 -41 -3 -99 -11 -129 -19 -30 -7 -89 -21 -130 -30 -41 -9 -86 -21 -100 -25
-14 -5 -43 -12 -66 -15 l-40 -6 -18 58 c-9 32 -22 68 -28 80 -14 28 4 53 38
53 13 0 63 14 111 30 47 17 99 30 115 30 16 0 41 6 56 14 15 7 70 16 122 20
52 4 120 11 150 15 30 5 170 9 311 10 232 1 257 -1 271 -16z m2177 -129 c48
-61 20 -121 -134 -294 -59 -65 -126 -144 -151 -176 -100 -133 -141 -179 -163
-182 -45 -7 -46 15 -5 62 21 25 59 72 84 106 25 34 70 94 101 133 76 97 86
119 94 210 7 77 9 80 54 123 54 52 89 57 120 18z m-1155 -15 c16 -5 64 -9 106
-9 43 0 100 -6 126 -14 46 -13 104 -28 184 -47 19 -4 58 -15 85 -23 28 -9 99
-29 158 -45 104 -28 157 -52 157 -69 0 -5 -11 -19 -25 -32 -14 -13 -25 -29
-25 -36 0 -7 -21 -38 -47 -70 -27 -32 -61 -77 -78 -99 -85 -118 -103 -142
-143 -189 -46 -55 -80 -69 -202 -86 -36 -6 -76 -14 -90 -20 -14 -5 -52 -14
-85 -19 -33 -6 -80 -14 -104 -19 -66 -15 -69 -11 -63 68 l5 70 -39 39 c-93 92
-305 75 -384 -32 -45 -62 -42 -114 10 -171 49 -53 51 -68 9 -64 -34 3 -35 4
-72 83 -35 72 -72 142 -84 157 -5 7 -16 34 -22 59 l-13 46 56 82 c31 44 56 83
56 85 0 3 28 50 63 105 34 56 67 109 72 119 43 74 89 134 108 141 26 11 240 3
281 -10z m-2334 -71 c47 -51 60 -89 60 -170 0 -80 2 -83 75 -187 28 -40 55
-81 61 -92 6 -11 20 -30 31 -42 11 -12 42 -57 69 -100 27 -43 66 -100 86 -127
23 -30 34 -52 27 -55 -18 -12 -89 44 -117 92 -15 25 -47 74 -72 107 -25 34
-60 81 -76 106 -17 25 -78 115 -135 200 -144 213 -148 223 -100 271 38 37 55
37 91 -3z m-1920 -16 c136 -49 172 -72 259 -160 84 -85 113 -131 153 -236 26
-67 35 -234 18 -307 -26 -111 -91 -180 -106 -111 -3 15 -8 34 -11 42 -2 8 -9
37 -14 63 -11 61 -43 107 -73 107 -47 0 -59 -50 -31 -130 25 -72 20 -160 -15
-237 -33 -73 -72 -113 -138 -143 -50 -23 -85 -25 -100 -7 -5 6 -12 51 -14 98
-3 69 -9 92 -27 118 -18 25 -29 31 -50 29 -26 -3 -26 -3 -31 -113 -6 -120 -14
-147 -55 -185 -22 -21 -36 -25 -87 -25 -57 0 -61 2 -98 41 -21 23 -43 58 -49
79 -12 44 -37 75 -61 75 -32 0 -42 -26 -39 -97 l4 -68 -34 -3 c-55 -5 -134 33
-191 94 -50 53 -119 181 -134 249 -42 186 -27 335 49 487 93 185 292 320 530
359 88 14 283 3 345 -19z m3260 -62 c11 -6 37 -45 59 -88 21 -42 48 -95 60
-117 11 -22 68 -137 127 -255 58 -118 115 -227 126 -243 12 -16 17 -32 12 -37
-10 -10 -96 -34 -161 -45 -46 -7 -45 -8 -58 49 -8 40 -110 138 -169 165 -94
41 -230 21 -270 -42 -41 -62 -19 -173 42 -212 32 -20 41 -35 21 -35 -6 0 -25
-6 -42 -14 -18 -8 -69 -19 -114 -26 -85 -11 -107 -6 -228 50 -11 5 -32 14 -47
19 -33 12 -101 102 -271 359 -12 18 -41 57 -64 87 -24 29 -43 56 -43 60 0 6
-7 16 -69 108 -43 63 -39 79 24 92 28 5 55 13 61 17 6 4 31 10 55 14 24 4 85
17 134 30 50 13 103 24 119 24 16 0 55 7 85 15 97 25 575 45 611 25z m-1945
-542 c85 -131 84 -140 -9 -85 -38 23 -39 26 -42 85 -1 34 0 62 4 62 4 0 25
-28 47 -62z m4523 -33 c2 -48 -1 -92 -5 -96 -5 -5 -29 -13 -53 -18 -119 -26
-149 -33 -195 -46 -61 -17 -229 -45 -273 -45 -18 0 -40 -4 -50 -9 -9 -6 -44
-15 -77 -20 -113 -20 -159 -31 -169 -41 -6 -6 -35 -10 -66 -10 -34 0 -64 -6
-76 -15 -10 -8 -39 -15 -64 -15 -25 0 -61 -5 -80 -11 -19 -6 -78 -17 -130 -25
-110 -15 -274 -48 -310 -62 -14 -5 -47 -13 -75 -17 -27 -4 -62 -13 -77 -21
-15 -8 -48 -14 -73 -14 -25 0 -53 -4 -63 -9 -9 -5 -53 -14 -97 -19 -44 -6
-100 -15 -125 -20 -25 -6 -81 -18 -125 -26 -82 -17 -133 -28 -207 -47 -24 -6
-71 -14 -105 -19 -35 -5 -71 -13 -80 -18 -10 -5 -49 -13 -88 -17 -38 -4 -108
-16 -155 -27 -47 -11 -101 -21 -120 -22 l-35 -1 0 99 0 99 30 9 c17 5 39 13
50 18 11 5 43 11 70 13 28 2 78 9 113 16 165 30 190 34 229 38 23 3 47 11 54
19 7 9 31 14 61 14 27 0 64 6 82 14 18 7 57 17 87 20 30 4 95 16 144 26 50 10
114 21 144 25 30 4 69 14 87 21 18 8 53 14 78 14 24 0 57 7 72 15 16 8 50 15
75 15 25 0 49 3 53 7 9 9 105 32 161 39 116 14 254 36 285 46 19 6 69 17 110
24 114 19 173 33 184 44 6 6 29 10 52 10 24 0 55 5 71 11 15 6 60 15 98 20 39
5 107 15 153 24 45 8 117 21 160 28 42 8 87 19 99 25 12 7 41 12 65 13 24 0
52 4 63 9 11 5 25 7 30 6 6 -1 11 -42 13 -91z m-3910 -105 c7 0 30 -11 52 -25
22 -14 46 -25 53 -25 8 0 41 -13 73 -29 32 -16 66 -32 74 -35 8 -3 42 -22 75
-41 33 -19 66 -34 73 -35 7 0 42 -14 78 -30 36 -17 75 -35 87 -40 12 -6 29
-14 37 -20 8 -5 49 -25 91 -44 l76 -34 2 -96 c1 -52 -3 -97 -8 -100 -5 -3 -22
1 -37 9 -16 8 -35 15 -42 15 -7 0 -61 23 -120 51 -59 28 -150 69 -202 90 -52
21 -130 56 -173 79 -42 22 -86 40 -97 40 -10 0 -21 4 -25 9 -3 5 -19 12 -35
16 -38 8 -49 28 -57 106 -3 36 -17 83 -33 115 -15 29 -25 55 -23 58 3 2 19 -4
36 -15 18 -10 38 -19 45 -19z m-211 -55 c12 -22 22 -49 22 -59 1 -11 8 -28 18
-38 14 -16 14 -22 3 -43 -20 -38 -47 -41 -81 -9 -35 34 -53 85 -46 131 12 73
49 81 84 18z m-326 -114 c13 -10 39 -22 57 -26 34 -7 92 -49 92 -67 0 -22 56
-88 75 -88 11 0 31 -7 43 -15 17 -12 44 -15 119 -13 93 3 100 2 138 -24 22
-16 48 -28 58 -28 9 0 35 -11 57 -25 23 -14 55 -28 73 -32 18 -3 41 -12 52
-20 11 -7 26 -13 33 -13 8 0 33 -13 57 -29 23 -16 60 -34 81 -41 22 -7 57 -23
80 -36 22 -13 49 -24 59 -24 9 0 36 -9 59 -21 22 -12 52 -27 66 -33 14 -7 36
-18 50 -26 14 -7 32 -16 40 -20 13 -6 15 -51 18 -301 1 -162 0 -300 -3 -307
-4 -11 -11 -9 -32 6 -16 10 -53 31 -83 46 -30 15 -64 36 -75 46 -11 9 -36 20
-56 24 -20 4 -56 18 -80 31 -24 14 -64 34 -89 46 -73 35 -164 77 -180 83 -8 3
-23 10 -32 16 -10 5 -26 14 -35 20 -10 5 -61 30 -113 55 -135 65 -170 83 -215
110 -22 13 -47 24 -56 25 -9 0 -22 7 -29 15 -7 8 -22 15 -34 15 -11 1 -48 17
-81 36 -33 19 -74 41 -91 49 -60 27 -59 22 -70 305 -4 85 -6 166 -5 180 0 14
1 36 1 50 1 54 13 61 51 31z m4352 -46 c-15 -133 -36 -311 -48 -395 -8 -58
-15 -116 -15 -131 0 -31 -17 -49 -46 -49 -13 0 -26 -5 -29 -10 -3 -6 -17 -7
-30 -4 -12 3 -26 1 -29 -5 -4 -6 -29 -11 -55 -11 -27 0 -71 -6 -97 -14 -91
-27 -311 -77 -529 -121 -203 -40 -294 -58 -327 -62 -21 -3 -42 -11 -49 -19 -8
-9 -33 -14 -74 -14 -43 0 -66 -5 -75 -15 -8 -9 -30 -15 -57 -15 -24 0 -60 -7
-80 -15 -19 -8 -61 -15 -92 -15 -31 0 -72 -5 -91 -11 -19 -6 -64 -17 -100 -24
-36 -8 -114 -26 -175 -40 -60 -15 -132 -31 -160 -37 -27 -6 -58 -14 -67 -19
-10 -5 -51 -11 -92 -13 -41 -3 -83 -9 -93 -15 -18 -10 -100 -28 -186 -40 -26
-4 -53 -13 -59 -19 -7 -7 -31 -12 -55 -12 -24 0 -60 -7 -80 -15 -19 -8 -48
-15 -64 -15 l-29 0 0 295 c0 287 0 295 21 305 26 14 109 36 174 45 28 4 59 12
70 18 11 6 45 14 75 18 30 4 89 15 130 24 67 14 144 28 309 55 29 5 58 13 64
19 6 6 34 11 62 11 30 0 59 6 71 15 11 8 41 14 72 15 29 0 63 6 75 12 12 7 58
18 102 25 86 13 191 32 320 58 44 8 96 18 115 22 19 3 40 9 45 13 6 4 37 10
69 14 33 4 64 11 70 15 6 5 72 19 146 31 74 12 178 31 230 42 52 11 120 23
150 27 30 4 65 12 77 19 12 7 41 12 65 12 24 0 49 5 56 12 6 6 51 17 99 24 48
7 106 17 128 22 61 15 90 11 88 -13z m-4635 -389 c81 -41 87 -48 96 -106 13
-86 24 -107 77 -140 27 -16 52 -30 55 -30 4 0 79 -35 168 -79 404 -197 475
-231 485 -231 20 0 138 -127 202 -220 121 -174 202 -316 303 -535 21 -44 42
-88 47 -97 16 -31 10 -79 -18 -137 -23 -50 -26 -68 -26 -167 -1 -107 1 -115
32 -179 37 -75 96 -140 146 -161 29 -12 35 -21 44 -64 6 -28 11 -68 11 -88 0
-20 7 -58 16 -83 19 -53 13 -85 -14 -74 -31 12 -266 66 -327 76 -33 5 -73 13
-90 19 -16 5 -61 14 -100 20 -38 5 -104 16 -145 24 -41 7 -142 26 -225 40 -82
15 -168 31 -190 36 -22 5 -94 16 -160 25 -66 9 -165 23 -220 31 -55 8 -118 14
-140 14 -22 0 -67 7 -100 15 -33 8 -79 14 -103 15 -24 0 -62 5 -85 10 -48 12
-157 24 -402 45 -323 28 -400 34 -496 34 -112 1 -130 11 -105 58 25 49 37 174
25 261 -26 186 -172 360 -374 445 -33 14 -61 30 -63 36 -5 14 40 31 79 31 59
0 182 99 224 180 12 22 25 29 77 39 265 50 364 79 498 147 164 82 319 205 435
346 66 80 184 271 236 383 35 75 47 95 56 95 2 0 34 -15 71 -34z m-2083 -99
c77 -37 115 -62 115 -77 0 -4 -25 -34 -55 -66 -36 -38 -71 -92 -101 -151 -43
-88 -45 -96 -51 -205 -9 -180 20 -296 100 -401 31 -39 138 -127 156 -127 6 0
11 -4 11 -9 0 -4 -57 -11 -127 -14 -101 -4 -145 -11 -208 -32 -137 -46 -175
-71 -175 -117 0 -46 34 -55 112 -30 135 44 208 55 313 49 142 -9 239 -37 370
-104 48 -25 131 -100 167 -151 93 -130 89 -299 -9 -411 -54 -62 -142 -123
-209 -145 -98 -32 -234 -49 -349 -43 -139 7 -304 38 -380 72 -16 7 -59 26 -95
41 -151 65 -275 177 -339 307 -37 75 -51 112 -82 232 -7 25 -9 126 -6 275 3
187 8 243 21 274 9 21 16 48 16 59 0 57 87 309 152 436 96 191 189 294 318
356 50 24 64 26 155 23 92 -3 107 -6 180 -41z m490 -155 c73 -35 93 -55 75
-77 -7 -8 -20 -15 -29 -15 -24 0 -112 -54 -144 -88 -67 -70 -98 -251 -58 -339
25 -54 90 -117 146 -140 25 -10 45 -24 45 -32 0 -20 -40 -61 -60 -61 -9 0 -21
-5 -27 -11 -17 -17 -114 -14 -177 7 -85 27 -150 89 -194 183 -30 66 -35 85
-35 161 -2 185 97 353 244 413 85 35 139 34 214 -1z m4792 -602 c149 -20 274
-105 357 -244 45 -74 38 -86 -48 -86 -64 0 -147 -22 -231 -62 -134 -63 -271
-182 -513 -446 -373 -409 -583 -600 -792 -722 -89 -52 -108 -49 -154 23 -70
109 -98 298 -61 402 21 57 19 102 -4 115 -26 14 -65 -2 -87 -35 -9 -14 -24
-25 -33 -25 -46 0 -111 122 -111 207 0 49 36 151 75 213 107 169 305 286 471
278 62 -3 75 -7 112 -36 28 -23 42 -41 42 -58 0 -13 -22 -66 -50 -117 -64
-120 -65 -177 -4 -177 23 0 24 1 219 265 234 317 430 473 635 504 78 12 90 12
177 1z m368 -474 c69 -29 81 -118 33 -260 -73 -220 -289 -473 -568 -667 -174
-120 -448 -254 -615 -300 -106 -29 -364 -34 -391 -7 -15 15 -12 20 47 62 301
218 408 316 833 774 197 211 305 304 421 361 101 50 179 62 240 37z"/>
<path d="M5900 15574 c-54 -25 -103 -84 -122 -146 -10 -33 -9 -41 7 -58 22
-24 58 -25 116 -4 57 21 188 20 265 -1 35 -11 80 -34 112 -59 103 -80 136 -92
163 -60 20 24 15 108 -10 147 -61 99 -200 188 -303 194 -180 10 -179 10 -228
-13z"/>
<path d="M4522 15459 c-44 -15 -79 -36 -117 -71 -30 -27 -55 -55 -55 -61 0 -6
-7 -18 -15 -27 -19 -21 -48 -136 -41 -164 10 -41 45 -76 76 -76 22 0 40 14 85
65 59 67 103 96 184 121 57 17 175 18 236 2 42 -11 46 -10 70 12 53 50 16 149
-67 180 -18 6 -42 17 -53 23 -11 6 -69 12 -130 14 -91 2 -121 -1 -173 -18z"/>
<path d="M5990 15151 c-94 -20 -194 -95 -263 -197 -63 -94 -95 -308 -77 -523
12 -136 43 -249 94 -344 21 -38 35 -75 33 -82 -3 -7 -26 -22 -51 -35 -53 -25
-76 -53 -76 -92 0 -42 40 -54 105 -33 27 8 59 24 70 34 11 10 31 21 45 24 129
31 124 31 185 12 46 -14 70 -29 102 -64 40 -44 42 -49 43 -109 0 -60 -2 -66
-42 -114 -74 -87 -186 -128 -350 -128 -86 0 -100 -2 -123 -23 -22 -19 -25 -26
-17 -47 17 -45 46 -52 198 -48 124 3 146 7 201 31 108 47 205 124 239 190 8
15 18 56 23 91 6 58 11 68 54 111 56 56 132 160 142 195 4 14 13 34 20 45 6
11 15 34 18 50 3 17 11 50 17 75 20 74 17 342 -4 430 -25 104 -65 222 -82 241
-8 8 -14 20 -14 25 0 5 -19 39 -43 75 -43 69 -152 170 -197 184 -14 4 -30 11
-36 16 -15 12 -172 20 -214 10z m206 -147 c60 -32 84 -53 138 -124 46 -60 93
-164 103 -226 3 -21 9 -43 14 -49 4 -5 12 -62 18 -125 16 -161 -7 -362 -50
-430 -5 -8 -13 -25 -19 -37 -12 -28 -89 -113 -102 -113 -5 0 -33 20 -61 44
-29 24 -66 51 -84 60 -44 22 -48 34 -24 66 11 16 28 66 37 114 16 81 16 92 0
184 -26 147 -87 255 -168 298 -35 18 -91 18 -127 0 -43 -23 -101 -119 -101
-168 0 -15 -4 -28 -10 -28 -6 0 -10 38 -10 95 0 193 74 360 192 436 38 24 53
28 124 28 69 1 89 -3 130 -25z"/>
<path d="M3615 15101 c-58 -11 -105 -43 -150 -102 l-40 -52 -4 -109 c-5 -149
18 -217 106 -321 99 -119 186 -167 299 -167 93 0 167 44 215 127 44 79 52 139
34 248 -27 162 -111 287 -238 355 -42 23 -157 34 -222 21z"/>
<path d="M4800 15050 c-8 -5 -27 -10 -42 -10 -43 0 -122 -46 -178 -103 -83
-85 -138 -197 -165 -342 -17 -89 -20 -291 -5 -383 41 -252 203 -501 380 -584
19 -9 68 -24 107 -34 69 -17 76 -17 126 -1 30 9 61 17 70 17 22 0 129 65 159
98 39 41 93 147 123 239 26 81 26 87 23 305 -4 243 -9 264 -93 467 -39 94
-140 224 -214 276 -72 49 -248 83 -291 55z m135 -121 c59 -16 143 -76 181
-128 45 -62 119 -213 138 -281 8 -30 21 -112 27 -182 17 -169 1 -329 -41 -424
-33 -73 -106 -156 -165 -187 -48 -25 -140 -29 -203 -8 -49 16 -50 33 -3 42 45
9 89 53 119 119 23 49 26 71 30 204 3 119 1 161 -13 210 -25 93 -64 164 -121
223 l-52 53 -72 0 c-56 0 -78 -4 -100 -20 -53 -38 -86 -114 -105 -247 -10 -63
-22 -52 -31 24 -12 120 7 261 53 383 23 61 54 105 107 151 80 71 161 93 251
68z"/>
<path d="M4416 13665 c-49 -17 -139 -79 -171 -117 -30 -35 -32 -78 -7 -101 24
-22 37 -21 72 5 16 12 32 19 36 16 3 -4 7 -77 8 -165 3 -235 39 -391 125 -538
116 -200 260 -321 456 -386 61 -20 89 -23 215 -22 137 1 149 2 221 31 272 109
473 339 526 602 7 39 44 59 127 70 50 7 66 15 89 40 32 36 33 44 7 70 -26 26
-110 27 -177 3 -40 -15 -84 -18 -273 -18 -159 0 -234 4 -255 13 -16 7 -59 16
-95 21 -79 11 -183 38 -310 81 -81 28 -151 61 -355 169 -50 27 -145 103 -145
116 0 7 7 18 15 25 27 22 28 50 4 76 -25 27 -56 30 -113 9z"/>
<path d="M6165 12594 c-170 -87 -273 -305 -202 -429 50 -89 172 -67 295 54 72
71 122 167 129 250 5 54 3 60 -25 93 -29 33 -86 58 -128 58 -11 0 -41 -12 -69
-26z"/>
<path d="M7370 11551 c-49 -16 -85 -40 -126 -83 -36 -37 -43 -51 -48 -98 -12
-116 32 -160 161 -160 88 0 143 22 198 79 38 40 40 45 43 117 5 82 -4 101 -60
130 -34 17 -134 26 -168 15z"/>
<path d="M7880 11419 c-108 -52 -160 -127 -160 -228 0 -51 3 -61 31 -87 29
-28 34 -29 122 -29 77 0 99 4 137 23 88 46 140 122 140 204 0 32 -7 47 -43 85
-42 44 -45 46 -113 49 -56 4 -77 0 -114 -17z"/>
<path d="M6255 11380 c-22 -10 -48 -29 -57 -40 -24 -30 -24 -110 1 -158 22
-42 96 -101 159 -125 52 -21 143 -22 181 -3 39 20 65 84 59 141 -17 147 -206
249 -343 185z"/>
<path d="M5715 11301 c-67 -39 -92 -118 -61 -193 80 -191 398 -230 432 -53 13
69 -75 189 -173 239 -63 32 -151 35 -198 7z"/>
</g>
</svg>
